<svg width="64" height="64" viewBox="0 0 64 64" fill="none" xmlns="http://www.w3.org/2000/svg">
<rect x="0.5" y="0.5" width="63" height="63" rx="31.5" fill="black"/>
<rect x="0.5" y="0.5" width="63" height="63" rx="31.5" stroke="url(#paint0_linear_280_389)"/>
<path d="M33.9535 19.9574L47.4419 35.383C47.6279 35.5957 47.7668 35.8255 47.8586 36.0723C47.9504 36.3192 47.9975 36.5858 48 36.8723C48 37.4397 47.8288 37.9362 47.4865 38.3617C47.1442 38.7872 46.6952 39 46.1395 39L17.8605 39C17.3023 39 16.8521 38.7872 16.5098 38.3617C16.1675 37.9362 15.9975 37.4397 16 36.8723C16 36.7305 16.1861 36.234 16.5582 35.383L30.0465 19.9574C30.3566 19.6028 30.6667 19.3546 30.9768 19.2128C31.2868 19.0709 31.6279 19 32 19C32.3721 19 32.7132 19.0709 33.0233 19.2128C33.3333 19.3546 33.6434 19.6028 33.9535 19.9574Z" fill="url(#paint1_linear_280_389)"/>
<defs>
<linearGradient id="paint0_linear_280_389" x1="32" y1="0" x2="32" y2="64" gradientUnits="userSpaceOnUse">
<stop stop-color="#15E768"/>
<stop offset="1" stop-color="#8B15E7"/>
</linearGradient>
<linearGradient id="paint1_linear_280_389" x1="52.9091" y1="52.4091" x2="19.6526" y2="23.27" gradientUnits="userSpaceOnUse">
<stop stop-color="#15E768"/>
<stop offset="1" stop-color="#8B15E7"/>
</linearGradient>
</defs>
</svg>
