<svg width="24" height="24" viewBox="0 0 24 24" fill="none" xmlns="http://www.w3.org/2000/svg">
<path fill-rule="evenodd" clip-rule="evenodd" d="M12 15.2305L20.0731 23.3036C20.5015 23.732 21.0825 23.9727 21.6884 23.9727C22.2942 23.9727 22.8752 23.732 23.3036 23.3036C23.732 22.8752 23.9726 22.2942 23.9726 21.6884C23.9726 21.0825 23.732 20.5015 23.3036 20.0731L15.2274 12L23.3021 3.92686C23.5141 3.71474 23.6822 3.46294 23.7969 3.18584C23.9116 2.90874 23.9707 2.61175 23.9706 2.31185C23.9705 2.01194 23.9114 1.71498 23.7965 1.43793C23.6817 1.16088 23.5134 0.909163 23.3013 0.697147C23.0892 0.485131 22.8374 0.31697 22.5603 0.202266C22.2832 0.0875623 21.9862 0.0285611 21.6863 0.0286318C21.3864 0.0287025 21.0894 0.0878432 20.8124 0.202678C20.5353 0.317512 20.2836 0.485792 20.0716 0.697908L12 8.77105L3.92683 0.697908C3.71628 0.479708 3.46439 0.305625 3.18584 0.185816C2.90729 0.0660075 2.60768 0.00287254 2.30447 9.57629e-05C2.00126 -0.00268102 1.70054 0.0549555 1.41985 0.169643C1.13915 0.28433 0.88411 0.45377 0.6696 0.668078C0.45509 0.882385 0.28541 1.13727 0.170458 1.41785C0.0555063 1.69844 -0.00241381 1.99911 7.70576e-05 2.30232C0.00256793 2.60553 0.0654196 2.9052 0.184965 3.18386C0.304511 3.46252 0.478357 3.71458 0.696358 3.92534L8.77254 12L0.697881 20.0747C0.47988 20.2854 0.306034 20.5375 0.186488 20.8161C0.0669426 21.0948 0.00409019 21.3945 0.00159932 21.6977C-0.000891552 22.0009 0.0570285 22.3016 0.17198 22.5821C0.286932 22.8627 0.456613 23.1176 0.671122 23.3319C0.885632 23.5462 1.14067 23.7157 1.42137 23.8304C1.70206 23.945 2.00279 24.0027 2.30599 23.9999C2.6092 23.9971 2.90882 23.934 3.18736 23.8142C3.46591 23.6944 3.71781 23.5203 3.92836 23.3021L12 15.2305Z" fill="url(#paint0_linear_946_4103)"/>
<defs>
<linearGradient id="paint0_linear_946_4103" x1="11.9863" y1="0" x2="11.9863" y2="24" gradientUnits="userSpaceOnUse">
<stop stop-color="#15E768"/>
<stop offset="1" stop-color="#8B15E7"/>
</linearGradient>
</defs>
</svg>
