<svg width="9" height="6" viewBox="0 0 9 6" fill="none" xmlns="http://www.w3.org/2000/svg">
<path id="Vector" d="M4.17502 5.12499L0.550025 1.49999C0.500025 1.44999 0.462691 1.39599 0.438025 1.33799C0.413358 1.27999 0.400691 1.21733 0.400024 1.14999C0.400024 1.01666 0.446024 0.899994 0.538024 0.799994C0.630024 0.699994 0.750691 0.649994 0.900024 0.649994H8.50002C8.65002 0.649994 8.77102 0.699994 8.86302 0.799994C8.95502 0.899994 9.00069 1.01666 9.00002 1.14999C9.00002 1.18333 8.95002 1.29999 8.85002 1.49999L5.22502 5.12499C5.14169 5.20833 5.05836 5.26666 4.97502 5.29999C4.89169 5.33333 4.80002 5.34999 4.70002 5.34999C4.60002 5.34999 4.50836 5.33333 4.42502 5.29999C4.34169 5.26666 4.25836 5.20833 4.17502 5.12499Z" fill="url(#paint0_linear_2004_19)"/>
<defs>
<linearGradient id="paint0_linear_2004_19" x1="4.70003" y1="0.649994" x2="4.70003" y2="5.34999" gradientUnits="userSpaceOnUse">
<stop stop-color="#15E768"/>
<stop offset="1" stop-color="#8B15E7"/>
</linearGradient>
</defs>
</svg>
