<svg width="24" height="24" viewBox="0 0 24 24" fill="none" xmlns="http://www.w3.org/2000/svg">
<g id="material-symbols:lock-sharp" clip-path="url(#clip0_812_2476)">
<path id="Vector" d="M3 24V8H6.42857V5.71429C6.42857 4.13333 6.98591 2.78591 8.10057 1.672C9.21524 0.558096 10.5627 0.000762685 12.1429 7.80107e-07C13.723 -0.000761125 15.0709 0.556572 16.1863 1.672C17.3017 2.78743 17.8587 4.13486 17.8571 5.71429V8H21.2857V24H3ZM12.1429 18.2857C12.7714 18.2857 13.3097 18.0621 13.7577 17.6149C14.2057 17.1676 14.4293 16.6293 14.4286 16C14.4278 15.3707 14.2042 14.8328 13.7577 14.3863C13.3112 13.9398 12.773 13.7158 12.1429 13.7143C11.5128 13.7128 10.9749 13.9368 10.5291 14.3863C10.0834 14.8358 9.85943 15.3737 9.85714 16C9.85486 16.6263 10.0789 17.1646 10.5291 17.6149C10.9794 18.0651 11.5173 18.2888 12.1429 18.2857ZM8.71429 8H15.5714V5.71429C15.5714 4.76191 15.2381 3.95238 14.5714 3.28572C13.9048 2.61905 13.0952 2.28572 12.1429 2.28572C11.1905 2.28572 10.381 2.61905 9.71429 3.28572C9.04762 3.95238 8.71429 4.76191 8.71429 5.71429V8Z" fill="url(#paint0_linear_812_2476)"/>
</g>
<defs>
<linearGradient id="paint0_linear_812_2476" x1="0.194805" y1="-16.0909" x2="28.807" y2="-4.15295" gradientUnits="userSpaceOnUse">
<stop stop-color="#15E768"/>
<stop offset="1" stop-color="#8B15E7"/>
</linearGradient>
<clipPath id="clip0_812_2476">
<rect width="24" height="24" fill="white"/>
</clipPath>
</defs>
</svg>
