<svg width="61" height="104" viewBox="0 0 61 104" fill="none" xmlns="http://www.w3.org/2000/svg">
<g clip-path="url(#clip0_909_4056)">
<g filter="url(#filter0_d_909_4056)">
<path d="M9.01843 4.41179V9.06347H8.08807V4.41179H6.45996V3.48145H10.6465V4.41179H9.01843ZM16.6221 8.13318V9.06347H14.0636L13.1333 8.59832V4.87696L14.0636 4.41179H15.6917L16.6221 4.87696V7.20282H14.0636V8.13318H16.6221ZM15.6917 6.27247V5.34213H14.0636V6.27247H15.6917ZM22.714 8.13318V9.06347H20.1556L19.2252 8.59832V4.87696L20.1556 4.41179H22.714V5.34213H20.1556V8.13318H22.714ZM26.1358 9.06347H25.2054V3.48145H26.1358V4.41179H27.7639L28.6943 4.87696V9.06347H27.7639V5.34213H26.1358V9.06347ZM34.6373 9.06347L32.2277 5.32818V9.06347H31.2974V3.48145H32.144L34.5535 7.21678V3.48145H35.4839V9.06347H34.6373ZM39.0174 4.41179H40.6455L41.5758 4.87696V8.59832L40.6455 9.06347H39.0174L38.087 8.59832V4.87696L39.0174 4.41179ZM40.6455 5.34213H39.0174V8.13318H40.6455V5.34213ZM46.9187 4.41179H47.9002L46.3373 9.06347H45.5093L43.9463 4.41179H44.9278L45.9233 7.37028L46.9187 4.41179ZM51.2012 4.41179H53.7596V9.06347H51.2012L50.2708 8.59832V4.87696L51.2012 4.41179ZM52.8292 5.34213H51.2012V8.13318H52.8292V5.34213Z" fill="black"/>
</g>
<g filter="url(#filter1_d_909_4056)">
<path fill-rule="evenodd" clip-rule="evenodd" d="M44.3363 64.5963L50.0153 57.3541L48.8244 56.7632L43.0422 63.6699L38.0075 71.5765V82.8084L33.3435 87.8261L34.5025 88.9159L39.5941 83.4378V72.0435L44.3363 64.5963Z" fill="url(#paint0_linear_909_4056)"/>
<path fill-rule="evenodd" clip-rule="evenodd" d="M15.9996 64.5963L10.3206 57.3541L11.5114 56.7632L17.2937 63.6699L22.3284 71.5765V82.8084L26.9923 87.8261L25.8333 88.9159L20.7418 83.4378V72.0435L15.9996 64.5963Z" fill="url(#paint1_linear_909_4056)"/>
<path d="M25.4045 86.8652H34.9313L34.1374 88.453H26.1984L25.4045 86.8652Z" fill="url(#paint2_linear_909_4056)"/>
<path d="M20.6411 72.5747H39.6945V74.9564H20.6411V72.5747Z" fill="url(#paint3_linear_909_4056)"/>
<path d="M20.6411 75.7505H39.6945V78.1322H20.6411V75.7505Z" fill="url(#paint4_linear_909_4056)"/>
<path d="M20.6411 78.9263H39.6945V81.3082H20.6411V78.9263Z" fill="url(#paint5_linear_909_4056)"/>
<path d="M21.832 82.1021H38.5038L37.3129 84.4837H23.0229L21.832 82.1021Z" fill="url(#paint6_linear_909_4056)"/>
<path d="M23.7427 84.4834H36.5737L34.9312 86.8651H25.4045L23.7427 84.4834Z" fill="url(#paint7_linear_909_4056)"/>
<path d="M39.6946 73.3687H40.4885V74.1625H39.6946V73.3687Z" fill="url(#paint8_linear_909_4056)"/>
<path d="M39.6946 76.5444H40.4885V77.3383H39.6946V76.5444Z" fill="url(#paint9_linear_909_4056)"/>
<path d="M39.6946 79.7202H40.4885V80.5141H39.6946V79.7202Z" fill="url(#paint10_linear_909_4056)"/>
<path d="M19.8473 79.7202H20.6412V80.5141H19.8473V79.7202Z" fill="url(#paint11_linear_909_4056)"/>
<path d="M19.8473 76.5444H20.6412V77.3383H19.8473V76.5444Z" fill="url(#paint12_linear_909_4056)"/>
<path d="M19.8473 73.3687H20.6412V74.1625H19.8473V73.3687Z" fill="url(#paint13_linear_909_4056)"/>
</g>
<g filter="url(#filter2_d_909_4056)">
<path d="M30.168 65.4301C44.637 65.4301 56.3664 53.7007 56.3664 39.2317C56.3664 24.7627 44.637 13.0332 30.168 13.0332C15.6989 13.0332 3.96948 24.7627 3.96948 39.2317C3.96948 53.7007 15.6989 65.4301 30.168 65.4301Z" stroke="url(#paint14_linear_909_4056)" stroke-width="2"/>
</g>
<g filter="url(#filter3_d_909_4056)">
<path d="M30.168 55.9036C33.2372 55.9036 35.7252 53.4155 35.7252 50.3463C35.7252 47.2771 33.2372 44.7891 30.168 44.7891C27.0988 44.7891 24.6107 47.2771 24.6107 50.3463C24.6107 53.4155 27.0988 55.9036 30.168 55.9036Z" fill="url(#paint15_linear_909_4056)"/>
<path d="M30.168 55.5066C33.018 55.5066 35.3283 53.1963 35.3283 50.3463C35.3283 47.4964 33.018 45.186 30.168 45.186C27.318 45.186 25.0077 47.4964 25.0077 50.3463C25.0077 53.1963 27.318 55.5066 30.168 55.5066Z" stroke="black"/>
</g>
<g filter="url(#filter4_d_909_4056)">
<path d="M30.168 18.806L20.0634 28.9106L30.168 39.0153L40.2726 28.9106L30.168 18.806Z" fill="url(#paint16_linear_909_4056)"/>
<path d="M30.168 19.3674L20.6248 28.9106L30.168 38.4539L39.7112 28.9106L30.168 19.3674Z" stroke="black"/>
</g>
<g filter="url(#filter5_d_909_4056)">
<path d="M7.77739 92.534V93.2922L11.0336 94.9205V96.721L10.1033 97.1862H6.84705V96.2558H10.1033V95.4976L6.84705 93.8694V92.0688L7.77739 91.6036H11.0336V92.534H7.77739ZM14.567 92.534H16.1951L17.1255 92.9992V96.721L16.1951 97.1862H14.567L13.6367 96.721V92.9992L14.567 92.534ZM16.1951 93.4645H14.567V96.2558H16.1951V93.4645ZM19.7286 97.1862V91.6036H20.659V97.1862H19.7286ZM25.8204 92.534H26.7508V96.721L25.8204 97.1862H24.1923L23.262 96.721V92.534H24.1923V96.2558H25.8204V92.534ZM30.982 92.534H31.9124V93.4645H30.982V97.1862H30.0517V93.4645H29.1213V92.534H30.0517V91.6036H30.982V92.534ZM34.2829 92.0688V91.1392H35.2132V92.0688H34.2829ZM34.2829 97.1862V92.534H35.2132V97.1862H34.2829ZM38.7467 92.534H40.3747L41.3051 92.9992V96.721L40.3747 97.1862H38.7467L37.8163 96.721V92.9992L38.7467 92.534ZM40.3747 93.4645H38.7467V96.2558H40.3747V93.4645ZM46.4667 93.4645H44.8386V97.1862H43.9082V92.534H46.4667L47.397 92.9992V97.1862H46.4667V93.4645ZM50.9304 93.4645V93.9297L53.4889 95.2094V96.721L52.5585 97.1862H50.0001V96.2558H52.5585V95.7858L50.0001 94.5069V92.9992L50.9304 92.534H53.4889V93.4645H50.9304Z" fill="black"/>
</g>
</g>
<defs>
<filter id="filter0_d_909_4056" x="2.45996" y="3.48145" width="55.2996" height="13.582" filterUnits="userSpaceOnUse" color-interpolation-filters="sRGB">
<feFlood flood-opacity="0" result="BackgroundImageFix"/>
<feColorMatrix in="SourceAlpha" type="matrix" values="0 0 0 0 0 0 0 0 0 0 0 0 0 0 0 0 0 0 127 0" result="hardAlpha"/>
<feOffset dy="4"/>
<feGaussianBlur stdDeviation="2"/>
<feComposite in2="hardAlpha" operator="out"/>
<feColorMatrix type="matrix" values="0 0 0 0 0 0 0 0 0 0 0 0 0 0 0 0 0 0 0.25 0"/>
<feBlend mode="normal" in2="BackgroundImageFix" result="effect1_dropShadow_909_4056"/>
<feBlend mode="normal" in="SourceGraphic" in2="effect1_dropShadow_909_4056" result="shape"/>
</filter>
<filter id="filter1_d_909_4056" x="6.32056" y="56.7632" width="47.6947" height="40.1528" filterUnits="userSpaceOnUse" color-interpolation-filters="sRGB">
<feFlood flood-opacity="0" result="BackgroundImageFix"/>
<feColorMatrix in="SourceAlpha" type="matrix" values="0 0 0 0 0 0 0 0 0 0 0 0 0 0 0 0 0 0 127 0" result="hardAlpha"/>
<feOffset dy="4"/>
<feGaussianBlur stdDeviation="2"/>
<feComposite in2="hardAlpha" operator="out"/>
<feColorMatrix type="matrix" values="0 0 0 0 0 0 0 0 0 0 0 0 0 0 0 0 0 0 0.25 0"/>
<feBlend mode="normal" in2="BackgroundImageFix" result="effect1_dropShadow_909_4056"/>
<feBlend mode="normal" in="SourceGraphic" in2="effect1_dropShadow_909_4056" result="shape"/>
</filter>
<filter id="filter2_d_909_4056" x="-1.03052" y="12.0332" width="62.397" height="62.397" filterUnits="userSpaceOnUse" color-interpolation-filters="sRGB">
<feFlood flood-opacity="0" result="BackgroundImageFix"/>
<feColorMatrix in="SourceAlpha" type="matrix" values="0 0 0 0 0 0 0 0 0 0 0 0 0 0 0 0 0 0 127 0" result="hardAlpha"/>
<feOffset dy="4"/>
<feGaussianBlur stdDeviation="2"/>
<feComposite in2="hardAlpha" operator="out"/>
<feColorMatrix type="matrix" values="0 0 0 0 0 0 0 0 0 0 0 0 0 0 0 0 0 0 0.25 0"/>
<feBlend mode="normal" in2="BackgroundImageFix" result="effect1_dropShadow_909_4056"/>
<feBlend mode="normal" in="SourceGraphic" in2="effect1_dropShadow_909_4056" result="shape"/>
</filter>
<filter id="filter3_d_909_4056" x="20.5077" y="44.686" width="19.3206" height="19.3208" filterUnits="userSpaceOnUse" color-interpolation-filters="sRGB">
<feFlood flood-opacity="0" result="BackgroundImageFix"/>
<feColorMatrix in="SourceAlpha" type="matrix" values="0 0 0 0 0 0 0 0 0 0 0 0 0 0 0 0 0 0 127 0" result="hardAlpha"/>
<feOffset dy="4"/>
<feGaussianBlur stdDeviation="2"/>
<feComposite in2="hardAlpha" operator="out"/>
<feColorMatrix type="matrix" values="0 0 0 0 0 0 0 0 0 0 0 0 0 0 0 0 0 0 0.25 0"/>
<feBlend mode="normal" in2="BackgroundImageFix" result="effect1_dropShadow_909_4056"/>
<feBlend mode="normal" in="SourceGraphic" in2="effect1_dropShadow_909_4056" result="shape"/>
</filter>
<filter id="filter4_d_909_4056" x="15.9176" y="18.6602" width="28.5007" height="28.501" filterUnits="userSpaceOnUse" color-interpolation-filters="sRGB">
<feFlood flood-opacity="0" result="BackgroundImageFix"/>
<feColorMatrix in="SourceAlpha" type="matrix" values="0 0 0 0 0 0 0 0 0 0 0 0 0 0 0 0 0 0 127 0" result="hardAlpha"/>
<feOffset dy="4"/>
<feGaussianBlur stdDeviation="2"/>
<feComposite in2="hardAlpha" operator="out"/>
<feColorMatrix type="matrix" values="0 0 0 0 0 0 0 0 0 0 0 0 0 0 0 0 0 0 0.25 0"/>
<feBlend mode="normal" in2="BackgroundImageFix" result="effect1_dropShadow_909_4056"/>
<feBlend mode="normal" in="SourceGraphic" in2="effect1_dropShadow_909_4056" result="shape"/>
</filter>
<filter id="filter5_d_909_4056" x="2.84705" y="91.1392" width="54.6418" height="14.0469" filterUnits="userSpaceOnUse" color-interpolation-filters="sRGB">
<feFlood flood-opacity="0" result="BackgroundImageFix"/>
<feColorMatrix in="SourceAlpha" type="matrix" values="0 0 0 0 0 0 0 0 0 0 0 0 0 0 0 0 0 0 127 0" result="hardAlpha"/>
<feOffset dy="4"/>
<feGaussianBlur stdDeviation="2"/>
<feComposite in2="hardAlpha" operator="out"/>
<feColorMatrix type="matrix" values="0 0 0 0 0 0 0 0 0 0 0 0 0 0 0 0 0 0 0.25 0"/>
<feBlend mode="normal" in2="BackgroundImageFix" result="effect1_dropShadow_909_4056"/>
<feBlend mode="normal" in="SourceGraphic" in2="effect1_dropShadow_909_4056" result="shape"/>
</filter>
<linearGradient id="paint0_linear_909_4056" x1="30.3532" y1="56.3662" x2="30.3532" y2="88.9159" gradientUnits="userSpaceOnUse">
<stop stop-color="#15E768"/>
<stop offset="1" stop-color="#8B15E7"/>
</linearGradient>
<linearGradient id="paint1_linear_909_4056" x1="29.9827" y1="56.3662" x2="29.9827" y2="88.9159" gradientUnits="userSpaceOnUse">
<stop stop-color="#15E768"/>
<stop offset="1" stop-color="#8B15E7"/>
</linearGradient>
<linearGradient id="paint2_linear_909_4056" x1="30.1679" y1="56.2055" x2="30.1679" y2="88.5983" gradientUnits="userSpaceOnUse">
<stop stop-color="#15E768"/>
<stop offset="1" stop-color="#8B15E7"/>
</linearGradient>
<linearGradient id="paint3_linear_909_4056" x1="30.1678" y1="56.2053" x2="30.1678" y2="88.5981" gradientUnits="userSpaceOnUse">
<stop stop-color="#15E768"/>
<stop offset="1" stop-color="#8B15E7"/>
</linearGradient>
<linearGradient id="paint4_linear_909_4056" x1="30.1678" y1="56.2055" x2="30.1678" y2="88.5983" gradientUnits="userSpaceOnUse">
<stop stop-color="#15E768"/>
<stop offset="1" stop-color="#8B15E7"/>
</linearGradient>
<linearGradient id="paint5_linear_909_4056" x1="30.1678" y1="56.2057" x2="30.1678" y2="88.5985" gradientUnits="userSpaceOnUse">
<stop stop-color="#15E768"/>
<stop offset="1" stop-color="#8B15E7"/>
</linearGradient>
<linearGradient id="paint6_linear_909_4056" x1="30.1679" y1="56.2057" x2="30.1679" y2="88.5985" gradientUnits="userSpaceOnUse">
<stop stop-color="#15E768"/>
<stop offset="1" stop-color="#8B15E7"/>
</linearGradient>
<linearGradient id="paint7_linear_909_4056" x1="30.1679" y1="56.2053" x2="30.1679" y2="88.5981" gradientUnits="userSpaceOnUse">
<stop stop-color="#15E768"/>
<stop offset="1" stop-color="#8B15E7"/>
</linearGradient>
<linearGradient id="paint8_linear_909_4056" x1="30.1679" y1="56.2053" x2="30.1679" y2="88.5981" gradientUnits="userSpaceOnUse">
<stop stop-color="#15E768"/>
<stop offset="1" stop-color="#8B15E7"/>
</linearGradient>
<linearGradient id="paint9_linear_909_4056" x1="30.1679" y1="56.2055" x2="30.1679" y2="88.5984" gradientUnits="userSpaceOnUse">
<stop stop-color="#15E768"/>
<stop offset="1" stop-color="#8B15E7"/>
</linearGradient>
<linearGradient id="paint10_linear_909_4056" x1="30.1679" y1="56.2055" x2="30.1679" y2="88.5983" gradientUnits="userSpaceOnUse">
<stop stop-color="#15E768"/>
<stop offset="1" stop-color="#8B15E7"/>
</linearGradient>
<linearGradient id="paint11_linear_909_4056" x1="30.1679" y1="56.2055" x2="30.1679" y2="88.5983" gradientUnits="userSpaceOnUse">
<stop stop-color="#15E768"/>
<stop offset="1" stop-color="#8B15E7"/>
</linearGradient>
<linearGradient id="paint12_linear_909_4056" x1="30.1679" y1="56.2055" x2="30.1679" y2="88.5984" gradientUnits="userSpaceOnUse">
<stop stop-color="#15E768"/>
<stop offset="1" stop-color="#8B15E7"/>
</linearGradient>
<linearGradient id="paint13_linear_909_4056" x1="30.1679" y1="56.2053" x2="30.1679" y2="88.5981" gradientUnits="userSpaceOnUse">
<stop stop-color="#15E768"/>
<stop offset="1" stop-color="#8B15E7"/>
</linearGradient>
<linearGradient id="paint14_linear_909_4056" x1="30.168" y1="12.2393" x2="30.168" y2="66.224" gradientUnits="userSpaceOnUse">
<stop stop-color="#15E768"/>
<stop offset="1" stop-color="#8B15E7"/>
</linearGradient>
<linearGradient id="paint15_linear_909_4056" x1="30.168" y1="44.7891" x2="30.168" y2="55.9036" gradientUnits="userSpaceOnUse">
<stop stop-color="#15E768"/>
<stop offset="1" stop-color="#8B15E7"/>
</linearGradient>
<linearGradient id="paint16_linear_909_4056" x1="25.1157" y1="23.8583" x2="35.2203" y2="33.963" gradientUnits="userSpaceOnUse">
<stop stop-color="#15E768"/>
<stop offset="1" stop-color="#8B15E7"/>
</linearGradient>
<clipPath id="clip0_909_4056">
<rect width="60.3359" height="104" fill="white"/>
</clipPath>
</defs>
</svg>
