<svg width="119" height="68" viewBox="0 0 119 68" fill="none" xmlns="http://www.w3.org/2000/svg">
<g filter="url(#filter0_d_34_265)">
<path fill-rule="evenodd" clip-rule="evenodd" d="M36.4042 40.9698L40.875 35.3028L39.9375 34.8403L35.3854 40.2449L31.4218 46.4318V55.2208L27.75 59.1473L28.6624 60L32.6708 55.7134V46.7973L36.4042 40.9698Z" fill="url(#paint0_linear_34_265)"/>
<path fill-rule="evenodd" clip-rule="evenodd" d="M14.0958 40.9698L9.625 35.3028L10.5625 34.8403L15.1146 40.2449L19.0783 46.4318V55.2208L22.75 59.1473L21.8376 60L17.8292 55.7134V46.7973L14.0958 40.9698Z" fill="url(#paint1_linear_34_265)"/>
<path d="M21.5 58.3953H29L28.375 59.6377H22.125L21.5 58.3953Z" fill="url(#paint2_linear_34_265)"/>
<path d="M17.75 47.2131H32.75V49.0768H17.75V47.2131Z" fill="url(#paint3_linear_34_265)"/>
<path d="M17.75 49.698H32.75V51.5617H17.75V49.698Z" fill="url(#paint4_linear_34_265)"/>
<path d="M17.75 52.1829H32.75V54.0467H17.75V52.1829Z" fill="url(#paint5_linear_34_265)"/>
<path d="M18.6875 54.668H31.8125L30.875 56.5316H19.625L18.6875 54.668Z" fill="url(#paint6_linear_34_265)"/>
<path d="M20.1917 56.5316H30.293L29 58.3953H21.5L20.1917 56.5316Z" fill="url(#paint7_linear_34_265)"/>
<path d="M32.75 47.8344H33.375V48.4556H32.75V47.8344Z" fill="url(#paint8_linear_34_265)"/>
<path d="M32.75 50.3192H33.375V50.9404H32.75V50.3192Z" fill="url(#paint9_linear_34_265)"/>
<path d="M32.75 52.8043H33.375V53.4255H32.75V52.8043Z" fill="url(#paint10_linear_34_265)"/>
<path d="M17.125 52.8043H17.75V53.4255H17.125V52.8043Z" fill="url(#paint11_linear_34_265)"/>
<path d="M17.125 50.3192H17.75V50.9404H17.125V50.3192Z" fill="url(#paint12_linear_34_265)"/>
<path d="M17.125 47.8344H17.75V48.4556H17.125V47.8344Z" fill="url(#paint13_linear_34_265)"/>
</g>
<g filter="url(#filter1_d_34_265)">
<path fill-rule="evenodd" clip-rule="evenodd" d="M25.25 1.24245C14.2043 1.24245 5.25 10.1427 5.25 21.1217C5.25 32.1006 14.2043 41.0009 25.25 41.0009C36.2957 41.0009 45.25 32.1006 45.25 21.1217C45.25 10.1427 36.2957 1.24245 25.25 1.24245ZM4 21.1217C4 9.45649 13.5139 0 25.25 0C36.9861 0 46.5 9.45649 46.5 21.1217C46.5 32.7868 36.9861 42.2433 25.25 42.2433C13.5139 42.2433 4 32.7868 4 21.1217Z" fill="url(#paint14_linear_34_265)"/>
</g>
<g filter="url(#filter2_d_34_265)">
<path d="M25.25 34.1674C27.6662 34.1674 29.625 32.2204 29.625 29.8188C29.625 27.4171 27.6662 25.4702 25.25 25.4702C22.8338 25.4702 20.875 27.4171 20.875 29.8188C20.875 32.2204 22.8338 34.1674 25.25 34.1674Z" fill="url(#paint15_linear_34_265)"/>
<path fill-rule="evenodd" clip-rule="evenodd" d="M25.25 26.0914C23.1789 26.0914 21.5 27.7602 21.5 29.8188C21.5 31.8774 23.1789 33.5461 25.25 33.5461C27.3211 33.5461 29 31.8774 29 29.8188C29 27.7602 27.3211 26.0914 25.25 26.0914ZM20.875 29.8188C20.875 27.4171 22.8338 25.4702 25.25 25.4702C27.6662 25.4702 29.625 27.4171 29.625 29.8188C29.625 32.2204 27.6662 34.1674 25.25 34.1674C22.8338 34.1674 20.875 32.2204 20.875 29.8188Z" fill="black"/>
</g>
<g filter="url(#filter3_d_34_265)">
<path d="M25.25 5.13887L17.295 13.0458L25.25 20.9527L33.2049 13.0458L25.25 5.13887Z" fill="url(#paint16_linear_34_265)"/>
<path fill-rule="evenodd" clip-rule="evenodd" d="M17.295 13.0458L25.25 5.13887L33.2049 13.0458L25.25 20.9527L17.295 13.0458ZM18.1789 13.0458L25.25 20.0741L32.3211 13.0458L25.25 6.01742L18.1789 13.0458Z" fill="black"/>
</g>
<g filter="url(#filter4_d_34_265)">
<path d="M57.7227 19.8478V25.7071H56.5508V19.8478H54.5V18.6759H59.7734V19.8478H57.7227ZM67.3004 24.5353V25.7071H64.0777L62.9059 25.1212V20.4337L64.0777 19.8478H66.1285L67.3004 20.4337V23.3634H64.0777V24.5353H67.3004ZM66.1285 22.1915V21.0197H64.0777V22.1915H66.1285ZM74.9738 24.5353V25.7071H71.7512L70.5793 25.1212V20.4337L71.7512 19.8478H74.9738V21.0197H71.7512V24.5353H74.9738ZM79.284 25.7071H78.1121V18.6759H79.284V19.8478H81.3348L82.5067 20.4337V25.7071H81.3348V21.0197H79.284V25.7071ZM89.9926 25.7071L86.9574 21.0021V25.7071H85.7856V18.6759H86.852L89.8871 23.381V18.6759H91.059V25.7071H89.9926ZM95.5098 19.8478H97.5606L98.7324 20.4337V25.1212L97.5606 25.7071H95.5098L94.3379 25.1212V20.4337L95.5098 19.8478ZM97.5606 21.0197H95.5098V24.5353H97.5606V21.0197ZM105.462 19.8478H106.699L104.73 25.7071H103.687L101.718 19.8478H102.955L104.209 23.5743L105.462 19.8478ZM110.857 19.8478H114.079V25.7071H110.857L109.685 25.1212V20.4337L110.857 19.8478ZM112.907 21.0197H110.857V24.5353H112.907V21.0197Z" fill="#F6F6F6"/>
</g>
<g filter="url(#filter5_d_34_265)">
<path d="M55.6719 35.4641V36.4192L59.7734 38.4702V40.7382L58.6016 41.3242H54.5V40.1522H58.6016V39.1972L54.5 37.1461V34.8782L55.6719 34.2922H59.7734V35.4641H55.6719ZM64.2242 35.4641H66.275L67.4469 36.0501V40.7382L66.275 41.3242H64.2242L63.0524 40.7382V36.0501L64.2242 35.4641ZM66.275 36.6361H64.2242V40.1522H66.275V36.6361ZM70.7258 41.3242V34.2922H71.8977V41.3242H70.7258ZM78.3992 35.4641H79.5711V40.7382L78.3992 41.3242H76.3484L75.1766 40.7382V35.4641H76.3484V40.1522H78.3992V35.4641ZM84.9008 35.4641H86.0727V36.6361H84.9008V41.3242H83.7289V36.6361H82.557V35.4641H83.7289V34.2922H84.9008V35.4641ZM89.0586 34.8782V33.7072H90.2305V34.8782H89.0586ZM89.0586 41.3242V35.4641H90.2305V41.3242H89.0586ZM94.6813 35.4641H96.732L97.9039 36.0501V40.7382L96.732 41.3242H94.6813L93.5094 40.7382V36.0501L94.6813 35.4641ZM96.732 36.6361H94.6813V40.1522H96.732V36.6361ZM104.405 36.6361H102.355V41.3242H101.183V35.4641H104.405L105.577 36.0501V41.3242H104.405V36.6361ZM110.028 36.6361V37.2222L113.251 38.8342V40.7382L112.079 41.3242H108.856V40.1522H112.079V39.5602L108.856 37.9492V36.0501L110.028 35.4641H113.251V36.6361H110.028Z" fill="#F6F6F6"/>
</g>
<defs>
<filter id="filter0_d_34_265" x="5.625" y="34.8403" width="39.25" height="33.1597" filterUnits="userSpaceOnUse" color-interpolation-filters="sRGB">
<feFlood flood-opacity="0" result="BackgroundImageFix"/>
<feColorMatrix in="SourceAlpha" type="matrix" values="0 0 0 0 0 0 0 0 0 0 0 0 0 0 0 0 0 0 127 0" result="hardAlpha"/>
<feOffset dy="4"/>
<feGaussianBlur stdDeviation="2"/>
<feComposite in2="hardAlpha" operator="out"/>
<feColorMatrix type="matrix" values="0 0 0 0 0 0 0 0 0 0 0 0 0 0 0 0 0 0 0.25 0"/>
<feBlend mode="normal" in2="BackgroundImageFix" result="effect1_dropShadow_34_265"/>
<feBlend mode="normal" in="SourceGraphic" in2="effect1_dropShadow_34_265" result="shape"/>
</filter>
<filter id="filter1_d_34_265" x="0" y="0" width="50.5" height="50.2433" filterUnits="userSpaceOnUse" color-interpolation-filters="sRGB">
<feFlood flood-opacity="0" result="BackgroundImageFix"/>
<feColorMatrix in="SourceAlpha" type="matrix" values="0 0 0 0 0 0 0 0 0 0 0 0 0 0 0 0 0 0 127 0" result="hardAlpha"/>
<feOffset dy="4"/>
<feGaussianBlur stdDeviation="2"/>
<feComposite in2="hardAlpha" operator="out"/>
<feColorMatrix type="matrix" values="0 0 0 0 0 0 0 0 0 0 0 0 0 0 0 0 0 0 0.25 0"/>
<feBlend mode="normal" in2="BackgroundImageFix" result="effect1_dropShadow_34_265"/>
<feBlend mode="normal" in="SourceGraphic" in2="effect1_dropShadow_34_265" result="shape"/>
</filter>
<filter id="filter2_d_34_265" x="16.875" y="25.4702" width="16.75" height="16.6971" filterUnits="userSpaceOnUse" color-interpolation-filters="sRGB">
<feFlood flood-opacity="0" result="BackgroundImageFix"/>
<feColorMatrix in="SourceAlpha" type="matrix" values="0 0 0 0 0 0 0 0 0 0 0 0 0 0 0 0 0 0 127 0" result="hardAlpha"/>
<feOffset dy="4"/>
<feGaussianBlur stdDeviation="2"/>
<feComposite in2="hardAlpha" operator="out"/>
<feColorMatrix type="matrix" values="0 0 0 0 0 0 0 0 0 0 0 0 0 0 0 0 0 0 0.25 0"/>
<feBlend mode="normal" in2="BackgroundImageFix" result="effect1_dropShadow_34_265"/>
<feBlend mode="normal" in="SourceGraphic" in2="effect1_dropShadow_34_265" result="shape"/>
</filter>
<filter id="filter3_d_34_265" x="13.295" y="5.13892" width="23.9099" height="23.8137" filterUnits="userSpaceOnUse" color-interpolation-filters="sRGB">
<feFlood flood-opacity="0" result="BackgroundImageFix"/>
<feColorMatrix in="SourceAlpha" type="matrix" values="0 0 0 0 0 0 0 0 0 0 0 0 0 0 0 0 0 0 127 0" result="hardAlpha"/>
<feOffset dy="4"/>
<feGaussianBlur stdDeviation="2"/>
<feComposite in2="hardAlpha" operator="out"/>
<feColorMatrix type="matrix" values="0 0 0 0 0 0 0 0 0 0 0 0 0 0 0 0 0 0 0.25 0"/>
<feBlend mode="normal" in2="BackgroundImageFix" result="effect1_dropShadow_34_265"/>
<feBlend mode="normal" in="SourceGraphic" in2="effect1_dropShadow_34_265" result="shape"/>
</filter>
<filter id="filter4_d_34_265" x="50.5" y="18.6759" width="67.5793" height="15.0312" filterUnits="userSpaceOnUse" color-interpolation-filters="sRGB">
<feFlood flood-opacity="0" result="BackgroundImageFix"/>
<feColorMatrix in="SourceAlpha" type="matrix" values="0 0 0 0 0 0 0 0 0 0 0 0 0 0 0 0 0 0 127 0" result="hardAlpha"/>
<feOffset dy="4"/>
<feGaussianBlur stdDeviation="2"/>
<feComposite in2="hardAlpha" operator="out"/>
<feColorMatrix type="matrix" values="0 0 0 0 0 0 0 0 0 0 0 0 0 0 0 0 0 0 0.25 0"/>
<feBlend mode="normal" in2="BackgroundImageFix" result="effect1_dropShadow_34_265"/>
<feBlend mode="normal" in="SourceGraphic" in2="effect1_dropShadow_34_265" result="shape"/>
</filter>
<filter id="filter5_d_34_265" x="50.5" y="33.7072" width="66.7508" height="15.6169" filterUnits="userSpaceOnUse" color-interpolation-filters="sRGB">
<feFlood flood-opacity="0" result="BackgroundImageFix"/>
<feColorMatrix in="SourceAlpha" type="matrix" values="0 0 0 0 0 0 0 0 0 0 0 0 0 0 0 0 0 0 127 0" result="hardAlpha"/>
<feOffset dy="4"/>
<feGaussianBlur stdDeviation="2"/>
<feComposite in2="hardAlpha" operator="out"/>
<feColorMatrix type="matrix" values="0 0 0 0 0 0 0 0 0 0 0 0 0 0 0 0 0 0 0.25 0"/>
<feBlend mode="normal" in2="BackgroundImageFix" result="effect1_dropShadow_34_265"/>
<feBlend mode="normal" in="SourceGraphic" in2="effect1_dropShadow_34_265" result="shape"/>
</filter>
<linearGradient id="paint0_linear_34_265" x1="25.3958" y1="34.5297" x2="25.3958" y2="60" gradientUnits="userSpaceOnUse">
<stop stop-color="#15E768"/>
<stop offset="1" stop-color="#8B15E7"/>
</linearGradient>
<linearGradient id="paint1_linear_34_265" x1="25.1042" y1="34.5297" x2="25.1042" y2="60" gradientUnits="userSpaceOnUse">
<stop stop-color="#15E768"/>
<stop offset="1" stop-color="#8B15E7"/>
</linearGradient>
<linearGradient id="paint2_linear_34_265" x1="25.25" y1="34.4039" x2="25.25" y2="59.7514" gradientUnits="userSpaceOnUse">
<stop stop-color="#15E768"/>
<stop offset="1" stop-color="#8B15E7"/>
</linearGradient>
<linearGradient id="paint3_linear_34_265" x1="25.25" y1="34.404" x2="25.25" y2="59.7515" gradientUnits="userSpaceOnUse">
<stop stop-color="#15E768"/>
<stop offset="1" stop-color="#8B15E7"/>
</linearGradient>
<linearGradient id="paint4_linear_34_265" x1="25.25" y1="34.4039" x2="25.25" y2="59.7515" gradientUnits="userSpaceOnUse">
<stop stop-color="#15E768"/>
<stop offset="1" stop-color="#8B15E7"/>
</linearGradient>
<linearGradient id="paint5_linear_34_265" x1="25.25" y1="34.4039" x2="25.25" y2="59.7514" gradientUnits="userSpaceOnUse">
<stop stop-color="#15E768"/>
<stop offset="1" stop-color="#8B15E7"/>
</linearGradient>
<linearGradient id="paint6_linear_34_265" x1="25.25" y1="34.4039" x2="25.25" y2="59.7515" gradientUnits="userSpaceOnUse">
<stop stop-color="#15E768"/>
<stop offset="1" stop-color="#8B15E7"/>
</linearGradient>
<linearGradient id="paint7_linear_34_265" x1="25.25" y1="34.4039" x2="25.25" y2="59.7514" gradientUnits="userSpaceOnUse">
<stop stop-color="#15E768"/>
<stop offset="1" stop-color="#8B15E7"/>
</linearGradient>
<linearGradient id="paint8_linear_34_265" x1="25.25" y1="34.404" x2="25.25" y2="59.7515" gradientUnits="userSpaceOnUse">
<stop stop-color="#15E768"/>
<stop offset="1" stop-color="#8B15E7"/>
</linearGradient>
<linearGradient id="paint9_linear_34_265" x1="25.25" y1="34.4039" x2="25.25" y2="59.7515" gradientUnits="userSpaceOnUse">
<stop stop-color="#15E768"/>
<stop offset="1" stop-color="#8B15E7"/>
</linearGradient>
<linearGradient id="paint10_linear_34_265" x1="25.25" y1="34.4039" x2="25.25" y2="59.7515" gradientUnits="userSpaceOnUse">
<stop stop-color="#15E768"/>
<stop offset="1" stop-color="#8B15E7"/>
</linearGradient>
<linearGradient id="paint11_linear_34_265" x1="25.25" y1="34.4039" x2="25.25" y2="59.7515" gradientUnits="userSpaceOnUse">
<stop stop-color="#15E768"/>
<stop offset="1" stop-color="#8B15E7"/>
</linearGradient>
<linearGradient id="paint12_linear_34_265" x1="25.25" y1="34.4039" x2="25.25" y2="59.7515" gradientUnits="userSpaceOnUse">
<stop stop-color="#15E768"/>
<stop offset="1" stop-color="#8B15E7"/>
</linearGradient>
<linearGradient id="paint13_linear_34_265" x1="25.25" y1="34.404" x2="25.25" y2="59.7515" gradientUnits="userSpaceOnUse">
<stop stop-color="#15E768"/>
<stop offset="1" stop-color="#8B15E7"/>
</linearGradient>
<linearGradient id="paint14_linear_34_265" x1="25.25" y1="-2.02672e-08" x2="25.25" y2="42.2433" gradientUnits="userSpaceOnUse">
<stop stop-color="#15E768"/>
<stop offset="1" stop-color="#8B15E7"/>
</linearGradient>
<linearGradient id="paint15_linear_34_265" x1="25.25" y1="25.4702" x2="25.25" y2="34.1674" gradientUnits="userSpaceOnUse">
<stop stop-color="#15E768"/>
<stop offset="1" stop-color="#8B15E7"/>
</linearGradient>
<linearGradient id="paint16_linear_34_265" x1="21.2725" y1="9.09232" x2="29.1793" y2="17.0471" gradientUnits="userSpaceOnUse">
<stop stop-color="#15E768"/>
<stop offset="1" stop-color="#8B15E7"/>
</linearGradient>
</defs>
</svg>
