<svg width="51" height="66" viewBox="0 0 51 66" fill="none" xmlns="http://www.w3.org/2000/svg">
<g id="Group 1">
<g id="Group" filter="url(#filter0_d_123_240)">
<path id="Vector" fill-rule="evenodd" clip-rule="evenodd" d="M36.4042 40.9703L40.875 35.3033L39.9375 34.8408L35.3854 40.2454L31.4218 46.4323V55.2213L27.75 59.1477L28.6624 60.0004L32.6708 55.7138V46.7977L36.4042 40.9703Z" fill="url(#paint0_linear_123_240)"/>
<path id="Vector_2" fill-rule="evenodd" clip-rule="evenodd" d="M14.0958 40.9703L9.625 35.3033L10.5625 34.8408L15.1146 40.2454L19.0783 46.4323V55.2213L22.75 59.1477L21.8376 60.0004L17.8292 55.7138V46.7977L14.0958 40.9703Z" fill="url(#paint1_linear_123_240)"/>
<path id="Vector_3" d="M21.5 58.3955H29L28.375 59.638H22.125L21.5 58.3955Z" fill="url(#paint2_linear_123_240)"/>
<path id="Vector_4" d="M17.75 47.2139H32.75V49.0775H17.75V47.2139Z" fill="url(#paint3_linear_123_240)"/>
<path id="Vector_5" d="M17.75 49.6982H32.75V51.5619H17.75V49.6982Z" fill="url(#paint4_linear_123_240)"/>
<path id="Vector_6" d="M17.75 52.1836H32.75V54.0475H17.75V52.1836Z" fill="url(#paint5_linear_123_240)"/>
<path id="Vector_7" d="M18.6875 54.668H31.8125L30.875 56.5316H19.625L18.6875 54.668Z" fill="url(#paint6_linear_123_240)"/>
<path id="Vector_8" d="M20.1917 56.5322H30.293L29 58.3959H21.5L20.1917 56.5322Z" fill="url(#paint7_linear_123_240)"/>
<path id="Vector_9" d="M32.75 47.835H33.375V48.4562H32.75V47.835Z" fill="url(#paint8_linear_123_240)"/>
<path id="Vector_10" d="M32.75 50.3193H33.375V50.9406H32.75V50.3193Z" fill="url(#paint9_linear_123_240)"/>
<path id="Vector_11" d="M32.75 52.8047H33.375V53.4259H32.75V52.8047Z" fill="url(#paint10_linear_123_240)"/>
<path id="Vector_12" d="M17.125 52.8047H17.75V53.4259H17.125V52.8047Z" fill="url(#paint11_linear_123_240)"/>
<path id="Vector_13" d="M17.125 50.3193H17.75V50.9406H17.125V50.3193Z" fill="url(#paint12_linear_123_240)"/>
<path id="Vector_14" d="M17.125 47.835H17.75V48.4562H17.125V47.835Z" fill="url(#paint13_linear_123_240)"/>
</g>
<g id="Group_2" filter="url(#filter1_d_123_240)">
<path id="Vector (Stroke)" fill-rule="evenodd" clip-rule="evenodd" d="M25.25 1.24245C14.2043 1.24245 5.25 10.1427 5.25 21.1217C5.25 32.1006 14.2043 41.0009 25.25 41.0009C36.2957 41.0009 45.25 32.1006 45.25 21.1217C45.25 10.1427 36.2957 1.24245 25.25 1.24245ZM4 21.1217C4 9.45649 13.5139 0 25.25 0C36.9861 0 46.5 9.45649 46.5 21.1217C46.5 32.7868 36.9861 42.2433 25.25 42.2433C13.5139 42.2433 4 32.7868 4 21.1217Z" fill="url(#paint14_linear_123_240)"/>
</g>
<g id="Group_3" filter="url(#filter2_d_123_240)">
<path id="Vector_15" d="M25.25 34.1679C27.6662 34.1679 29.625 32.2209 29.625 29.8193C29.625 27.4176 27.6662 25.4707 25.25 25.4707C22.8338 25.4707 20.875 27.4176 20.875 29.8193C20.875 32.2209 22.8338 34.1679 25.25 34.1679Z" fill="url(#paint15_linear_123_240)"/>
<path id="Vector (Stroke)_2" fill-rule="evenodd" clip-rule="evenodd" d="M25.25 26.0919C23.1789 26.0919 21.5 27.7607 21.5 29.8193C21.5 31.8778 23.1789 33.5466 25.25 33.5466C27.3211 33.5466 29 31.8778 29 29.8193C29 27.7607 27.3211 26.0919 25.25 26.0919ZM20.875 29.8193C20.875 27.4176 22.8338 25.4707 25.25 25.4707C27.6662 25.4707 29.625 27.4176 29.625 29.8193C29.625 32.2209 27.6662 34.1679 25.25 34.1679C22.8338 34.1679 20.875 32.2209 20.875 29.8193Z" fill="black"/>
</g>
<g id="Group_4" filter="url(#filter3_d_123_240)">
<path id="Vector_16" d="M25.25 5.13899L17.295 13.0459L25.25 20.9528L33.2049 13.0459L25.25 5.13899Z" fill="url(#paint16_linear_123_240)"/>
<path id="Vector (Stroke)_3" fill-rule="evenodd" clip-rule="evenodd" d="M17.295 13.0459L25.25 5.13899L33.2049 13.0459L25.25 20.9528L17.295 13.0459ZM18.1789 13.0459L25.25 20.0743L32.3211 13.0459L25.25 6.01754L18.1789 13.0459Z" fill="black"/>
</g>
</g>
<defs>
<filter id="filter0_d_123_240" x="5.625" y="34.8408" width="39.25" height="33.1592" filterUnits="userSpaceOnUse" color-interpolation-filters="sRGB">
<feFlood flood-opacity="0" result="BackgroundImageFix"/>
<feColorMatrix in="SourceAlpha" type="matrix" values="0 0 0 0 0 0 0 0 0 0 0 0 0 0 0 0 0 0 127 0" result="hardAlpha"/>
<feOffset dy="4"/>
<feGaussianBlur stdDeviation="2"/>
<feComposite in2="hardAlpha" operator="out"/>
<feColorMatrix type="matrix" values="0 0 0 0 0 0 0 0 0 0 0 0 0 0 0 0 0 0 0.25 0"/>
<feBlend mode="normal" in2="BackgroundImageFix" result="effect1_dropShadow_123_240"/>
<feBlend mode="normal" in="SourceGraphic" in2="effect1_dropShadow_123_240" result="shape"/>
</filter>
<filter id="filter1_d_123_240" x="0" y="0" width="50.5" height="50.2432" filterUnits="userSpaceOnUse" color-interpolation-filters="sRGB">
<feFlood flood-opacity="0" result="BackgroundImageFix"/>
<feColorMatrix in="SourceAlpha" type="matrix" values="0 0 0 0 0 0 0 0 0 0 0 0 0 0 0 0 0 0 127 0" result="hardAlpha"/>
<feOffset dy="4"/>
<feGaussianBlur stdDeviation="2"/>
<feComposite in2="hardAlpha" operator="out"/>
<feColorMatrix type="matrix" values="0 0 0 0 0 0 0 0 0 0 0 0 0 0 0 0 0 0 0.25 0"/>
<feBlend mode="normal" in2="BackgroundImageFix" result="effect1_dropShadow_123_240"/>
<feBlend mode="normal" in="SourceGraphic" in2="effect1_dropShadow_123_240" result="shape"/>
</filter>
<filter id="filter2_d_123_240" x="16.875" y="25.4707" width="16.75" height="16.6973" filterUnits="userSpaceOnUse" color-interpolation-filters="sRGB">
<feFlood flood-opacity="0" result="BackgroundImageFix"/>
<feColorMatrix in="SourceAlpha" type="matrix" values="0 0 0 0 0 0 0 0 0 0 0 0 0 0 0 0 0 0 127 0" result="hardAlpha"/>
<feOffset dy="4"/>
<feGaussianBlur stdDeviation="2"/>
<feComposite in2="hardAlpha" operator="out"/>
<feColorMatrix type="matrix" values="0 0 0 0 0 0 0 0 0 0 0 0 0 0 0 0 0 0 0.25 0"/>
<feBlend mode="normal" in2="BackgroundImageFix" result="effect1_dropShadow_123_240"/>
<feBlend mode="normal" in="SourceGraphic" in2="effect1_dropShadow_123_240" result="shape"/>
</filter>
<filter id="filter3_d_123_240" x="13.295" y="5.13867" width="23.9099" height="23.8145" filterUnits="userSpaceOnUse" color-interpolation-filters="sRGB">
<feFlood flood-opacity="0" result="BackgroundImageFix"/>
<feColorMatrix in="SourceAlpha" type="matrix" values="0 0 0 0 0 0 0 0 0 0 0 0 0 0 0 0 0 0 127 0" result="hardAlpha"/>
<feOffset dy="4"/>
<feGaussianBlur stdDeviation="2"/>
<feComposite in2="hardAlpha" operator="out"/>
<feColorMatrix type="matrix" values="0 0 0 0 0 0 0 0 0 0 0 0 0 0 0 0 0 0 0.25 0"/>
<feBlend mode="normal" in2="BackgroundImageFix" result="effect1_dropShadow_123_240"/>
<feBlend mode="normal" in="SourceGraphic" in2="effect1_dropShadow_123_240" result="shape"/>
</filter>
<linearGradient id="paint0_linear_123_240" x1="25.3958" y1="34.5302" x2="25.3958" y2="60.0004" gradientUnits="userSpaceOnUse">
<stop stop-color="#15E768"/>
<stop offset="1" stop-color="#8B15E7"/>
</linearGradient>
<linearGradient id="paint1_linear_123_240" x1="25.1042" y1="34.5302" x2="25.1042" y2="60.0004" gradientUnits="userSpaceOnUse">
<stop stop-color="#15E768"/>
<stop offset="1" stop-color="#8B15E7"/>
</linearGradient>
<linearGradient id="paint2_linear_123_240" x1="25.25" y1="34.4041" x2="25.25" y2="59.7516" gradientUnits="userSpaceOnUse">
<stop stop-color="#15E768"/>
<stop offset="1" stop-color="#8B15E7"/>
</linearGradient>
<linearGradient id="paint3_linear_123_240" x1="25.25" y1="34.4047" x2="25.25" y2="59.7522" gradientUnits="userSpaceOnUse">
<stop stop-color="#15E768"/>
<stop offset="1" stop-color="#8B15E7"/>
</linearGradient>
<linearGradient id="paint4_linear_123_240" x1="25.25" y1="34.4042" x2="25.25" y2="59.7517" gradientUnits="userSpaceOnUse">
<stop stop-color="#15E768"/>
<stop offset="1" stop-color="#8B15E7"/>
</linearGradient>
<linearGradient id="paint5_linear_123_240" x1="25.25" y1="34.4046" x2="25.25" y2="59.7522" gradientUnits="userSpaceOnUse">
<stop stop-color="#15E768"/>
<stop offset="1" stop-color="#8B15E7"/>
</linearGradient>
<linearGradient id="paint6_linear_123_240" x1="25.25" y1="34.4039" x2="25.25" y2="59.7515" gradientUnits="userSpaceOnUse">
<stop stop-color="#15E768"/>
<stop offset="1" stop-color="#8B15E7"/>
</linearGradient>
<linearGradient id="paint7_linear_123_240" x1="25.25" y1="34.4045" x2="25.25" y2="59.752" gradientUnits="userSpaceOnUse">
<stop stop-color="#15E768"/>
<stop offset="1" stop-color="#8B15E7"/>
</linearGradient>
<linearGradient id="paint8_linear_123_240" x1="25.25" y1="34.4046" x2="25.25" y2="59.7521" gradientUnits="userSpaceOnUse">
<stop stop-color="#15E768"/>
<stop offset="1" stop-color="#8B15E7"/>
</linearGradient>
<linearGradient id="paint9_linear_123_240" x1="25.25" y1="34.404" x2="25.25" y2="59.7516" gradientUnits="userSpaceOnUse">
<stop stop-color="#15E768"/>
<stop offset="1" stop-color="#8B15E7"/>
</linearGradient>
<linearGradient id="paint10_linear_123_240" x1="25.25" y1="34.4043" x2="25.25" y2="59.7518" gradientUnits="userSpaceOnUse">
<stop stop-color="#15E768"/>
<stop offset="1" stop-color="#8B15E7"/>
</linearGradient>
<linearGradient id="paint11_linear_123_240" x1="25.25" y1="34.4043" x2="25.25" y2="59.7518" gradientUnits="userSpaceOnUse">
<stop stop-color="#15E768"/>
<stop offset="1" stop-color="#8B15E7"/>
</linearGradient>
<linearGradient id="paint12_linear_123_240" x1="25.25" y1="34.404" x2="25.25" y2="59.7516" gradientUnits="userSpaceOnUse">
<stop stop-color="#15E768"/>
<stop offset="1" stop-color="#8B15E7"/>
</linearGradient>
<linearGradient id="paint13_linear_123_240" x1="25.25" y1="34.4046" x2="25.25" y2="59.7521" gradientUnits="userSpaceOnUse">
<stop stop-color="#15E768"/>
<stop offset="1" stop-color="#8B15E7"/>
</linearGradient>
<linearGradient id="paint14_linear_123_240" x1="25.25" y1="-2.02672e-08" x2="25.25" y2="42.2433" gradientUnits="userSpaceOnUse">
<stop stop-color="#15E768"/>
<stop offset="1" stop-color="#8B15E7"/>
</linearGradient>
<linearGradient id="paint15_linear_123_240" x1="25.25" y1="25.4707" x2="25.25" y2="34.1679" gradientUnits="userSpaceOnUse">
<stop stop-color="#15E768"/>
<stop offset="1" stop-color="#8B15E7"/>
</linearGradient>
<linearGradient id="paint16_linear_123_240" x1="21.2725" y1="9.09245" x2="29.1793" y2="17.0473" gradientUnits="userSpaceOnUse">
<stop stop-color="#15E768"/>
<stop offset="1" stop-color="#8B15E7"/>
</linearGradient>
</defs>
</svg>
