<svg width="37" height="24" viewBox="0 0 37 24" fill="none" xmlns="http://www.w3.org/2000/svg">
<path d="M2.40003 24C1.83336 24 1.3587 23.808 0.976031 23.424C0.593365 23.04 0.401365 22.5653 0.400031 22C0.398698 21.4346 0.590698 20.96 0.976031 20.576C1.36136 20.192 1.83603 20 2.40003 20H34.4C34.9667 20 35.442 20.192 35.826 20.576C36.21 20.96 36.4013 21.4346 36.4 22C36.3987 22.5653 36.2067 23.0406 35.824 23.426C35.4413 23.8113 34.9667 24.0026 34.4 24H2.40003ZM2.40003 14C1.83336 14 1.3587 13.808 0.976031 13.424C0.593365 13.04 0.401365 12.5653 0.400031 12C0.398698 11.4347 0.590698 10.96 0.976031 10.576C1.36136 10.192 1.83603 9.99999 2.40003 9.99999H34.4C34.9667 9.99999 35.442 10.192 35.826 10.576C36.21 10.96 36.4013 11.4347 36.4 12C36.3987 12.5653 36.2067 13.0407 35.824 13.426C35.4413 13.8113 34.9667 14.0027 34.4 14H2.40003ZM2.40003 4C1.83336 4 1.3587 3.808 0.976031 3.424C0.593365 3.04 0.401365 2.56533 0.400031 2C0.398698 1.43467 0.590698 0.959999 0.976031 0.576C1.36136 0.192 1.83603 0 2.40003 0H34.4C34.9667 0 35.442 0.192 35.826 0.576C36.21 0.959999 36.4013 1.43467 36.4 2C36.3987 2.56533 36.2067 3.04066 35.824 3.426C35.4413 3.81133 34.9667 4.00266 34.4 4H2.40003Z" fill="url(#paint0_linear_790_3634)"/>
<defs>
<linearGradient id="paint0_linear_790_3634" x1="-1.03179" y1="-6.54545" x2="49.9616" y2="33.6915" gradientUnits="userSpaceOnUse">
<stop stop-color="#15E768"/>
<stop offset="1" stop-color="#8B15E7"/>
</linearGradient>
</defs>
</svg>
