<svg width="24" height="24" viewBox="0 0 24 24" fill="none" xmlns="http://www.w3.org/2000/svg">
<path d="M15.407 15.2209L6.97674 23.6512C6.86046 23.7674 6.73488 23.8543 6.6 23.9116C6.46511 23.969 6.31938 23.9984 6.16279 24C5.85271 24 5.58139 23.893 5.34884 23.6791C5.11628 23.4651 5 23.1845 5 22.8372L5 5.16281C5 4.81397 5.11628 4.53257 5.34884 4.31862C5.58139 4.10467 5.85271 3.99847 6.16279 4.00002C6.24031 4.00002 6.51163 4.1163 6.97674 4.34885L15.407 12.7791C15.6008 12.9729 15.7364 13.1667 15.8139 13.3605C15.8915 13.5543 15.9302 13.7675 15.9302 14C15.9302 14.2326 15.8915 14.4457 15.8139 14.6395C15.7364 14.8333 15.6008 15.0271 15.407 15.2209Z" fill="url(#paint0_linear_575_1772)"/>
<defs>
<linearGradient id="paint0_linear_575_1772" x1="-2.32822" y1="27.0682" x2="16.043" y2="8.73417" gradientUnits="userSpaceOnUse">
<stop stop-color="#15E768"/>
<stop offset="1" stop-color="#8B15E7"/>
</linearGradient>
</defs>
</svg>
