<svg width="9" height="6" viewBox="0 0 9 6" fill="none" xmlns="http://www.w3.org/2000/svg">
<path d="M4.1749 5.1249L0.549902 1.4999C0.499902 1.4499 0.462569 1.3959 0.437902 1.3379C0.413236 1.2799 0.400569 1.21724 0.399902 1.1499C0.399902 1.01657 0.445902 0.899902 0.537902 0.799902C0.629902 0.699902 0.750569 0.649902 0.899902 0.649902H8.4999C8.6499 0.649902 8.7709 0.699902 8.8629 0.799902C8.9549 0.899902 9.00057 1.01657 8.9999 1.1499C8.9999 1.18324 8.9499 1.2999 8.8499 1.4999L5.2249 5.1249C5.14157 5.20824 5.05824 5.26657 4.9749 5.2999C4.89157 5.33324 4.7999 5.3499 4.6999 5.3499C4.5999 5.3499 4.50824 5.33324 4.4249 5.2999C4.34157 5.26657 4.25824 5.20824 4.1749 5.1249Z" fill="url(#paint0_linear_575_1211)"/>
<defs>
<linearGradient id="paint0_linear_575_1211" x1="4.69991" y1="0.649902" x2="4.69991" y2="5.3499" gradientUnits="userSpaceOnUse">
<stop stop-color="#15E768"/>
<stop offset="1" stop-color="#8B15E7"/>
</linearGradient>
</defs>
</svg>
