<svg width="955" height="761" viewBox="0 0 955 761" fill="none" xmlns="http://www.w3.org/2000/svg">
<path d="M268.686 393.259V428.095H261.532V393.259H268.686ZM279.405 393.259V398.882H250.981V393.259H279.405ZM306.872 422.496V428.095H288.329V422.496H306.872ZM290.674 393.259V428.095H283.496V393.259H290.674ZM304.455 407.447V412.902H288.329V407.447H304.455ZM306.848 393.259V398.882H288.329V393.259H306.848ZM331.252 416.539H338.406C338.262 418.884 337.616 420.965 336.468 422.784C335.335 424.602 333.748 426.022 331.707 427.042C329.681 428.063 327.24 428.574 324.385 428.574C322.152 428.574 320.15 428.191 318.38 427.425C316.609 426.644 315.094 425.527 313.834 424.076C312.59 422.624 311.641 420.87 310.987 418.812C310.333 416.754 310.006 414.449 310.006 411.897V409.481C310.006 406.929 310.341 404.624 311.011 402.566C311.697 400.493 312.67 398.73 313.93 397.279C315.206 395.827 316.729 394.711 318.5 393.929C320.27 393.148 322.248 392.757 324.433 392.757C327.336 392.757 329.785 393.283 331.778 394.336C333.788 395.389 335.343 396.84 336.444 398.69C337.56 400.541 338.23 402.646 338.454 405.007H331.276C331.196 403.603 330.917 402.415 330.438 401.442C329.96 400.453 329.234 399.711 328.261 399.217C327.304 398.706 326.028 398.451 324.433 398.451C323.237 398.451 322.192 398.674 321.299 399.121C320.406 399.568 319.656 400.245 319.05 401.155C318.444 402.064 317.989 403.212 317.686 404.6C317.399 405.972 317.255 407.583 317.255 409.433V411.897C317.255 413.7 317.391 415.287 317.662 416.659C317.933 418.014 318.348 419.163 318.906 420.104C319.48 421.029 320.214 421.731 321.107 422.209C322.017 422.672 323.109 422.903 324.385 422.903C325.885 422.903 327.121 422.664 328.094 422.185C329.067 421.707 329.808 420.997 330.319 420.056C330.845 419.115 331.156 417.943 331.252 416.539ZM371.471 393.259V428.095H364.293L350.297 404.744V428.095H343.119V393.259H350.297L364.317 416.635V393.259H371.471ZM406.331 409.864V411.515C406.331 414.162 405.972 416.539 405.254 418.644C404.537 420.75 403.524 422.544 402.216 424.028C400.908 425.495 399.345 426.62 397.526 427.401C395.724 428.183 393.722 428.574 391.521 428.574C389.336 428.574 387.334 428.183 385.516 427.401C383.713 426.62 382.15 425.495 380.826 424.028C379.502 422.544 378.473 420.75 377.74 418.644C377.022 416.539 376.663 414.162 376.663 411.515V409.864C376.663 407.2 377.022 404.823 377.74 402.734C378.458 400.628 379.47 398.834 380.778 397.35C382.102 395.867 383.665 394.735 385.468 393.953C387.286 393.171 389.288 392.781 391.473 392.781C393.674 392.781 395.676 393.171 397.479 393.953C399.297 394.735 400.86 395.867 402.168 397.35C403.492 398.834 404.513 400.628 405.23 402.734C405.964 404.823 406.331 407.2 406.331 409.864ZM399.082 411.515V409.816C399.082 407.966 398.914 406.339 398.579 404.935C398.244 403.531 397.75 402.351 397.096 401.394C396.442 400.437 395.644 399.719 394.703 399.241C393.762 398.746 392.685 398.499 391.473 398.499C390.261 398.499 389.184 398.746 388.243 399.241C387.318 399.719 386.528 400.437 385.875 401.394C385.236 402.351 384.75 403.531 384.415 404.935C384.08 406.339 383.913 407.966 383.913 409.816V411.515C383.913 413.349 384.08 414.976 384.415 416.395C384.75 417.799 385.244 418.987 385.898 419.96C386.552 420.917 387.35 421.643 388.291 422.138C389.232 422.632 390.309 422.879 391.521 422.879C392.733 422.879 393.81 422.632 394.751 422.138C395.692 421.643 396.482 420.917 397.12 419.96C397.758 418.987 398.244 417.799 398.579 416.395C398.914 414.976 399.082 413.349 399.082 411.515ZM433.894 422.496V428.095H416.356V422.496H433.894ZM418.677 393.259V428.095H411.499V393.259H418.677ZM465.045 409.864V411.515C465.045 414.162 464.686 416.539 463.968 418.644C463.25 420.75 462.238 422.544 460.93 424.028C459.622 425.495 458.059 426.62 456.24 427.401C454.438 428.183 452.436 428.574 450.235 428.574C448.05 428.574 446.048 428.183 444.229 427.401C442.427 426.62 440.864 425.495 439.54 424.028C438.216 422.544 437.187 420.75 436.454 418.644C435.736 416.539 435.377 414.162 435.377 411.515V409.864C435.377 407.2 435.736 404.823 436.454 402.734C437.171 400.628 438.184 398.834 439.492 397.35C440.816 395.867 442.379 394.735 444.182 393.953C446 393.171 448.002 392.781 450.187 392.781C452.388 392.781 454.39 393.171 456.192 393.953C458.011 394.735 459.574 395.867 460.882 397.35C462.206 398.834 463.227 400.628 463.944 402.734C464.678 404.823 465.045 407.2 465.045 409.864ZM457.795 411.515V409.816C457.795 407.966 457.628 406.339 457.293 404.935C456.958 403.531 456.464 402.351 455.81 401.394C455.156 400.437 454.358 399.719 453.417 399.241C452.476 398.746 451.399 398.499 450.187 398.499C448.975 398.499 447.898 398.746 446.957 399.241C446.032 399.719 445.242 400.437 444.588 401.394C443.95 402.351 443.464 403.531 443.129 404.935C442.794 406.339 442.626 407.966 442.626 409.816V411.515C442.626 413.349 442.794 414.976 443.129 416.395C443.464 417.799 443.958 418.987 444.612 419.96C445.266 420.917 446.064 421.643 447.005 422.138C447.946 422.632 449.023 422.879 450.235 422.879C451.447 422.879 452.524 422.632 453.465 422.138C454.406 421.643 455.195 420.917 455.833 419.96C456.472 418.987 456.958 417.799 457.293 416.395C457.628 414.976 457.795 413.349 457.795 411.515ZM497.823 409.888V423.693C497.281 424.347 496.444 425.057 495.311 425.822C494.179 426.572 492.719 427.218 490.933 427.76C489.146 428.302 486.985 428.574 484.449 428.574C482.2 428.574 480.15 428.207 478.3 427.473C476.45 426.723 474.854 425.631 473.515 424.195C472.191 422.76 471.17 421.005 470.452 418.932C469.734 416.842 469.375 414.457 469.375 411.778V409.6C469.375 406.921 469.718 404.536 470.404 402.447C471.106 400.357 472.103 398.595 473.395 397.159C474.687 395.724 476.226 394.631 478.013 393.881C479.799 393.132 481.785 392.757 483.97 392.757C487.001 392.757 489.489 393.251 491.435 394.24C493.381 395.213 494.864 396.569 495.885 398.307C496.922 400.03 497.56 402.008 497.799 404.241H490.837C490.661 403.061 490.326 402.032 489.832 401.155C489.338 400.277 488.628 399.592 487.703 399.097C486.793 398.603 485.613 398.355 484.162 398.355C482.965 398.355 481.897 398.603 480.956 399.097C480.03 399.576 479.249 400.285 478.611 401.226C477.973 402.168 477.486 403.332 477.151 404.72C476.816 406.107 476.649 407.718 476.649 409.553V411.778C476.649 413.596 476.824 415.207 477.175 416.611C477.526 417.998 478.045 419.171 478.73 420.128C479.432 421.069 480.294 421.779 481.314 422.257C482.335 422.736 483.524 422.975 484.879 422.975C486.012 422.975 486.953 422.879 487.703 422.688C488.468 422.496 489.082 422.265 489.545 421.994C490.023 421.707 490.39 421.436 490.646 421.181V415.008H484.09V409.888H497.823ZM508.398 393.259L515.672 409.146L522.945 393.259H530.769L519.309 415.414V428.095H512.035V415.414L500.551 393.259H508.398Z" fill="black"/>
<path d="M610.208 431.372C609.931 430.891 609.931 430.299 610.208 429.819L620.57 411.872C620.847 411.391 621.36 411.095 621.915 411.095H642.638C643.193 411.095 643.705 411.391 643.983 411.872L654.345 429.819C654.622 430.299 654.622 430.891 654.345 431.372L643.983 449.319C643.705 449.799 643.193 450.095 642.638 450.095H621.915C621.36 450.095 620.847 449.799 620.57 449.319L610.208 431.372Z" fill="url(#paint0_linear_553_2922)"/>
<path d="M543.312 383.51C542.896 382.789 542.896 381.901 543.312 381.18L558.855 354.26C559.271 353.539 560.04 353.095 560.872 353.095H591.957C592.789 353.095 593.558 353.539 593.974 354.26L609.517 381.18C609.933 381.901 609.933 382.789 609.517 383.51L593.974 410.43C593.558 411.151 592.789 411.595 591.957 411.595H560.872C560.04 411.595 559.271 411.151 558.855 410.43L543.312 383.51Z" fill="url(#paint1_linear_553_2922)"/>
<path d="M443.468 310.717C442.844 309.636 442.844 308.304 443.468 307.223L466.783 266.842C467.406 265.761 468.559 265.095 469.808 265.095H516.435C517.684 265.095 518.837 265.761 519.461 266.842L542.776 307.223C543.399 308.304 543.399 309.636 542.776 310.717L519.461 351.098C518.837 352.179 517.684 352.845 516.435 352.845H469.808C468.559 352.845 467.406 352.179 466.783 351.098L443.468 310.717Z" fill="url(#paint2_linear_553_2922)"/>
<path d="M477.869 637.876H480.35L484.002 648.316L487.654 637.876H490.135L484.998 652.095H483.006L477.869 637.876ZM476.531 637.876H479.002L479.451 648.052V652.095H476.531V637.876ZM489.002 637.876H491.482V652.095H488.553V648.052L489.002 637.876ZM499.578 649.712V645.005C499.578 644.667 499.523 644.377 499.412 644.136C499.301 643.889 499.129 643.697 498.895 643.56C498.667 643.423 498.37 643.355 498.006 643.355C497.693 643.355 497.423 643.41 497.195 643.521C496.967 643.625 496.792 643.778 496.668 643.98C496.544 644.175 496.482 644.406 496.482 644.673H493.67C493.67 644.224 493.774 643.798 493.982 643.394C494.191 642.99 494.493 642.635 494.891 642.329C495.288 642.017 495.76 641.773 496.307 641.597C496.86 641.421 497.479 641.333 498.162 641.333C498.982 641.333 499.712 641.47 500.35 641.744C500.988 642.017 501.489 642.427 501.854 642.974C502.225 643.521 502.41 644.204 502.41 645.025V649.546C502.41 650.126 502.446 650.601 502.518 650.972C502.589 651.337 502.693 651.656 502.83 651.929V652.095H499.988C499.852 651.809 499.747 651.451 499.676 651.021C499.611 650.585 499.578 650.148 499.578 649.712ZM499.949 645.66L499.969 647.251H498.396C498.025 647.251 497.703 647.294 497.43 647.378C497.156 647.463 496.932 647.583 496.756 647.74C496.58 647.889 496.45 648.065 496.365 648.267C496.287 648.469 496.248 648.69 496.248 648.931C496.248 649.172 496.303 649.39 496.414 649.585C496.525 649.774 496.684 649.924 496.893 650.035C497.101 650.139 497.345 650.191 497.625 650.191C498.048 650.191 498.416 650.106 498.729 649.937C499.041 649.768 499.282 649.559 499.451 649.312C499.627 649.064 499.718 648.83 499.725 648.609L500.467 649.8C500.363 650.067 500.219 650.344 500.037 650.63C499.861 650.917 499.637 651.187 499.363 651.441C499.09 651.688 498.761 651.893 498.377 652.056C497.993 652.212 497.537 652.29 497.01 652.29C496.339 652.29 495.73 652.157 495.184 651.89C494.643 651.617 494.214 651.242 493.895 650.767C493.582 650.285 493.426 649.738 493.426 649.126C493.426 648.573 493.53 648.081 493.738 647.652C493.947 647.222 494.253 646.861 494.656 646.568C495.066 646.268 495.577 646.044 496.189 645.894C496.801 645.738 497.511 645.66 498.318 645.66H499.949ZM507.332 643.785V652.095H504.52V641.529H507.156L507.332 643.785ZM506.922 646.441H506.16C506.16 645.66 506.261 644.956 506.463 644.331C506.665 643.7 506.948 643.163 507.312 642.72C507.677 642.271 508.11 641.929 508.611 641.695C509.119 641.454 509.686 641.333 510.311 641.333C510.805 641.333 511.258 641.405 511.668 641.548C512.078 641.691 512.43 641.919 512.723 642.232C513.022 642.544 513.25 642.958 513.406 643.472C513.569 643.986 513.65 644.615 513.65 645.357V652.095H510.818V645.347C510.818 644.878 510.753 644.514 510.623 644.253C510.493 643.993 510.301 643.811 510.047 643.706C509.799 643.596 509.493 643.54 509.129 643.54C508.751 643.54 508.423 643.615 508.143 643.765C507.869 643.915 507.641 644.123 507.459 644.39C507.283 644.65 507.15 644.956 507.059 645.308C506.967 645.66 506.922 646.037 506.922 646.441ZM521.492 649.712V645.005C521.492 644.667 521.437 644.377 521.326 644.136C521.215 643.889 521.043 643.697 520.809 643.56C520.581 643.423 520.285 643.355 519.92 643.355C519.607 643.355 519.337 643.41 519.109 643.521C518.882 643.625 518.706 643.778 518.582 643.98C518.458 644.175 518.396 644.406 518.396 644.673H515.584C515.584 644.224 515.688 643.798 515.896 643.394C516.105 642.99 516.408 642.635 516.805 642.329C517.202 642.017 517.674 641.773 518.221 641.597C518.774 641.421 519.393 641.333 520.076 641.333C520.896 641.333 521.626 641.47 522.264 641.744C522.902 642.017 523.403 642.427 523.768 642.974C524.139 643.521 524.324 644.204 524.324 645.025V649.546C524.324 650.126 524.36 650.601 524.432 650.972C524.503 651.337 524.607 651.656 524.744 651.929V652.095H521.902C521.766 651.809 521.661 651.451 521.59 651.021C521.525 650.585 521.492 650.148 521.492 649.712ZM521.863 645.66L521.883 647.251H520.311C519.939 647.251 519.617 647.294 519.344 647.378C519.07 647.463 518.846 647.583 518.67 647.74C518.494 647.889 518.364 648.065 518.279 648.267C518.201 648.469 518.162 648.69 518.162 648.931C518.162 649.172 518.217 649.39 518.328 649.585C518.439 649.774 518.598 649.924 518.807 650.035C519.015 650.139 519.259 650.191 519.539 650.191C519.962 650.191 520.33 650.106 520.643 649.937C520.955 649.768 521.196 649.559 521.365 649.312C521.541 649.064 521.632 648.83 521.639 648.609L522.381 649.8C522.277 650.067 522.133 650.344 521.951 650.63C521.775 650.917 521.551 651.187 521.277 651.441C521.004 651.688 520.675 651.893 520.291 652.056C519.907 652.212 519.451 652.29 518.924 652.29C518.253 652.29 517.645 652.157 517.098 651.89C516.557 651.617 516.128 651.242 515.809 650.767C515.496 650.285 515.34 649.738 515.34 649.126C515.34 648.573 515.444 648.081 515.652 647.652C515.861 647.222 516.167 646.861 516.57 646.568C516.98 646.268 517.492 646.044 518.104 645.894C518.715 645.738 519.425 645.66 520.232 645.66H521.863ZM533.182 641.529H535.73V651.744C535.73 652.707 535.516 653.524 535.086 654.195C534.663 654.872 534.07 655.383 533.309 655.728C532.547 656.079 531.661 656.255 530.652 656.255C530.21 656.255 529.741 656.197 529.246 656.079C528.758 655.962 528.289 655.78 527.84 655.533C527.397 655.285 527.026 654.973 526.727 654.595L527.967 652.935C528.292 653.313 528.67 653.606 529.1 653.814C529.529 654.029 530.005 654.136 530.525 654.136C531.033 654.136 531.463 654.042 531.814 653.853C532.166 653.671 532.436 653.4 532.625 653.042C532.814 652.691 532.908 652.264 532.908 651.763V643.97L533.182 641.529ZM526.072 646.939V646.734C526.072 645.926 526.17 645.194 526.365 644.536C526.567 643.872 526.85 643.303 527.215 642.828C527.586 642.352 528.035 641.984 528.562 641.724C529.09 641.464 529.686 641.333 530.35 641.333C531.053 641.333 531.642 641.464 532.117 641.724C532.592 641.984 532.983 642.356 533.289 642.837C533.595 643.313 533.833 643.876 534.002 644.527C534.178 645.171 534.314 645.878 534.412 646.646V647.095C534.314 647.831 534.168 648.514 533.973 649.146C533.777 649.777 533.52 650.331 533.201 650.806C532.882 651.275 532.485 651.639 532.01 651.9C531.541 652.16 530.981 652.29 530.33 652.29C529.679 652.29 529.09 652.157 528.562 651.89C528.042 651.623 527.596 651.249 527.225 650.767C526.854 650.285 526.567 649.719 526.365 649.068C526.17 648.417 526.072 647.707 526.072 646.939ZM528.885 646.734V646.939C528.885 647.375 528.927 647.782 529.012 648.16C529.096 648.537 529.227 648.872 529.402 649.165C529.585 649.452 529.809 649.676 530.076 649.839C530.35 649.995 530.672 650.074 531.043 650.074C531.557 650.074 531.977 649.966 532.303 649.751C532.628 649.53 532.872 649.227 533.035 648.843C533.198 648.459 533.292 648.016 533.318 647.515V646.236C533.305 645.826 533.25 645.458 533.152 645.132C533.055 644.8 532.918 644.517 532.742 644.283C532.566 644.048 532.339 643.866 532.059 643.736C531.779 643.606 531.447 643.54 531.062 643.54C530.691 643.54 530.369 643.625 530.096 643.794C529.829 643.957 529.604 644.182 529.422 644.468C529.246 644.755 529.113 645.093 529.021 645.484C528.93 645.868 528.885 646.285 528.885 646.734ZM542.781 652.29C541.961 652.29 541.225 652.16 540.574 651.9C539.923 651.633 539.37 651.265 538.914 650.796C538.465 650.328 538.12 649.784 537.879 649.165C537.638 648.54 537.518 647.876 537.518 647.173V646.783C537.518 645.982 537.632 645.249 537.859 644.585C538.087 643.921 538.413 643.345 538.836 642.857C539.266 642.369 539.786 641.994 540.398 641.734C541.01 641.467 541.701 641.333 542.469 641.333C543.217 641.333 543.882 641.457 544.461 641.704C545.04 641.952 545.525 642.303 545.916 642.759C546.313 643.215 546.613 643.762 546.814 644.4C547.016 645.031 547.117 645.734 547.117 646.509V647.681H538.719V645.806H544.354V645.591C544.354 645.201 544.282 644.852 544.139 644.546C544.002 644.234 543.794 643.986 543.514 643.804C543.234 643.622 542.876 643.531 542.439 643.531C542.068 643.531 541.749 643.612 541.482 643.775C541.215 643.938 540.997 644.165 540.828 644.458C540.665 644.751 540.542 645.096 540.457 645.494C540.379 645.884 540.34 646.314 540.34 646.783V647.173C540.34 647.596 540.398 647.987 540.516 648.345C540.639 648.703 540.812 649.012 541.033 649.273C541.261 649.533 541.535 649.735 541.854 649.878C542.179 650.022 542.547 650.093 542.957 650.093C543.465 650.093 543.937 649.995 544.373 649.8C544.816 649.598 545.197 649.296 545.516 648.892L546.883 650.376C546.661 650.695 546.359 651.001 545.975 651.294C545.597 651.587 545.141 651.828 544.607 652.017C544.074 652.199 543.465 652.29 542.781 652.29ZM551.531 643.716V652.095H548.709V641.529H551.355L551.531 643.716ZM551.141 646.441H550.359C550.359 645.705 550.447 645.028 550.623 644.41C550.805 643.785 551.069 643.244 551.414 642.788C551.766 642.326 552.199 641.968 552.713 641.714C553.227 641.46 553.823 641.333 554.5 641.333C554.969 641.333 555.398 641.405 555.789 641.548C556.18 641.685 556.515 641.903 556.795 642.203C557.081 642.495 557.303 642.88 557.459 643.355C557.615 643.824 557.693 644.387 557.693 645.044V652.095H554.881V645.357C554.881 644.875 554.816 644.504 554.686 644.244C554.555 643.983 554.37 643.801 554.129 643.697C553.895 643.592 553.611 643.54 553.279 643.54C552.915 643.54 552.596 643.615 552.322 643.765C552.055 643.915 551.834 644.123 551.658 644.39C551.482 644.65 551.352 644.956 551.268 645.308C551.183 645.66 551.141 646.037 551.141 646.441ZM557.43 646.119L556.424 646.245C556.424 645.555 556.508 644.914 556.678 644.322C556.854 643.729 557.111 643.208 557.449 642.759C557.794 642.31 558.221 641.962 558.729 641.714C559.236 641.46 559.822 641.333 560.486 641.333C560.994 641.333 561.456 641.408 561.873 641.558C562.29 641.701 562.645 641.932 562.938 642.251C563.237 642.564 563.465 642.974 563.621 643.482C563.784 643.99 563.865 644.611 563.865 645.347V652.095H561.043V645.347C561.043 644.859 560.978 644.488 560.848 644.234C560.724 643.973 560.542 643.794 560.301 643.697C560.066 643.592 559.786 643.54 559.461 643.54C559.122 643.54 558.826 643.609 558.572 643.745C558.318 643.876 558.107 644.058 557.938 644.292C557.768 644.527 557.641 644.8 557.557 645.113C557.472 645.419 557.43 645.754 557.43 646.119ZM570.906 652.29C570.086 652.29 569.35 652.16 568.699 651.9C568.048 651.633 567.495 651.265 567.039 650.796C566.59 650.328 566.245 649.784 566.004 649.165C565.763 648.54 565.643 647.876 565.643 647.173V646.783C565.643 645.982 565.757 645.249 565.984 644.585C566.212 643.921 566.538 643.345 566.961 642.857C567.391 642.369 567.911 641.994 568.523 641.734C569.135 641.467 569.826 641.333 570.594 641.333C571.342 641.333 572.007 641.457 572.586 641.704C573.165 641.952 573.65 642.303 574.041 642.759C574.438 643.215 574.738 643.762 574.939 644.4C575.141 645.031 575.242 645.734 575.242 646.509V647.681H566.844V645.806H572.479V645.591C572.479 645.201 572.407 644.852 572.264 644.546C572.127 644.234 571.919 643.986 571.639 643.804C571.359 643.622 571.001 643.531 570.564 643.531C570.193 643.531 569.874 643.612 569.607 643.775C569.34 643.938 569.122 644.165 568.953 644.458C568.79 644.751 568.667 645.096 568.582 645.494C568.504 645.884 568.465 646.314 568.465 646.783V647.173C568.465 647.596 568.523 647.987 568.641 648.345C568.764 648.703 568.937 649.012 569.158 649.273C569.386 649.533 569.66 649.735 569.979 649.878C570.304 650.022 570.672 650.093 571.082 650.093C571.59 650.093 572.062 649.995 572.498 649.8C572.941 649.598 573.322 649.296 573.641 648.892L575.008 650.376C574.786 650.695 574.484 651.001 574.1 651.294C573.722 651.587 573.266 651.828 572.732 652.017C572.199 652.199 571.59 652.29 570.906 652.29ZM579.598 643.785V652.095H576.785V641.529H579.422L579.598 643.785ZM579.188 646.441H578.426C578.426 645.66 578.527 644.956 578.729 644.331C578.93 643.7 579.214 643.163 579.578 642.72C579.943 642.271 580.376 641.929 580.877 641.695C581.385 641.454 581.951 641.333 582.576 641.333C583.071 641.333 583.523 641.405 583.934 641.548C584.344 641.691 584.695 641.919 584.988 642.232C585.288 642.544 585.516 642.958 585.672 643.472C585.835 643.986 585.916 644.615 585.916 645.357V652.095H583.084V645.347C583.084 644.878 583.019 644.514 582.889 644.253C582.758 643.993 582.566 643.811 582.312 643.706C582.065 643.596 581.759 643.54 581.395 643.54C581.017 643.54 580.688 643.615 580.408 643.765C580.135 643.915 579.907 644.123 579.725 644.39C579.549 644.65 579.415 644.956 579.324 645.308C579.233 645.66 579.188 646.037 579.188 646.441ZM593.23 641.529V643.521H587.078V641.529H593.23ZM588.602 638.921H591.414V648.911C591.414 649.217 591.453 649.452 591.531 649.615C591.616 649.777 591.74 649.891 591.902 649.956C592.065 650.015 592.27 650.044 592.518 650.044C592.693 650.044 592.85 650.038 592.986 650.025C593.13 650.005 593.25 649.986 593.348 649.966L593.357 652.036C593.117 652.115 592.856 652.176 592.576 652.222C592.296 652.268 591.987 652.29 591.648 652.29C591.03 652.29 590.49 652.189 590.027 651.988C589.572 651.779 589.22 651.447 588.973 650.992C588.725 650.536 588.602 649.937 588.602 649.195V638.921Z" fill="url(#paint3_linear_553_2922)"/>
<path d="M416.12 649.325C414.627 646.736 414.627 643.549 416.12 640.96L471.94 544.278C473.433 541.689 476.194 540.095 479.184 540.095H590.816C593.806 540.095 596.567 541.689 598.06 544.278L653.88 640.96C655.373 643.549 655.373 646.736 653.88 649.325L598.06 746.007C596.567 748.597 593.806 750.19 590.816 750.19H479.184C476.194 750.19 473.433 748.597 471.94 746.007L416.12 649.325Z" stroke="url(#paint4_linear_553_2922)" stroke-width="20"/>
<path d="M780.979 368.095H777.883L777.902 365.81H780.979C781.747 365.81 782.395 365.637 782.922 365.292C783.449 364.941 783.846 364.43 784.113 363.759C784.387 363.089 784.523 362.278 784.523 361.328V360.634C784.523 359.905 784.445 359.264 784.289 358.71C784.139 358.157 783.915 357.691 783.615 357.314C783.316 356.936 782.948 356.653 782.512 356.464C782.076 356.269 781.574 356.171 781.008 356.171H777.824V353.876H781.008C781.958 353.876 782.827 354.039 783.615 354.365C784.41 354.684 785.096 355.143 785.676 355.742C786.255 356.341 786.701 357.057 787.014 357.89C787.333 358.717 787.492 359.638 787.492 360.654V361.328C787.492 362.337 787.333 363.258 787.014 364.091C786.701 364.925 786.255 365.641 785.676 366.24C785.103 366.832 784.416 367.291 783.615 367.617C782.821 367.936 781.942 368.095 780.979 368.095ZM779.543 353.876V368.095H776.613V353.876H779.543ZM794.309 368.29C793.488 368.29 792.753 368.16 792.102 367.9C791.451 367.633 790.897 367.265 790.441 366.796C789.992 366.328 789.647 365.784 789.406 365.165C789.165 364.54 789.045 363.876 789.045 363.173V362.783C789.045 361.982 789.159 361.249 789.387 360.585C789.615 359.921 789.94 359.345 790.363 358.857C790.793 358.369 791.314 357.994 791.926 357.734C792.538 357.467 793.228 357.333 793.996 357.333C794.745 357.333 795.409 357.457 795.988 357.704C796.568 357.952 797.053 358.303 797.443 358.759C797.84 359.215 798.14 359.762 798.342 360.4C798.544 361.031 798.645 361.734 798.645 362.509V363.681H790.246V361.806H795.881V361.591C795.881 361.201 795.809 360.852 795.666 360.546C795.529 360.234 795.321 359.986 795.041 359.804C794.761 359.622 794.403 359.531 793.967 359.531C793.596 359.531 793.277 359.612 793.01 359.775C792.743 359.938 792.525 360.165 792.355 360.458C792.193 360.751 792.069 361.096 791.984 361.494C791.906 361.884 791.867 362.314 791.867 362.783V363.173C791.867 363.596 791.926 363.987 792.043 364.345C792.167 364.703 792.339 365.012 792.561 365.273C792.788 365.533 793.062 365.735 793.381 365.878C793.706 366.022 794.074 366.093 794.484 366.093C794.992 366.093 795.464 365.995 795.9 365.8C796.343 365.598 796.724 365.296 797.043 364.892L798.41 366.376C798.189 366.695 797.886 367.001 797.502 367.294C797.124 367.587 796.669 367.828 796.135 368.017C795.601 368.199 794.992 368.29 794.309 368.29ZM803.703 366.044L806.047 357.529H808.986L805.422 368.095H803.645L803.703 366.044ZM802.092 357.529L804.445 366.054L804.494 368.095H802.707L799.143 357.529H802.092ZM814.973 368.29C814.152 368.29 813.417 368.16 812.766 367.9C812.115 367.633 811.561 367.265 811.105 366.796C810.656 366.328 810.311 365.784 810.07 365.165C809.829 364.54 809.709 363.876 809.709 363.173V362.783C809.709 361.982 809.823 361.249 810.051 360.585C810.279 359.921 810.604 359.345 811.027 358.857C811.457 358.369 811.978 357.994 812.59 357.734C813.202 357.467 813.892 357.333 814.66 357.333C815.409 357.333 816.073 357.457 816.652 357.704C817.232 357.952 817.717 358.303 818.107 358.759C818.505 359.215 818.804 359.762 819.006 360.4C819.208 361.031 819.309 361.734 819.309 362.509V363.681H810.91V361.806H816.545V361.591C816.545 361.201 816.473 360.852 816.33 360.546C816.193 360.234 815.985 359.986 815.705 359.804C815.425 359.622 815.067 359.531 814.631 359.531C814.26 359.531 813.941 359.612 813.674 359.775C813.407 359.938 813.189 360.165 813.02 360.458C812.857 360.751 812.733 361.096 812.648 361.494C812.57 361.884 812.531 362.314 812.531 362.783V363.173C812.531 363.596 812.59 363.987 812.707 364.345C812.831 364.703 813.003 365.012 813.225 365.273C813.452 365.533 813.726 365.735 814.045 365.878C814.37 366.022 814.738 366.093 815.148 366.093C815.656 366.093 816.128 365.995 816.564 365.8C817.007 365.598 817.388 365.296 817.707 364.892L819.074 366.376C818.853 366.695 818.55 367.001 818.166 367.294C817.788 367.587 817.333 367.828 816.799 368.017C816.265 368.199 815.656 368.29 814.973 368.29ZM823.879 353.095V368.095H821.057V353.095H823.879ZM825.754 362.919V362.714C825.754 361.939 825.865 361.227 826.086 360.576C826.307 359.918 826.63 359.348 827.053 358.867C827.476 358.385 827.997 358.01 828.615 357.744C829.234 357.47 829.943 357.333 830.744 357.333C831.545 357.333 832.258 357.47 832.883 357.744C833.508 358.01 834.032 358.385 834.455 358.867C834.885 359.348 835.21 359.918 835.432 360.576C835.653 361.227 835.764 361.939 835.764 362.714V362.919C835.764 363.688 835.653 364.4 835.432 365.058C835.21 365.709 834.885 366.279 834.455 366.767C834.032 367.249 833.511 367.623 832.893 367.89C832.274 368.157 831.564 368.29 830.764 368.29C829.963 368.29 829.25 368.157 828.625 367.89C828.007 367.623 827.482 367.249 827.053 366.767C826.63 366.279 826.307 365.709 826.086 365.058C825.865 364.4 825.754 363.688 825.754 362.919ZM828.566 362.714V362.919C828.566 363.362 828.605 363.775 828.684 364.16C828.762 364.544 828.885 364.882 829.055 365.175C829.23 365.462 829.458 365.686 829.738 365.849C830.018 366.012 830.36 366.093 830.764 366.093C831.154 366.093 831.49 366.012 831.77 365.849C832.049 365.686 832.274 365.462 832.443 365.175C832.613 364.882 832.736 364.544 832.814 364.16C832.899 363.775 832.941 363.362 832.941 362.919V362.714C832.941 362.285 832.899 361.881 832.814 361.503C832.736 361.119 832.609 360.781 832.434 360.488C832.264 360.188 832.04 359.954 831.76 359.785C831.48 359.615 831.141 359.531 830.744 359.531C830.347 359.531 830.008 359.615 829.729 359.785C829.455 359.954 829.23 360.188 829.055 360.488C828.885 360.781 828.762 361.119 828.684 361.503C828.605 361.881 828.566 362.285 828.566 362.714ZM840.305 359.56V372.158H837.492V357.529H840.1L840.305 359.56ZM846.994 362.695V362.9C846.994 363.668 846.903 364.381 846.721 365.038C846.545 365.696 846.285 366.269 845.939 366.757C845.594 367.239 845.165 367.617 844.65 367.89C844.143 368.157 843.557 368.29 842.893 368.29C842.248 368.29 841.688 368.16 841.213 367.9C840.738 367.639 840.337 367.275 840.012 366.806C839.693 366.331 839.436 365.781 839.24 365.156C839.045 364.531 838.895 363.86 838.791 363.144V362.607C838.895 361.839 839.045 361.135 839.24 360.497C839.436 359.853 839.693 359.296 840.012 358.828C840.337 358.352 840.734 357.984 841.203 357.724C841.678 357.464 842.235 357.333 842.873 357.333C843.544 357.333 844.133 357.46 844.641 357.714C845.155 357.968 845.585 358.333 845.93 358.808C846.281 359.283 846.545 359.85 846.721 360.507C846.903 361.165 846.994 361.894 846.994 362.695ZM844.172 362.9V362.695C844.172 362.245 844.133 361.832 844.055 361.454C843.983 361.07 843.866 360.735 843.703 360.449C843.547 360.162 843.339 359.941 843.078 359.785C842.824 359.622 842.515 359.54 842.15 359.54C841.766 359.54 841.438 359.602 841.164 359.726C840.897 359.85 840.679 360.029 840.51 360.263C840.34 360.497 840.214 360.777 840.129 361.103C840.044 361.428 839.992 361.796 839.973 362.206V363.564C840.005 364.046 840.096 364.479 840.246 364.863C840.396 365.24 840.627 365.54 840.939 365.761C841.252 365.982 841.662 366.093 842.17 366.093C842.541 366.093 842.854 366.012 843.107 365.849C843.361 365.68 843.566 365.449 843.723 365.156C843.885 364.863 843.999 364.524 844.064 364.14C844.136 363.756 844.172 363.342 844.172 362.9ZM851.555 359.716V368.095H848.732V357.529H851.379L851.555 359.716ZM851.164 362.441H850.383C850.383 361.705 850.471 361.028 850.646 360.41C850.829 359.785 851.092 359.244 851.438 358.788C851.789 358.326 852.222 357.968 852.736 357.714C853.251 357.46 853.846 357.333 854.523 357.333C854.992 357.333 855.422 357.405 855.812 357.548C856.203 357.685 856.538 357.903 856.818 358.203C857.105 358.495 857.326 358.88 857.482 359.355C857.639 359.824 857.717 360.387 857.717 361.044V368.095H854.904V361.357C854.904 360.875 854.839 360.504 854.709 360.244C854.579 359.983 854.393 359.801 854.152 359.697C853.918 359.592 853.635 359.54 853.303 359.54C852.938 359.54 852.619 359.615 852.346 359.765C852.079 359.915 851.857 360.123 851.682 360.39C851.506 360.65 851.376 360.956 851.291 361.308C851.206 361.66 851.164 362.037 851.164 362.441ZM857.453 362.119L856.447 362.245C856.447 361.555 856.532 360.914 856.701 360.322C856.877 359.729 857.134 359.208 857.473 358.759C857.818 358.31 858.244 357.962 858.752 357.714C859.26 357.46 859.846 357.333 860.51 357.333C861.018 357.333 861.48 357.408 861.896 357.558C862.313 357.701 862.668 357.932 862.961 358.251C863.26 358.564 863.488 358.974 863.645 359.482C863.807 359.99 863.889 360.611 863.889 361.347V368.095H861.066V361.347C861.066 360.859 861.001 360.488 860.871 360.234C860.747 359.973 860.565 359.794 860.324 359.697C860.09 359.592 859.81 359.54 859.484 359.54C859.146 359.54 858.85 359.609 858.596 359.745C858.342 359.876 858.13 360.058 857.961 360.292C857.792 360.527 857.665 360.8 857.58 361.113C857.495 361.419 857.453 361.754 857.453 362.119ZM870.93 368.29C870.109 368.29 869.374 368.16 868.723 367.9C868.072 367.633 867.518 367.265 867.062 366.796C866.613 366.328 866.268 365.784 866.027 365.165C865.786 364.54 865.666 363.876 865.666 363.173V362.783C865.666 361.982 865.78 361.249 866.008 360.585C866.236 359.921 866.561 359.345 866.984 358.857C867.414 358.369 867.935 357.994 868.547 357.734C869.159 357.467 869.849 357.333 870.617 357.333C871.366 357.333 872.03 357.457 872.609 357.704C873.189 357.952 873.674 358.303 874.064 358.759C874.462 359.215 874.761 359.762 874.963 360.4C875.165 361.031 875.266 361.734 875.266 362.509V363.681H866.867V361.806H872.502V361.591C872.502 361.201 872.43 360.852 872.287 360.546C872.15 360.234 871.942 359.986 871.662 359.804C871.382 359.622 871.024 359.531 870.588 359.531C870.217 359.531 869.898 359.612 869.631 359.775C869.364 359.938 869.146 360.165 868.977 360.458C868.814 360.751 868.69 361.096 868.605 361.494C868.527 361.884 868.488 362.314 868.488 362.783V363.173C868.488 363.596 868.547 363.987 868.664 364.345C868.788 364.703 868.96 365.012 869.182 365.273C869.41 365.533 869.683 365.735 870.002 365.878C870.327 366.022 870.695 366.093 871.105 366.093C871.613 366.093 872.085 365.995 872.521 365.8C872.964 365.598 873.345 365.296 873.664 364.892L875.031 366.376C874.81 366.695 874.507 367.001 874.123 367.294C873.745 367.587 873.29 367.828 872.756 368.017C872.222 368.199 871.613 368.29 870.93 368.29ZM879.621 359.785V368.095H876.809V357.529H879.445L879.621 359.785ZM879.211 362.441H878.449C878.449 361.66 878.55 360.956 878.752 360.331C878.954 359.7 879.237 359.163 879.602 358.72C879.966 358.271 880.399 357.929 880.9 357.695C881.408 357.454 881.975 357.333 882.6 357.333C883.094 357.333 883.547 357.405 883.957 357.548C884.367 357.691 884.719 357.919 885.012 358.232C885.311 358.544 885.539 358.958 885.695 359.472C885.858 359.986 885.939 360.615 885.939 361.357V368.095H883.107V361.347C883.107 360.878 883.042 360.514 882.912 360.253C882.782 359.993 882.59 359.811 882.336 359.706C882.089 359.596 881.783 359.54 881.418 359.54C881.04 359.54 880.712 359.615 880.432 359.765C880.158 359.915 879.93 360.123 879.748 360.39C879.572 360.65 879.439 360.956 879.348 361.308C879.257 361.66 879.211 362.037 879.211 362.441ZM893.254 357.529V359.521H887.102V357.529H893.254ZM888.625 354.921H891.438V364.911C891.438 365.217 891.477 365.452 891.555 365.615C891.639 365.777 891.763 365.891 891.926 365.956C892.089 366.015 892.294 366.044 892.541 366.044C892.717 366.044 892.873 366.038 893.01 366.025C893.153 366.005 893.273 365.986 893.371 365.966L893.381 368.036C893.14 368.115 892.88 368.176 892.6 368.222C892.32 368.268 892.01 368.29 891.672 368.29C891.053 368.29 890.513 368.189 890.051 367.988C889.595 367.779 889.243 367.447 888.996 366.992C888.749 366.536 888.625 365.937 888.625 365.195V354.921Z" fill="url(#paint5_linear_553_2922)"/>
<path d="M725.579 365.223C724.211 362.849 724.211 359.928 725.579 357.555L776.748 268.929C778.116 266.556 780.647 265.095 783.388 265.095H885.717C888.459 265.095 890.989 266.556 892.358 268.929L943.526 357.555C944.895 359.928 944.895 362.849 943.526 365.223L892.358 453.848C890.989 456.221 888.459 457.682 885.717 457.682H783.388C780.647 457.682 778.116 456.221 776.748 453.848L725.579 365.223Z" stroke="url(#paint6_linear_553_2922)" stroke-width="20"/>
<path d="M303.73 100.378H306.65C306.592 101.335 306.328 102.185 305.859 102.927C305.397 103.669 304.749 104.249 303.916 104.665C303.089 105.082 302.093 105.29 300.928 105.29C300.016 105.29 299.199 105.134 298.477 104.822C297.754 104.503 297.135 104.047 296.621 103.454C296.113 102.862 295.726 102.146 295.459 101.306C295.192 100.466 295.059 99.5254 295.059 98.4838V97.4974C295.059 96.4558 295.195 95.515 295.469 94.6752C295.749 93.8288 296.146 93.1094 296.66 92.517C297.181 91.9245 297.803 91.4688 298.525 91.1498C299.248 90.8308 300.055 90.6713 300.947 90.6713C302.132 90.6713 303.132 90.8861 303.945 91.3158C304.766 91.7455 305.4 92.3379 305.85 93.0931C306.305 93.8483 306.579 94.7077 306.67 95.6713H303.74C303.708 95.0983 303.594 94.6133 303.398 94.2162C303.203 93.8125 302.907 93.5098 302.51 93.308C302.119 93.0997 301.598 92.9955 300.947 92.9955C300.459 92.9955 300.033 93.0866 299.668 93.2689C299.303 93.4512 298.997 93.7279 298.75 94.099C298.503 94.4701 298.317 94.9388 298.193 95.5052C298.076 96.0651 298.018 96.7227 298.018 97.4779V98.4838C298.018 99.2194 298.073 99.8672 298.184 100.427C298.294 100.981 298.464 101.449 298.691 101.833C298.926 102.211 299.225 102.497 299.59 102.693C299.961 102.882 300.407 102.976 300.928 102.976C301.54 102.976 302.044 102.878 302.441 102.683C302.839 102.488 303.141 102.198 303.35 101.814C303.564 101.43 303.691 100.951 303.73 100.378ZM307.949 99.9193V99.7142C307.949 98.9395 308.06 98.2266 308.281 97.5756C308.503 96.918 308.825 96.3483 309.248 95.8666C309.671 95.3848 310.192 95.0105 310.811 94.7435C311.429 94.4701 312.139 94.3334 312.939 94.3334C313.74 94.3334 314.453 94.4701 315.078 94.7435C315.703 95.0105 316.227 95.3848 316.65 95.8666C317.08 96.3483 317.406 96.918 317.627 97.5756C317.848 98.2266 317.959 98.9395 317.959 99.7142V99.9193C317.959 100.688 317.848 101.4 317.627 102.058C317.406 102.709 317.08 103.279 316.65 103.767C316.227 104.249 315.706 104.623 315.088 104.89C314.469 105.157 313.76 105.29 312.959 105.29C312.158 105.29 311.445 105.157 310.82 104.89C310.202 104.623 309.678 104.249 309.248 103.767C308.825 103.279 308.503 102.709 308.281 102.058C308.06 101.4 307.949 100.688 307.949 99.9193ZM310.762 99.7142V99.9193C310.762 100.362 310.801 100.775 310.879 101.16C310.957 101.544 311.081 101.882 311.25 102.175C311.426 102.462 311.654 102.686 311.934 102.849C312.214 103.012 312.555 103.093 312.959 103.093C313.35 103.093 313.685 103.012 313.965 102.849C314.245 102.686 314.469 102.462 314.639 102.175C314.808 101.882 314.932 101.544 315.01 101.16C315.094 100.775 315.137 100.362 315.137 99.9193V99.7142C315.137 99.2845 315.094 98.8809 315.01 98.5033C314.932 98.1192 314.805 97.7806 314.629 97.4877C314.46 97.1882 314.235 96.9538 313.955 96.7845C313.675 96.6153 313.337 96.5306 312.939 96.5306C312.542 96.5306 312.204 96.6153 311.924 96.7845C311.65 96.9538 311.426 97.1882 311.25 97.4877C311.081 97.7806 310.957 98.1192 310.879 98.5033C310.801 98.8809 310.762 99.2845 310.762 99.7142ZM322.441 96.7845V105.095H319.629V94.5287H322.266L322.441 96.7845ZM322.031 99.4408H321.27C321.27 98.6595 321.37 97.9564 321.572 97.3314C321.774 96.6999 322.057 96.1628 322.422 95.7201C322.786 95.2709 323.219 94.9291 323.721 94.6947C324.229 94.4538 324.795 94.3334 325.42 94.3334C325.915 94.3334 326.367 94.405 326.777 94.5482C327.188 94.6914 327.539 94.9193 327.832 95.2318C328.132 95.5443 328.359 95.9577 328.516 96.472C328.678 96.9864 328.76 97.6146 328.76 98.3568V105.095H325.928V98.347C325.928 97.8783 325.863 97.5137 325.732 97.2533C325.602 96.9929 325.41 96.8106 325.156 96.7064C324.909 96.5957 324.603 96.5404 324.238 96.5404C323.861 96.5404 323.532 96.6153 323.252 96.765C322.979 96.9148 322.751 97.1231 322.568 97.39C322.393 97.6504 322.259 97.9564 322.168 98.308C322.077 98.6595 322.031 99.0372 322.031 99.4408ZM336.611 102.175C336.611 101.973 336.553 101.791 336.436 101.628C336.318 101.466 336.1 101.316 335.781 101.179C335.469 101.036 335.016 100.906 334.424 100.788C333.89 100.671 333.392 100.525 332.93 100.349C332.474 100.167 332.077 99.9486 331.738 99.6947C331.406 99.4408 331.146 99.1413 330.957 98.7963C330.768 98.4447 330.674 98.0443 330.674 97.5951C330.674 97.1524 330.768 96.7357 330.957 96.3451C331.152 95.9545 331.429 95.6094 331.787 95.3099C332.152 95.0039 332.594 94.7663 333.115 94.597C333.643 94.4213 334.235 94.3334 334.893 94.3334C335.811 94.3334 336.598 94.4799 337.256 94.7728C337.92 95.0658 338.428 95.4694 338.779 95.9838C339.137 96.4916 339.316 97.071 339.316 97.722H336.504C336.504 97.4486 336.445 97.2045 336.328 96.9896C336.217 96.7683 336.042 96.5957 335.801 96.472C335.566 96.3418 335.26 96.2767 334.883 96.2767C334.57 96.2767 334.3 96.3321 334.072 96.4427C333.844 96.5469 333.669 96.6901 333.545 96.8724C333.428 97.0482 333.369 97.2435 333.369 97.4584C333.369 97.6211 333.402 97.7676 333.467 97.8978C333.538 98.0215 333.652 98.1355 333.809 98.2396C333.965 98.3438 334.167 98.4414 334.414 98.5326C334.668 98.6172 334.98 98.6954 335.352 98.767C336.113 98.9232 336.794 99.1283 337.393 99.3822C337.992 99.6296 338.467 99.9681 338.818 100.398C339.17 100.821 339.346 101.378 339.346 102.068C339.346 102.536 339.242 102.966 339.033 103.357C338.825 103.747 338.525 104.089 338.135 104.382C337.744 104.669 337.275 104.893 336.729 105.056C336.188 105.212 335.579 105.29 334.902 105.29C333.919 105.29 333.086 105.115 332.402 104.763C331.725 104.411 331.211 103.966 330.859 103.425C330.514 102.878 330.342 102.318 330.342 101.745H333.008C333.021 102.13 333.118 102.439 333.301 102.673C333.49 102.908 333.727 103.077 334.014 103.181C334.307 103.285 334.622 103.337 334.961 103.337C335.326 103.337 335.628 103.288 335.869 103.191C336.11 103.087 336.292 102.95 336.416 102.781C336.546 102.605 336.611 102.403 336.611 102.175ZM347.422 102.566V94.5287H350.234V105.095H347.588L347.422 102.566ZM347.734 100.398L348.564 100.378C348.564 101.081 348.483 101.736 348.32 102.341C348.158 102.94 347.913 103.461 347.588 103.904C347.262 104.34 346.852 104.682 346.357 104.929C345.863 105.17 345.28 105.29 344.609 105.29C344.095 105.29 343.62 105.219 343.184 105.076C342.754 104.926 342.383 104.695 342.07 104.382C341.764 104.063 341.523 103.656 341.348 103.161C341.178 102.66 341.094 102.058 341.094 101.355V94.5287H343.906V101.374C343.906 101.687 343.942 101.951 344.014 102.165C344.092 102.38 344.199 102.556 344.336 102.693C344.473 102.829 344.632 102.927 344.814 102.986C345.003 103.044 345.212 103.074 345.439 103.074C346.019 103.074 346.475 102.956 346.807 102.722C347.145 102.488 347.383 102.169 347.52 101.765C347.663 101.355 347.734 100.899 347.734 100.398ZM355.352 90.0951V105.095H352.529V90.0951H355.352ZM362.852 94.5287V96.5209H356.699V94.5287H362.852ZM358.223 91.9213H361.035V101.911C361.035 102.217 361.074 102.452 361.152 102.615C361.237 102.777 361.361 102.891 361.523 102.956C361.686 103.015 361.891 103.044 362.139 103.044C362.314 103.044 362.471 103.038 362.607 103.025C362.751 103.005 362.871 102.986 362.969 102.966L362.979 105.036C362.738 105.115 362.477 105.176 362.197 105.222C361.917 105.268 361.608 105.29 361.27 105.29C360.651 105.29 360.111 105.189 359.648 104.988C359.193 104.779 358.841 104.447 358.594 103.992C358.346 103.536 358.223 102.937 358.223 102.195V91.9213ZM370.156 102.712V98.0052C370.156 97.6667 370.101 97.377 369.99 97.1361C369.88 96.8887 369.707 96.6967 369.473 96.5599C369.245 96.4232 368.949 96.3549 368.584 96.3549C368.271 96.3549 368.001 96.4102 367.773 96.5209C367.546 96.625 367.37 96.778 367.246 96.9799C367.122 97.1752 367.061 97.4063 367.061 97.6732H364.248C364.248 97.224 364.352 96.7976 364.561 96.3939C364.769 95.9903 365.072 95.6355 365.469 95.3295C365.866 95.017 366.338 94.7728 366.885 94.597C367.438 94.4213 368.057 94.3334 368.74 94.3334C369.561 94.3334 370.29 94.4701 370.928 94.7435C371.566 95.017 372.067 95.4271 372.432 95.974C372.803 96.5209 372.988 97.2045 372.988 98.0248V102.546C372.988 103.126 373.024 103.601 373.096 103.972C373.167 104.337 373.271 104.656 373.408 104.929V105.095H370.566C370.43 104.809 370.326 104.451 370.254 104.021C370.189 103.585 370.156 103.148 370.156 102.712ZM370.527 98.6595L370.547 100.251H368.975C368.604 100.251 368.281 100.294 368.008 100.378C367.734 100.463 367.51 100.583 367.334 100.74C367.158 100.889 367.028 101.065 366.943 101.267C366.865 101.469 366.826 101.69 366.826 101.931C366.826 102.172 366.882 102.39 366.992 102.585C367.103 102.774 367.262 102.924 367.471 103.035C367.679 103.139 367.923 103.191 368.203 103.191C368.626 103.191 368.994 103.106 369.307 102.937C369.619 102.768 369.86 102.559 370.029 102.312C370.205 102.064 370.296 101.83 370.303 101.609L371.045 102.8C370.941 103.067 370.798 103.344 370.615 103.63C370.439 103.917 370.215 104.187 369.941 104.441C369.668 104.688 369.339 104.893 368.955 105.056C368.571 105.212 368.115 105.29 367.588 105.29C366.917 105.29 366.309 105.157 365.762 104.89C365.221 104.617 364.792 104.242 364.473 103.767C364.16 103.285 364.004 102.738 364.004 102.126C364.004 101.573 364.108 101.081 364.316 100.652C364.525 100.222 364.831 99.8607 365.234 99.5677C365.645 99.2683 366.156 99.0437 366.768 98.8939C367.38 98.7377 368.089 98.6595 368.896 98.6595H370.527ZM377.91 96.7845V105.095H375.098V94.5287H377.734L377.91 96.7845ZM377.5 99.4408H376.738C376.738 98.6595 376.839 97.9564 377.041 97.3314C377.243 96.6999 377.526 96.1628 377.891 95.7201C378.255 95.2709 378.688 94.9291 379.189 94.6947C379.697 94.4538 380.264 94.3334 380.889 94.3334C381.383 94.3334 381.836 94.405 382.246 94.5482C382.656 94.6914 383.008 94.9193 383.301 95.2318C383.6 95.5443 383.828 95.9577 383.984 96.472C384.147 96.9864 384.229 97.6146 384.229 98.3568V105.095H381.396V98.347C381.396 97.8783 381.331 97.5137 381.201 97.2533C381.071 96.9929 380.879 96.8106 380.625 96.7064C380.378 96.5957 380.072 96.5404 379.707 96.5404C379.329 96.5404 379.001 96.6153 378.721 96.765C378.447 96.9148 378.219 97.1231 378.037 97.39C377.861 97.6504 377.728 97.9564 377.637 98.308C377.546 98.6595 377.5 99.0372 377.5 99.4408ZM390.732 103.093C391.077 103.093 391.383 103.028 391.65 102.898C391.917 102.761 392.126 102.572 392.275 102.331C392.432 102.084 392.513 101.794 392.52 101.462H395.166C395.16 102.204 394.961 102.865 394.57 103.445C394.18 104.018 393.656 104.47 392.998 104.802C392.34 105.128 391.605 105.29 390.791 105.29C389.971 105.29 389.255 105.154 388.643 104.88C388.037 104.607 387.533 104.229 387.129 103.747C386.725 103.259 386.423 102.693 386.221 102.048C386.019 101.397 385.918 100.701 385.918 99.9584V99.6752C385.918 98.9265 386.019 98.2299 386.221 97.5853C386.423 96.9343 386.725 96.3679 387.129 95.8861C387.533 95.3978 388.037 95.017 388.643 94.7435C389.248 94.4701 389.958 94.3334 390.771 94.3334C391.637 94.3334 392.396 94.4994 393.047 94.8314C393.704 95.1635 394.219 95.6387 394.59 96.2572C394.967 96.8692 395.16 97.5951 395.166 98.4349H392.52C392.513 98.0834 392.438 97.7644 392.295 97.4779C392.158 97.1914 391.956 96.9636 391.689 96.7943C391.429 96.6185 391.107 96.5306 390.723 96.5306C390.312 96.5306 389.977 96.6185 389.717 96.7943C389.456 96.9636 389.255 97.198 389.111 97.4974C388.968 97.7904 388.867 98.1257 388.809 98.5033C388.757 98.8744 388.73 99.265 388.73 99.6752V99.9584C388.73 100.369 388.757 100.762 388.809 101.14C388.861 101.518 388.958 101.853 389.102 102.146C389.251 102.439 389.456 102.67 389.717 102.839C389.977 103.009 390.316 103.093 390.732 103.093ZM399.932 103.904L402.734 94.5287H405.752L401.504 106.687C401.413 106.954 401.289 107.24 401.133 107.546C400.983 107.852 400.778 108.142 400.518 108.415C400.264 108.695 399.941 108.923 399.551 109.099C399.167 109.275 398.695 109.363 398.135 109.363C397.868 109.363 397.65 109.346 397.48 109.314C397.311 109.281 397.109 109.236 396.875 109.177V107.117C396.947 107.117 397.021 107.117 397.1 107.117C397.178 107.123 397.253 107.126 397.324 107.126C397.695 107.126 397.998 107.084 398.232 106.999C398.467 106.915 398.656 106.785 398.799 106.609C398.942 106.439 399.056 106.218 399.141 105.945L399.932 103.904ZM398.76 94.5287L401.055 102.185L401.455 105.163L399.541 105.369L395.742 94.5287H398.76Z" fill="url(#paint7_linear_553_2922)"/>
<path d="M250.933 101.12C249.689 98.9627 249.689 96.3067 250.933 94.1491L297.45 13.5806C298.694 11.4231 300.995 10.0951 303.487 10.0951H396.513C399.005 10.0951 401.306 11.4231 402.55 13.5806L449.067 94.1491C450.311 96.3067 450.311 98.9627 449.067 101.12L402.55 181.689C401.306 183.846 399.005 185.174 396.513 185.174H303.487C300.995 185.174 298.694 183.846 297.45 181.689L250.933 101.12Z" stroke="url(#paint8_linear_553_2922)" stroke-width="20"/>
<path d="M63.6992 334.876V349.095H60.7793V334.876H63.6992ZM68.0742 334.876V337.171H56.4727V334.876H68.0742ZM73.5137 349.29C72.6934 349.29 71.9577 349.16 71.3066 348.9C70.6556 348.633 70.1022 348.265 69.6465 347.796C69.1973 347.328 68.8522 346.784 68.6113 346.165C68.3704 345.54 68.25 344.876 68.25 344.173V343.783C68.25 342.982 68.3639 342.249 68.5918 341.585C68.8197 340.921 69.1452 340.345 69.5684 339.857C69.998 339.369 70.5189 338.994 71.1309 338.734C71.7428 338.467 72.4329 338.333 73.2012 338.333C73.9499 338.333 74.6139 338.457 75.1934 338.704C75.7728 338.952 76.2578 339.303 76.6484 339.759C77.0456 340.215 77.3451 340.762 77.5469 341.4C77.7487 342.031 77.8496 342.734 77.8496 343.509V344.681H69.4512V342.806H75.0859V342.591C75.0859 342.201 75.0143 341.852 74.8711 341.546C74.7344 341.234 74.526 340.986 74.2461 340.804C73.9661 340.622 73.6081 340.531 73.1719 340.531C72.8008 340.531 72.4818 340.612 72.2148 340.775C71.9479 340.938 71.7298 341.165 71.5605 341.458C71.3978 341.751 71.2741 342.096 71.1895 342.494C71.1113 342.884 71.0723 343.314 71.0723 343.783V344.173C71.0723 344.596 71.1309 344.987 71.248 345.345C71.3717 345.703 71.5443 346.012 71.7656 346.273C71.9935 346.533 72.2669 346.735 72.5859 346.878C72.9115 347.022 73.2793 347.093 73.6895 347.093C74.1973 347.093 74.6693 346.995 75.1055 346.8C75.5482 346.598 75.929 346.296 76.248 345.892L77.6152 347.376C77.3939 347.695 77.0911 348.001 76.707 348.294C76.3294 348.587 75.8737 348.828 75.3398 349.017C74.806 349.199 74.1973 349.29 73.5137 349.29ZM83.8164 347.093C84.1615 347.093 84.4674 347.028 84.7344 346.898C85.0013 346.761 85.2096 346.572 85.3594 346.331C85.5156 346.084 85.597 345.794 85.6035 345.462H88.25C88.2435 346.204 88.0449 346.865 87.6543 347.445C87.2637 348.018 86.7396 348.47 86.082 348.802C85.4245 349.128 84.6888 349.29 83.875 349.29C83.0547 349.29 82.3385 349.154 81.7266 348.88C81.1211 348.607 80.6165 348.229 80.2129 347.747C79.8092 347.259 79.5065 346.693 79.3047 346.048C79.1029 345.397 79.002 344.701 79.002 343.958V343.675C79.002 342.926 79.1029 342.23 79.3047 341.585C79.5065 340.934 79.8092 340.368 80.2129 339.886C80.6165 339.398 81.1211 339.017 81.7266 338.744C82.332 338.47 83.0417 338.333 83.8555 338.333C84.7214 338.333 85.4798 338.499 86.1309 338.831C86.7884 339.163 87.3027 339.639 87.6738 340.257C88.0514 340.869 88.2435 341.595 88.25 342.435H85.6035C85.597 342.083 85.5221 341.764 85.3789 341.478C85.2422 341.191 85.0404 340.964 84.7734 340.794C84.513 340.619 84.1908 340.531 83.8066 340.531C83.3965 340.531 83.0612 340.619 82.8008 340.794C82.5404 340.964 82.3385 341.198 82.1953 341.497C82.0521 341.79 81.9512 342.126 81.8926 342.503C81.8405 342.874 81.8145 343.265 81.8145 343.675V343.958C81.8145 344.369 81.8405 344.762 81.8926 345.14C81.9447 345.518 82.0423 345.853 82.1855 346.146C82.3353 346.439 82.5404 346.67 82.8008 346.839C83.0612 347.009 83.3997 347.093 83.8164 347.093ZM92.625 334.095V349.095H89.8125V334.095H92.625ZM92.2246 343.441H91.4531C91.4596 342.705 91.5573 342.028 91.7461 341.41C91.9349 340.785 92.2051 340.244 92.5566 339.788C92.9082 339.326 93.3281 338.968 93.8164 338.714C94.3112 338.46 94.8581 338.333 95.457 338.333C95.9779 338.333 96.4499 338.408 96.873 338.558C97.3027 338.701 97.6706 338.936 97.9766 339.261C98.2891 339.58 98.5299 340 98.6992 340.521C98.8685 341.042 98.9531 341.673 98.9531 342.415V349.095H96.1211V342.396C96.1211 341.927 96.0527 341.559 95.916 341.292C95.7858 341.019 95.5938 340.827 95.3398 340.716C95.0924 340.599 94.7865 340.54 94.4219 340.54C94.0182 340.54 93.6732 340.615 93.3867 340.765C93.1068 340.915 92.8822 341.123 92.7129 341.39C92.5436 341.65 92.4199 341.956 92.3418 342.308C92.2637 342.66 92.2246 343.037 92.2246 343.441ZM103.846 340.785V349.095H101.033V338.529H103.67L103.846 340.785ZM103.436 343.441H102.674C102.674 342.66 102.775 341.956 102.977 341.331C103.178 340.7 103.462 340.163 103.826 339.72C104.191 339.271 104.624 338.929 105.125 338.695C105.633 338.454 106.199 338.333 106.824 338.333C107.319 338.333 107.771 338.405 108.182 338.548C108.592 338.691 108.943 338.919 109.236 339.232C109.536 339.544 109.764 339.958 109.92 340.472C110.083 340.986 110.164 341.615 110.164 342.357V349.095H107.332V342.347C107.332 341.878 107.267 341.514 107.137 341.253C107.007 340.993 106.814 340.811 106.561 340.706C106.313 340.596 106.007 340.54 105.643 340.54C105.265 340.54 104.936 340.615 104.656 340.765C104.383 340.915 104.155 341.123 103.973 341.39C103.797 341.65 103.663 341.956 103.572 342.308C103.481 342.66 103.436 343.037 103.436 343.441ZM115.271 338.529V349.095H112.449V338.529H115.271ZM112.273 335.775C112.273 335.365 112.417 335.026 112.703 334.759C112.99 334.492 113.374 334.359 113.855 334.359C114.331 334.359 114.712 334.492 114.998 334.759C115.291 335.026 115.438 335.365 115.438 335.775C115.438 336.185 115.291 336.523 114.998 336.79C114.712 337.057 114.331 337.191 113.855 337.191C113.374 337.191 112.99 337.057 112.703 336.79C112.417 336.523 112.273 336.185 112.273 335.775ZM121.961 347.093C122.306 347.093 122.612 347.028 122.879 346.898C123.146 346.761 123.354 346.572 123.504 346.331C123.66 346.084 123.742 345.794 123.748 345.462H126.395C126.388 346.204 126.189 346.865 125.799 347.445C125.408 348.018 124.884 348.47 124.227 348.802C123.569 349.128 122.833 349.29 122.02 349.29C121.199 349.29 120.483 349.154 119.871 348.88C119.266 348.607 118.761 348.229 118.357 347.747C117.954 347.259 117.651 346.693 117.449 346.048C117.247 345.397 117.146 344.701 117.146 343.958V343.675C117.146 342.926 117.247 342.23 117.449 341.585C117.651 340.934 117.954 340.368 118.357 339.886C118.761 339.398 119.266 339.017 119.871 338.744C120.477 338.47 121.186 338.333 122 338.333C122.866 338.333 123.624 338.499 124.275 338.831C124.933 339.163 125.447 339.639 125.818 340.257C126.196 340.869 126.388 341.595 126.395 342.435H123.748C123.742 342.083 123.667 341.764 123.523 341.478C123.387 341.191 123.185 340.964 122.918 340.794C122.658 340.619 122.335 340.531 121.951 340.531C121.541 340.531 121.206 340.619 120.945 340.794C120.685 340.964 120.483 341.198 120.34 341.497C120.197 341.79 120.096 342.126 120.037 342.503C119.985 342.874 119.959 343.265 119.959 343.675V343.958C119.959 344.369 119.985 344.762 120.037 345.14C120.089 345.518 120.187 345.853 120.33 346.146C120.48 346.439 120.685 346.67 120.945 346.839C121.206 347.009 121.544 347.093 121.961 347.093ZM133.729 346.712V342.005C133.729 341.667 133.673 341.377 133.562 341.136C133.452 340.889 133.279 340.697 133.045 340.56C132.817 340.423 132.521 340.355 132.156 340.355C131.844 340.355 131.574 340.41 131.346 340.521C131.118 340.625 130.942 340.778 130.818 340.98C130.695 341.175 130.633 341.406 130.633 341.673H127.82C127.82 341.224 127.924 340.798 128.133 340.394C128.341 339.99 128.644 339.635 129.041 339.329C129.438 339.017 129.91 338.773 130.457 338.597C131.01 338.421 131.629 338.333 132.312 338.333C133.133 338.333 133.862 338.47 134.5 338.744C135.138 339.017 135.639 339.427 136.004 339.974C136.375 340.521 136.561 341.204 136.561 342.025V346.546C136.561 347.126 136.596 347.601 136.668 347.972C136.74 348.337 136.844 348.656 136.98 348.929V349.095H134.139C134.002 348.809 133.898 348.451 133.826 348.021C133.761 347.585 133.729 347.148 133.729 346.712ZM134.1 342.66L134.119 344.251H132.547C132.176 344.251 131.854 344.294 131.58 344.378C131.307 344.463 131.082 344.583 130.906 344.74C130.73 344.889 130.6 345.065 130.516 345.267C130.438 345.469 130.398 345.69 130.398 345.931C130.398 346.172 130.454 346.39 130.564 346.585C130.675 346.774 130.835 346.924 131.043 347.035C131.251 347.139 131.495 347.191 131.775 347.191C132.199 347.191 132.566 347.106 132.879 346.937C133.191 346.768 133.432 346.559 133.602 346.312C133.777 346.064 133.868 345.83 133.875 345.609L134.617 346.8C134.513 347.067 134.37 347.344 134.188 347.63C134.012 347.917 133.787 348.187 133.514 348.441C133.24 348.688 132.911 348.893 132.527 349.056C132.143 349.212 131.688 349.29 131.16 349.29C130.49 349.29 129.881 349.157 129.334 348.89C128.794 348.617 128.364 348.242 128.045 347.767C127.732 347.285 127.576 346.738 127.576 346.126C127.576 345.573 127.68 345.081 127.889 344.652C128.097 344.222 128.403 343.861 128.807 343.568C129.217 343.268 129.728 343.044 130.34 342.894C130.952 342.738 131.661 342.66 132.469 342.66H134.1ZM141.697 334.095V349.095H138.875V334.095H141.697ZM71.375 378.175C71.375 377.973 71.3164 377.791 71.1992 377.628C71.082 377.466 70.8639 377.316 70.5449 377.179C70.2324 377.036 69.7799 376.906 69.1875 376.788C68.6536 376.671 68.1556 376.525 67.6934 376.349C67.2376 376.167 66.8405 375.949 66.502 375.695C66.1699 375.441 65.9095 375.141 65.7207 374.796C65.5319 374.445 65.4375 374.044 65.4375 373.595C65.4375 373.152 65.5319 372.736 65.7207 372.345C65.916 371.954 66.1927 371.609 66.5508 371.31C66.9154 371.004 67.3581 370.766 67.8789 370.597C68.4062 370.421 68.9987 370.333 69.6562 370.333C70.5742 370.333 71.362 370.48 72.0195 370.773C72.6836 371.066 73.1914 371.469 73.543 371.984C73.901 372.492 74.0801 373.071 74.0801 373.722H71.2676C71.2676 373.449 71.209 373.204 71.0918 372.99C70.9811 372.768 70.8053 372.596 70.5645 372.472C70.3301 372.342 70.0241 372.277 69.6465 372.277C69.334 372.277 69.0638 372.332 68.8359 372.443C68.6081 372.547 68.4323 372.69 68.3086 372.872C68.1914 373.048 68.1328 373.244 68.1328 373.458C68.1328 373.621 68.1654 373.768 68.2305 373.898C68.3021 374.022 68.416 374.135 68.5723 374.24C68.7285 374.344 68.9303 374.441 69.1777 374.533C69.4316 374.617 69.7441 374.695 70.1152 374.767C70.877 374.923 71.5573 375.128 72.1562 375.382C72.7552 375.63 73.2305 375.968 73.582 376.398C73.9336 376.821 74.1094 377.378 74.1094 378.068C74.1094 378.536 74.0052 378.966 73.7969 379.357C73.5885 379.747 73.2891 380.089 72.8984 380.382C72.5078 380.669 72.0391 380.893 71.4922 381.056C70.9518 381.212 70.3431 381.29 69.666 381.29C68.6829 381.29 67.8496 381.115 67.166 380.763C66.4889 380.411 65.9746 379.966 65.623 379.425C65.278 378.878 65.1055 378.318 65.1055 377.745H67.7715C67.7845 378.13 67.8822 378.439 68.0645 378.673C68.2533 378.908 68.4909 379.077 68.7773 379.181C69.0703 379.285 69.3861 379.337 69.7246 379.337C70.0892 379.337 70.3919 379.288 70.6328 379.191C70.8737 379.087 71.056 378.95 71.1797 378.781C71.3099 378.605 71.375 378.403 71.375 378.175ZM82.1855 378.566V370.529H84.998V381.095H82.3516L82.1855 378.566ZM82.498 376.398L83.3281 376.378C83.3281 377.081 83.2467 377.736 83.084 378.341C82.9212 378.94 82.6771 379.461 82.3516 379.904C82.026 380.34 81.6159 380.682 81.1211 380.929C80.6263 381.17 80.0436 381.29 79.373 381.29C78.8587 381.29 78.3835 381.219 77.9473 381.076C77.5176 380.926 77.1465 380.695 76.834 380.382C76.528 380.063 76.2871 379.656 76.1113 379.161C75.9421 378.66 75.8574 378.058 75.8574 377.355V370.529H78.6699V377.374C78.6699 377.687 78.7057 377.951 78.7773 378.165C78.8555 378.38 78.9629 378.556 79.0996 378.693C79.2363 378.829 79.3958 378.927 79.5781 378.986C79.7669 379.044 79.9753 379.074 80.2031 379.074C80.7826 379.074 81.2383 378.956 81.5703 378.722C81.9089 378.488 82.1465 378.169 82.2832 377.765C82.4264 377.355 82.498 376.899 82.498 376.398ZM89.959 372.56V385.158H87.1465V370.529H89.7539L89.959 372.56ZM96.6484 375.695V375.9C96.6484 376.668 96.5573 377.381 96.375 378.038C96.1992 378.696 95.9388 379.269 95.5938 379.757C95.2487 380.239 94.819 380.617 94.3047 380.89C93.7969 381.157 93.2109 381.29 92.5469 381.29C91.9023 381.29 91.3424 381.16 90.8672 380.9C90.3919 380.639 89.9915 380.275 89.666 379.806C89.347 379.331 89.0898 378.781 88.8945 378.156C88.6992 377.531 88.5495 376.86 88.4453 376.144V375.607C88.5495 374.839 88.6992 374.135 88.8945 373.497C89.0898 372.853 89.347 372.296 89.666 371.828C89.9915 371.352 90.3887 370.984 90.8574 370.724C91.3327 370.464 91.8893 370.333 92.5273 370.333C93.1979 370.333 93.7871 370.46 94.2949 370.714C94.8092 370.968 95.2389 371.333 95.584 371.808C95.9355 372.283 96.1992 372.85 96.375 373.507C96.5573 374.165 96.6484 374.894 96.6484 375.695ZM93.8262 375.9V375.695C93.8262 375.245 93.7871 374.832 93.709 374.454C93.6374 374.07 93.5202 373.735 93.3574 373.449C93.2012 373.162 92.9928 372.941 92.7324 372.785C92.4785 372.622 92.1693 372.54 91.8047 372.54C91.4206 372.54 91.0918 372.602 90.8184 372.726C90.5514 372.85 90.3333 373.029 90.1641 373.263C89.9948 373.497 89.8678 373.777 89.7832 374.103C89.6986 374.428 89.6465 374.796 89.627 375.206V376.564C89.6595 377.046 89.7507 377.479 89.9004 377.863C90.0501 378.24 90.2812 378.54 90.5938 378.761C90.9062 378.982 91.3164 379.093 91.8242 379.093C92.1953 379.093 92.5078 379.012 92.7617 378.849C93.0156 378.68 93.2207 378.449 93.377 378.156C93.5397 377.863 93.6536 377.524 93.7188 377.14C93.7904 376.756 93.8262 376.342 93.8262 375.9ZM101.209 372.56V385.158H98.3965V370.529H101.004L101.209 372.56ZM107.898 375.695V375.9C107.898 376.668 107.807 377.381 107.625 378.038C107.449 378.696 107.189 379.269 106.844 379.757C106.499 380.239 106.069 380.617 105.555 380.89C105.047 381.157 104.461 381.29 103.797 381.29C103.152 381.29 102.592 381.16 102.117 380.9C101.642 380.639 101.242 380.275 100.916 379.806C100.597 379.331 100.34 378.781 100.145 378.156C99.9492 377.531 99.7995 376.86 99.6953 376.144V375.607C99.7995 374.839 99.9492 374.135 100.145 373.497C100.34 372.853 100.597 372.296 100.916 371.828C101.242 371.352 101.639 370.984 102.107 370.724C102.583 370.464 103.139 370.333 103.777 370.333C104.448 370.333 105.037 370.46 105.545 370.714C106.059 370.968 106.489 371.333 106.834 371.808C107.186 372.283 107.449 372.85 107.625 373.507C107.807 374.165 107.898 374.894 107.898 375.695ZM105.076 375.9V375.695C105.076 375.245 105.037 374.832 104.959 374.454C104.887 374.07 104.77 373.735 104.607 373.449C104.451 373.162 104.243 372.941 103.982 372.785C103.729 372.622 103.419 372.54 103.055 372.54C102.671 372.54 102.342 372.602 102.068 372.726C101.801 372.85 101.583 373.029 101.414 373.263C101.245 373.497 101.118 373.777 101.033 374.103C100.949 374.428 100.896 374.796 100.877 375.206V376.564C100.91 377.046 101.001 377.479 101.15 377.863C101.3 378.24 101.531 378.54 101.844 378.761C102.156 378.982 102.566 379.093 103.074 379.093C103.445 379.093 103.758 379.012 104.012 378.849C104.266 378.68 104.471 378.449 104.627 378.156C104.79 377.863 104.904 377.524 104.969 377.14C105.04 376.756 105.076 376.342 105.076 375.9ZM109.197 375.919V375.714C109.197 374.939 109.308 374.227 109.529 373.576C109.751 372.918 110.073 372.348 110.496 371.867C110.919 371.385 111.44 371.01 112.059 370.744C112.677 370.47 113.387 370.333 114.188 370.333C114.988 370.333 115.701 370.47 116.326 370.744C116.951 371.01 117.475 371.385 117.898 371.867C118.328 372.348 118.654 372.918 118.875 373.576C119.096 374.227 119.207 374.939 119.207 375.714V375.919C119.207 376.688 119.096 377.4 118.875 378.058C118.654 378.709 118.328 379.279 117.898 379.767C117.475 380.249 116.954 380.623 116.336 380.89C115.717 381.157 115.008 381.29 114.207 381.29C113.406 381.29 112.693 381.157 112.068 380.89C111.45 380.623 110.926 380.249 110.496 379.767C110.073 379.279 109.751 378.709 109.529 378.058C109.308 377.4 109.197 376.688 109.197 375.919ZM112.01 375.714V375.919C112.01 376.362 112.049 376.775 112.127 377.16C112.205 377.544 112.329 377.882 112.498 378.175C112.674 378.462 112.902 378.686 113.182 378.849C113.462 379.012 113.803 379.093 114.207 379.093C114.598 379.093 114.933 379.012 115.213 378.849C115.493 378.686 115.717 378.462 115.887 378.175C116.056 377.882 116.18 377.544 116.258 377.16C116.342 376.775 116.385 376.362 116.385 375.919V375.714C116.385 375.285 116.342 374.881 116.258 374.503C116.18 374.119 116.053 373.781 115.877 373.488C115.708 373.188 115.483 372.954 115.203 372.785C114.923 372.615 114.585 372.531 114.188 372.531C113.79 372.531 113.452 372.615 113.172 372.785C112.898 372.954 112.674 373.188 112.498 373.488C112.329 373.781 112.205 374.119 112.127 374.503C112.049 374.881 112.01 375.285 112.01 375.714ZM123.748 372.833V381.095H120.936V370.529H123.582L123.748 372.833ZM126.932 370.46L126.883 373.068C126.746 373.048 126.58 373.032 126.385 373.019C126.196 372.999 126.023 372.99 125.867 372.99C125.47 372.99 125.125 373.042 124.832 373.146C124.546 373.244 124.305 373.39 124.109 373.585C123.921 373.781 123.777 374.018 123.68 374.298C123.589 374.578 123.536 374.897 123.523 375.255L122.957 375.079C122.957 374.396 123.025 373.768 123.162 373.195C123.299 372.615 123.497 372.111 123.758 371.681C124.025 371.251 124.35 370.919 124.734 370.685C125.118 370.451 125.558 370.333 126.053 370.333C126.209 370.333 126.368 370.346 126.531 370.372C126.694 370.392 126.827 370.421 126.932 370.46ZM133.924 370.529V372.521H127.771V370.529H133.924ZM129.295 367.921H132.107V377.911C132.107 378.217 132.146 378.452 132.225 378.615C132.309 378.777 132.433 378.891 132.596 378.956C132.758 379.015 132.964 379.044 133.211 379.044C133.387 379.044 133.543 379.038 133.68 379.025C133.823 379.005 133.943 378.986 134.041 378.966L134.051 381.036C133.81 381.115 133.549 381.176 133.27 381.222C132.99 381.268 132.68 381.29 132.342 381.29C131.723 381.29 131.183 381.189 130.721 380.988C130.265 380.779 129.913 380.447 129.666 379.992C129.419 379.536 129.295 378.937 129.295 378.195V367.921Z" fill="url(#paint9_linear_553_2922)"/>
<path d="M10.8399 361.018C9.72003 359.076 9.72003 356.686 10.8399 354.744L52.705 282.232C53.8248 280.29 55.8952 279.095 58.1381 279.095H141.862C144.105 279.095 146.175 280.29 147.295 282.232L189.16 354.744C190.28 356.686 190.28 359.076 189.16 361.018L147.295 433.529C146.175 435.471 144.105 436.666 141.862 436.666H58.1381C55.8952 436.666 53.8248 435.471 52.705 433.529L10.8399 361.018Z" stroke="url(#paint10_linear_553_2922)" stroke-width="20"/>
<defs>
<linearGradient id="paint0_linear_553_2922" x1="618.354" y1="398.686" x2="666.835" y2="453.136" gradientUnits="userSpaceOnUse">
<stop stop-color="#15E768"/>
<stop offset="1" stop-color="#8B15E7"/>
</linearGradient>
<linearGradient id="paint1_linear_553_2922" x1="555.53" y1="334.481" x2="628.252" y2="416.157" gradientUnits="userSpaceOnUse">
<stop stop-color="#15E768"/>
<stop offset="1" stop-color="#8B15E7"/>
</linearGradient>
<linearGradient id="paint2_linear_553_2922" x1="461.796" y1="237.175" x2="570.878" y2="359.687" gradientUnits="userSpaceOnUse">
<stop stop-color="#15E768"/>
<stop offset="1" stop-color="#8B15E7"/>
</linearGradient>
<linearGradient id="paint3_linear_553_2922" x1="488.562" y1="618.913" x2="505.468" y2="695.266" gradientUnits="userSpaceOnUse">
<stop stop-color="#15E768"/>
<stop offset="1" stop-color="#8B15E7"/>
</linearGradient>
<linearGradient id="paint4_linear_553_2922" x1="535" y1="899.025" x2="535" y2="388.887" gradientUnits="userSpaceOnUse">
<stop stop-color="#15E768"/>
<stop offset="1" stop-color="#8B15E7"/>
</linearGradient>
<linearGradient id="paint5_linear_553_2922" x1="785.803" y1="334.913" x2="801.817" y2="411.668" gradientUnits="userSpaceOnUse">
<stop stop-color="#15E768"/>
<stop offset="1" stop-color="#8B15E7"/>
</linearGradient>
<linearGradient id="paint6_linear_553_2922" x1="1098.17" y1="361.191" x2="577.191" y2="361.191" gradientUnits="userSpaceOnUse">
<stop stop-color="#15E768"/>
<stop offset="1" stop-color="#8B15E7"/>
</linearGradient>
<linearGradient id="paint7_linear_553_2922" x1="307.5" y1="71.9133" x2="325.631" y2="147.67" gradientUnits="userSpaceOnUse">
<stop stop-color="#15E768"/>
<stop offset="1" stop-color="#8B15E7"/>
</linearGradient>
<linearGradient id="paint8_linear_553_2922" x1="350" y1="-89.3082" x2="350" y2="333.291" gradientUnits="userSpaceOnUse">
<stop stop-color="#15E768"/>
<stop offset="1" stop-color="#8B15E7"/>
</linearGradient>
<linearGradient id="paint9_linear_553_2922" x1="72.3125" y1="305.731" x2="149.154" y2="408.427" gradientUnits="userSpaceOnUse">
<stop stop-color="#15E768"/>
<stop offset="1" stop-color="#8B15E7"/>
</linearGradient>
<linearGradient id="paint10_linear_553_2922" x1="-101.259" y1="357.719" x2="330.121" y2="357.719" gradientUnits="userSpaceOnUse">
<stop stop-color="#15E768"/>
<stop offset="1" stop-color="#8B15E7"/>
</linearGradient>
</defs>
</svg>
