<svg width="955" height="761" viewBox="0 0 955 761" fill="none" xmlns="http://www.w3.org/2000/svg">
<path d="M268.686 393.164V428H261.532V393.164H268.686ZM279.405 393.164V398.787H250.981V393.164H279.405ZM306.872 422.401V428H288.329V422.401H306.872ZM290.674 393.164V428H283.496V393.164H290.674ZM304.455 407.352V412.807H288.329V407.352H304.455ZM306.848 393.164V398.787H288.329V393.164H306.848ZM331.252 416.444H338.406C338.262 418.789 337.616 420.87 336.468 422.688C335.335 424.507 333.748 425.926 331.707 426.947C329.681 427.968 327.24 428.479 324.385 428.479C322.152 428.479 320.15 428.096 318.38 427.33C316.609 426.549 315.094 425.432 313.834 423.98C312.59 422.529 311.641 420.774 310.987 418.717C310.333 416.659 310.006 414.354 310.006 411.802V409.386C310.006 406.834 310.341 404.529 311.011 402.471C311.697 400.398 312.67 398.635 313.93 397.184C315.206 395.732 316.729 394.616 318.5 393.834C320.27 393.052 322.248 392.662 324.433 392.662C327.336 392.662 329.785 393.188 331.778 394.241C333.788 395.293 335.343 396.745 336.444 398.595C337.56 400.445 338.23 402.551 338.454 404.912H331.276C331.196 403.508 330.917 402.32 330.438 401.347C329.96 400.358 329.234 399.616 328.261 399.122C327.304 398.611 326.028 398.356 324.433 398.356C323.237 398.356 322.192 398.579 321.299 399.026C320.406 399.472 319.656 400.15 319.05 401.06C318.444 401.969 317.989 403.117 317.686 404.505C317.399 405.877 317.255 407.488 317.255 409.338V411.802C317.255 413.605 317.391 415.192 317.662 416.563C317.933 417.919 318.348 419.068 318.906 420.009C319.48 420.934 320.214 421.636 321.107 422.114C322.017 422.577 323.109 422.808 324.385 422.808C325.885 422.808 327.121 422.569 328.094 422.09C329.067 421.612 329.808 420.902 330.319 419.961C330.845 419.02 331.156 417.847 331.252 416.444ZM371.471 393.164V428H364.293L350.297 404.648V428H343.119V393.164H350.297L364.317 416.54V393.164H371.471ZM406.331 409.769V411.419C406.331 414.067 405.972 416.444 405.254 418.549C404.537 420.655 403.524 422.449 402.216 423.933C400.908 425.4 399.345 426.525 397.526 427.306C395.724 428.088 393.722 428.479 391.521 428.479C389.336 428.479 387.334 428.088 385.516 427.306C383.713 426.525 382.15 425.4 380.826 423.933C379.502 422.449 378.473 420.655 377.74 418.549C377.022 416.444 376.663 414.067 376.663 411.419V409.769C376.663 407.105 377.022 404.728 377.74 402.639C378.458 400.533 379.47 398.739 380.778 397.255C382.102 395.772 383.665 394.639 385.468 393.858C387.286 393.076 389.288 392.686 391.473 392.686C393.674 392.686 395.676 393.076 397.479 393.858C399.297 394.639 400.86 395.772 402.168 397.255C403.492 398.739 404.513 400.533 405.23 402.639C405.964 404.728 406.331 407.105 406.331 409.769ZM399.082 411.419V409.721C399.082 407.87 398.914 406.243 398.579 404.84C398.244 403.436 397.75 402.256 397.096 401.299C396.442 400.342 395.644 399.624 394.703 399.146C393.762 398.651 392.685 398.404 391.473 398.404C390.261 398.404 389.184 398.651 388.243 399.146C387.318 399.624 386.528 400.342 385.875 401.299C385.236 402.256 384.75 403.436 384.415 404.84C384.08 406.243 383.913 407.87 383.913 409.721V411.419C383.913 413.254 384.08 414.881 384.415 416.3C384.75 417.704 385.244 418.892 385.898 419.865C386.552 420.822 387.35 421.548 388.291 422.042C389.232 422.537 390.309 422.784 391.521 422.784C392.733 422.784 393.81 422.537 394.751 422.042C395.692 421.548 396.482 420.822 397.12 419.865C397.758 418.892 398.244 417.704 398.579 416.3C398.914 414.881 399.082 413.254 399.082 411.419ZM433.894 422.401V428H416.356V422.401H433.894ZM418.677 393.164V428H411.499V393.164H418.677ZM465.045 409.769V411.419C465.045 414.067 464.686 416.444 463.968 418.549C463.25 420.655 462.238 422.449 460.93 423.933C459.622 425.4 458.059 426.525 456.24 427.306C454.438 428.088 452.436 428.479 450.235 428.479C448.05 428.479 446.048 428.088 444.229 427.306C442.427 426.525 440.864 425.4 439.54 423.933C438.216 422.449 437.187 420.655 436.454 418.549C435.736 416.444 435.377 414.067 435.377 411.419V409.769C435.377 407.105 435.736 404.728 436.454 402.639C437.171 400.533 438.184 398.739 439.492 397.255C440.816 395.772 442.379 394.639 444.182 393.858C446 393.076 448.002 392.686 450.187 392.686C452.388 392.686 454.39 393.076 456.192 393.858C458.011 394.639 459.574 395.772 460.882 397.255C462.206 398.739 463.227 400.533 463.944 402.639C464.678 404.728 465.045 407.105 465.045 409.769ZM457.795 411.419V409.721C457.795 407.87 457.628 406.243 457.293 404.84C456.958 403.436 456.464 402.256 455.81 401.299C455.156 400.342 454.358 399.624 453.417 399.146C452.476 398.651 451.399 398.404 450.187 398.404C448.975 398.404 447.898 398.651 446.957 399.146C446.032 399.624 445.242 400.342 444.588 401.299C443.95 402.256 443.464 403.436 443.129 404.84C442.794 406.243 442.626 407.87 442.626 409.721V411.419C442.626 413.254 442.794 414.881 443.129 416.3C443.464 417.704 443.958 418.892 444.612 419.865C445.266 420.822 446.064 421.548 447.005 422.042C447.946 422.537 449.023 422.784 450.235 422.784C451.447 422.784 452.524 422.537 453.465 422.042C454.406 421.548 455.195 420.822 455.833 419.865C456.472 418.892 456.958 417.704 457.293 416.3C457.628 414.881 457.795 413.254 457.795 411.419ZM497.823 409.792V423.598C497.281 424.252 496.444 424.961 495.311 425.727C494.179 426.477 492.719 427.123 490.933 427.665C489.146 428.207 486.985 428.479 484.449 428.479C482.2 428.479 480.15 428.112 478.3 427.378C476.45 426.628 474.854 425.536 473.515 424.1C472.191 422.665 471.17 420.91 470.452 418.836C469.734 416.747 469.375 414.362 469.375 411.683V409.505C469.375 406.826 469.718 404.441 470.404 402.352C471.106 400.262 472.103 398.5 473.395 397.064C474.687 395.628 476.226 394.536 478.013 393.786C479.799 393.036 481.785 392.662 483.97 392.662C487.001 392.662 489.489 393.156 491.435 394.145C493.381 395.118 494.864 396.474 495.885 398.212C496.922 399.935 497.56 401.913 497.799 404.146H490.837C490.661 402.966 490.326 401.937 489.832 401.06C489.338 400.182 488.628 399.496 487.703 399.002C486.793 398.507 485.613 398.26 484.162 398.26C482.965 398.26 481.897 398.507 480.956 399.002C480.03 399.48 479.249 400.19 478.611 401.131C477.973 402.072 477.486 403.237 477.151 404.625C476.816 406.012 476.649 407.623 476.649 409.458V411.683C476.649 413.501 476.824 415.112 477.175 416.516C477.526 417.903 478.045 419.076 478.73 420.033C479.432 420.974 480.294 421.684 481.314 422.162C482.335 422.641 483.524 422.88 484.879 422.88C486.012 422.88 486.953 422.784 487.703 422.593C488.468 422.401 489.082 422.17 489.545 421.899C490.023 421.612 490.39 421.341 490.646 421.085V414.913H484.09V409.792H497.823ZM511.246 393.164V428H504.092V393.164H511.246ZM532.563 399.122L523.089 428H515.457L528.4 393.164H533.257L532.563 399.122ZM540.435 428L530.937 399.122L530.171 393.164H535.076L548.091 428H540.435ZM540.004 415.032V420.655H521.605V415.032H540.004Z" fill="black"/>
<path d="M610.208 431.276C609.931 430.796 609.931 430.204 610.208 429.724L620.57 411.776C620.847 411.296 621.36 411 621.915 411H642.638C643.193 411 643.705 411.296 643.983 411.776L654.345 429.724C654.622 430.204 654.622 430.796 654.345 431.276L643.983 449.224C643.705 449.704 643.193 450 642.638 450H621.915C621.36 450 620.847 449.704 620.57 449.224L610.208 431.276Z" fill="url(#paint0_linear_478_2854)"/>
<path d="M543.312 383.415C542.896 382.694 542.896 381.806 543.312 381.085L558.855 354.165C559.271 353.444 560.04 353 560.872 353H591.957C592.789 353 593.558 353.444 593.974 354.165L609.517 381.085C609.933 381.806 609.933 382.694 609.517 383.415L593.974 410.335C593.558 411.056 592.789 411.5 591.957 411.5H560.872C560.04 411.5 559.271 411.056 558.855 410.335L543.312 383.415Z" fill="url(#paint1_linear_478_2854)"/>
<path d="M443.468 310.622C442.844 309.541 442.844 308.209 443.468 307.128L466.783 266.747C467.406 265.666 468.559 265 469.808 265H516.435C517.684 265 518.837 265.666 519.461 266.747L542.776 307.128C543.399 308.209 543.399 309.541 542.776 310.622L519.461 351.003C518.837 352.084 517.684 352.75 516.435 352.75H469.808C468.559 352.75 467.406 352.084 466.783 351.003L443.468 310.622Z" fill="url(#paint2_linear_478_2854)"/>
<path d="M478.465 644.568V650.203C478.243 650.47 477.902 650.76 477.439 651.072C476.977 651.378 476.382 651.642 475.652 651.863C474.923 652.085 474.041 652.195 473.006 652.195C472.088 652.195 471.251 652.046 470.496 651.746C469.741 651.44 469.09 650.994 468.543 650.408C468.003 649.822 467.586 649.106 467.293 648.26C467 647.407 466.854 646.434 466.854 645.34V644.451C466.854 643.357 466.993 642.384 467.273 641.531C467.56 640.678 467.967 639.959 468.494 639.373C469.021 638.787 469.65 638.341 470.379 638.035C471.108 637.729 471.919 637.576 472.811 637.576C474.048 637.576 475.063 637.778 475.857 638.182C476.652 638.579 477.257 639.132 477.674 639.842C478.097 640.545 478.357 641.352 478.455 642.264H475.613C475.542 641.782 475.405 641.362 475.203 641.004C475.001 640.646 474.712 640.366 474.334 640.164C473.963 639.962 473.481 639.861 472.889 639.861C472.4 639.861 471.964 639.962 471.58 640.164C471.202 640.359 470.883 640.649 470.623 641.033C470.363 641.417 470.164 641.893 470.027 642.459C469.891 643.025 469.822 643.683 469.822 644.432V645.34C469.822 646.082 469.894 646.74 470.037 647.312C470.18 647.879 470.392 648.357 470.672 648.748C470.958 649.132 471.31 649.422 471.727 649.617C472.143 649.812 472.628 649.91 473.182 649.91C473.644 649.91 474.028 649.871 474.334 649.793C474.646 649.715 474.897 649.62 475.086 649.51C475.281 649.393 475.431 649.282 475.535 649.178V646.658H472.859V644.568H478.465ZM485.516 652.195C484.695 652.195 483.96 652.065 483.309 651.805C482.658 651.538 482.104 651.17 481.648 650.701C481.199 650.232 480.854 649.689 480.613 649.07C480.372 648.445 480.252 647.781 480.252 647.078V646.688C480.252 645.887 480.366 645.154 480.594 644.49C480.822 643.826 481.147 643.25 481.57 642.762C482 642.273 482.521 641.899 483.133 641.639C483.745 641.372 484.435 641.238 485.203 641.238C485.952 641.238 486.616 641.362 487.195 641.609C487.775 641.857 488.26 642.208 488.65 642.664C489.048 643.12 489.347 643.667 489.549 644.305C489.751 644.936 489.852 645.639 489.852 646.414V647.586H481.453V645.711H487.088V645.496C487.088 645.105 487.016 644.757 486.873 644.451C486.736 644.139 486.528 643.891 486.248 643.709C485.968 643.527 485.61 643.436 485.174 643.436C484.803 643.436 484.484 643.517 484.217 643.68C483.95 643.842 483.732 644.07 483.562 644.363C483.4 644.656 483.276 645.001 483.191 645.398C483.113 645.789 483.074 646.219 483.074 646.688V647.078C483.074 647.501 483.133 647.892 483.25 648.25C483.374 648.608 483.546 648.917 483.768 649.178C483.995 649.438 484.269 649.64 484.588 649.783C484.913 649.926 485.281 649.998 485.691 649.998C486.199 649.998 486.671 649.9 487.107 649.705C487.55 649.503 487.931 649.201 488.25 648.797L489.617 650.281C489.396 650.6 489.093 650.906 488.709 651.199C488.331 651.492 487.876 651.733 487.342 651.922C486.808 652.104 486.199 652.195 485.516 652.195ZM494.266 643.738V652H491.453V641.434H494.1L494.266 643.738ZM497.449 641.365L497.4 643.973C497.264 643.953 497.098 643.937 496.902 643.924C496.714 643.904 496.541 643.895 496.385 643.895C495.988 643.895 495.643 643.947 495.35 644.051C495.063 644.148 494.822 644.295 494.627 644.49C494.438 644.686 494.295 644.923 494.197 645.203C494.106 645.483 494.054 645.802 494.041 646.16L493.475 645.984C493.475 645.301 493.543 644.673 493.68 644.1C493.816 643.52 494.015 643.016 494.275 642.586C494.542 642.156 494.868 641.824 495.252 641.59C495.636 641.355 496.076 641.238 496.57 641.238C496.727 641.238 496.886 641.251 497.049 641.277C497.212 641.297 497.345 641.326 497.449 641.365ZM503.445 652.195C502.625 652.195 501.889 652.065 501.238 651.805C500.587 651.538 500.034 651.17 499.578 650.701C499.129 650.232 498.784 649.689 498.543 649.07C498.302 648.445 498.182 647.781 498.182 647.078V646.688C498.182 645.887 498.296 645.154 498.523 644.49C498.751 643.826 499.077 643.25 499.5 642.762C499.93 642.273 500.451 641.899 501.062 641.639C501.674 641.372 502.365 641.238 503.133 641.238C503.882 641.238 504.546 641.362 505.125 641.609C505.704 641.857 506.189 642.208 506.58 642.664C506.977 643.12 507.277 643.667 507.479 644.305C507.68 644.936 507.781 645.639 507.781 646.414V647.586H499.383V645.711H505.018V645.496C505.018 645.105 504.946 644.757 504.803 644.451C504.666 644.139 504.458 643.891 504.178 643.709C503.898 643.527 503.54 643.436 503.104 643.436C502.732 643.436 502.413 643.517 502.146 643.68C501.88 643.842 501.661 644.07 501.492 644.363C501.329 644.656 501.206 645.001 501.121 645.398C501.043 645.789 501.004 646.219 501.004 646.688V647.078C501.004 647.501 501.062 647.892 501.18 648.25C501.303 648.608 501.476 648.917 501.697 649.178C501.925 649.438 502.199 649.64 502.518 649.783C502.843 649.926 503.211 649.998 503.621 649.998C504.129 649.998 504.601 649.9 505.037 649.705C505.48 649.503 505.861 649.201 506.18 648.797L507.547 650.281C507.326 650.6 507.023 650.906 506.639 651.199C506.261 651.492 505.805 651.733 505.271 651.922C504.738 652.104 504.129 652.195 503.445 652.195ZM512.137 643.689V652H509.324V641.434H511.961L512.137 643.689ZM511.727 646.346H510.965C510.965 645.564 511.066 644.861 511.268 644.236C511.469 643.605 511.753 643.068 512.117 642.625C512.482 642.176 512.915 641.834 513.416 641.6C513.924 641.359 514.49 641.238 515.115 641.238C515.61 641.238 516.062 641.31 516.473 641.453C516.883 641.596 517.234 641.824 517.527 642.137C517.827 642.449 518.055 642.863 518.211 643.377C518.374 643.891 518.455 644.52 518.455 645.262V652H515.623V645.252C515.623 644.783 515.558 644.419 515.428 644.158C515.298 643.898 515.105 643.715 514.852 643.611C514.604 643.501 514.298 643.445 513.934 643.445C513.556 643.445 513.227 643.52 512.947 643.67C512.674 643.82 512.446 644.028 512.264 644.295C512.088 644.555 511.954 644.861 511.863 645.213C511.772 645.564 511.727 645.942 511.727 646.346ZM524.959 649.998C525.304 649.998 525.61 649.933 525.877 649.803C526.144 649.666 526.352 649.477 526.502 649.236C526.658 648.989 526.74 648.699 526.746 648.367H529.393C529.386 649.109 529.188 649.77 528.797 650.35C528.406 650.923 527.882 651.375 527.225 651.707C526.567 652.033 525.831 652.195 525.018 652.195C524.197 652.195 523.481 652.059 522.869 651.785C522.264 651.512 521.759 651.134 521.355 650.652C520.952 650.164 520.649 649.598 520.447 648.953C520.245 648.302 520.145 647.605 520.145 646.863V646.58C520.145 645.831 520.245 645.135 520.447 644.49C520.649 643.839 520.952 643.273 521.355 642.791C521.759 642.303 522.264 641.922 522.869 641.648C523.475 641.375 524.184 641.238 524.998 641.238C525.864 641.238 526.622 641.404 527.273 641.736C527.931 642.068 528.445 642.544 528.816 643.162C529.194 643.774 529.386 644.5 529.393 645.34H526.746C526.74 644.988 526.665 644.669 526.521 644.383C526.385 644.096 526.183 643.868 525.916 643.699C525.656 643.523 525.333 643.436 524.949 643.436C524.539 643.436 524.204 643.523 523.943 643.699C523.683 643.868 523.481 644.103 523.338 644.402C523.195 644.695 523.094 645.031 523.035 645.408C522.983 645.779 522.957 646.17 522.957 646.58V646.863C522.957 647.273 522.983 647.667 523.035 648.045C523.087 648.423 523.185 648.758 523.328 649.051C523.478 649.344 523.683 649.575 523.943 649.744C524.204 649.913 524.542 649.998 524.959 649.998ZM533.992 641.434V652H531.17V641.434H533.992ZM530.994 638.68C530.994 638.27 531.137 637.931 531.424 637.664C531.71 637.397 532.094 637.264 532.576 637.264C533.051 637.264 533.432 637.397 533.719 637.664C534.012 637.931 534.158 638.27 534.158 638.68C534.158 639.09 534.012 639.428 533.719 639.695C533.432 639.962 533.051 640.096 532.576 640.096C532.094 640.096 531.71 639.962 531.424 639.695C531.137 639.428 530.994 639.09 530.994 638.68ZM542.02 649.617V644.91C542.02 644.572 541.964 644.282 541.854 644.041C541.743 643.794 541.57 643.602 541.336 643.465C541.108 643.328 540.812 643.26 540.447 643.26C540.135 643.26 539.865 643.315 539.637 643.426C539.409 643.53 539.233 643.683 539.109 643.885C538.986 644.08 538.924 644.311 538.924 644.578H536.111C536.111 644.129 536.215 643.702 536.424 643.299C536.632 642.895 536.935 642.54 537.332 642.234C537.729 641.922 538.201 641.678 538.748 641.502C539.301 641.326 539.92 641.238 540.604 641.238C541.424 641.238 542.153 641.375 542.791 641.648C543.429 641.922 543.93 642.332 544.295 642.879C544.666 643.426 544.852 644.109 544.852 644.93V649.451C544.852 650.031 544.887 650.506 544.959 650.877C545.031 651.242 545.135 651.561 545.271 651.834V652H542.43C542.293 651.714 542.189 651.355 542.117 650.926C542.052 650.49 542.02 650.053 542.02 649.617ZM542.391 645.564L542.41 647.156H540.838C540.467 647.156 540.145 647.199 539.871 647.283C539.598 647.368 539.373 647.488 539.197 647.645C539.021 647.794 538.891 647.97 538.807 648.172C538.729 648.374 538.689 648.595 538.689 648.836C538.689 649.077 538.745 649.295 538.855 649.49C538.966 649.679 539.126 649.829 539.334 649.939C539.542 650.044 539.786 650.096 540.066 650.096C540.49 650.096 540.857 650.011 541.17 649.842C541.482 649.673 541.723 649.464 541.893 649.217C542.068 648.969 542.16 648.735 542.166 648.514L542.908 649.705C542.804 649.972 542.661 650.249 542.479 650.535C542.303 650.822 542.078 651.092 541.805 651.346C541.531 651.593 541.202 651.798 540.818 651.961C540.434 652.117 539.979 652.195 539.451 652.195C538.781 652.195 538.172 652.062 537.625 651.795C537.085 651.521 536.655 651.147 536.336 650.672C536.023 650.19 535.867 649.643 535.867 649.031C535.867 648.478 535.971 647.986 536.18 647.557C536.388 647.127 536.694 646.766 537.098 646.473C537.508 646.173 538.019 645.949 538.631 645.799C539.243 645.643 539.952 645.564 540.76 645.564H542.391ZM549.832 643.621V652H547.01V641.434H549.656L549.832 643.621ZM549.441 646.346H548.66C548.66 645.61 548.748 644.933 548.924 644.314C549.106 643.689 549.37 643.149 549.715 642.693C550.066 642.231 550.499 641.873 551.014 641.619C551.528 641.365 552.124 641.238 552.801 641.238C553.27 641.238 553.699 641.31 554.09 641.453C554.48 641.59 554.816 641.808 555.096 642.107C555.382 642.4 555.604 642.785 555.76 643.26C555.916 643.729 555.994 644.292 555.994 644.949V652H553.182V645.262C553.182 644.78 553.117 644.409 552.986 644.148C552.856 643.888 552.671 643.706 552.43 643.602C552.195 643.497 551.912 643.445 551.58 643.445C551.215 643.445 550.896 643.52 550.623 643.67C550.356 643.82 550.135 644.028 549.959 644.295C549.783 644.555 549.653 644.861 549.568 645.213C549.484 645.564 549.441 645.942 549.441 646.346ZM555.73 646.023L554.725 646.15C554.725 645.46 554.809 644.819 554.979 644.227C555.154 643.634 555.411 643.113 555.75 642.664C556.095 642.215 556.521 641.867 557.029 641.619C557.537 641.365 558.123 641.238 558.787 641.238C559.295 641.238 559.757 641.313 560.174 641.463C560.59 641.606 560.945 641.837 561.238 642.156C561.538 642.469 561.766 642.879 561.922 643.387C562.085 643.895 562.166 644.516 562.166 645.252V652H559.344V645.252C559.344 644.764 559.279 644.393 559.148 644.139C559.025 643.878 558.842 643.699 558.602 643.602C558.367 643.497 558.087 643.445 557.762 643.445C557.423 643.445 557.127 643.514 556.873 643.65C556.619 643.781 556.408 643.963 556.238 644.197C556.069 644.432 555.942 644.705 555.857 645.018C555.773 645.324 555.73 645.659 555.73 646.023ZM569.207 652.195C568.387 652.195 567.651 652.065 567 651.805C566.349 651.538 565.796 651.17 565.34 650.701C564.891 650.232 564.546 649.689 564.305 649.07C564.064 648.445 563.943 647.781 563.943 647.078V646.688C563.943 645.887 564.057 645.154 564.285 644.49C564.513 643.826 564.839 643.25 565.262 642.762C565.691 642.273 566.212 641.899 566.824 641.639C567.436 641.372 568.126 641.238 568.895 641.238C569.643 641.238 570.307 641.362 570.887 641.609C571.466 641.857 571.951 642.208 572.342 642.664C572.739 643.12 573.038 643.667 573.24 644.305C573.442 644.936 573.543 645.639 573.543 646.414V647.586H565.145V645.711H570.779V645.496C570.779 645.105 570.708 644.757 570.564 644.451C570.428 644.139 570.219 643.891 569.939 643.709C569.66 643.527 569.301 643.436 568.865 643.436C568.494 643.436 568.175 643.517 567.908 643.68C567.641 643.842 567.423 644.07 567.254 644.363C567.091 644.656 566.967 645.001 566.883 645.398C566.805 645.789 566.766 646.219 566.766 646.688V647.078C566.766 647.501 566.824 647.892 566.941 648.25C567.065 648.608 567.238 648.917 567.459 649.178C567.687 649.438 567.96 649.64 568.279 649.783C568.605 649.926 568.973 649.998 569.383 649.998C569.891 649.998 570.363 649.9 570.799 649.705C571.242 649.503 571.622 649.201 571.941 648.797L573.309 650.281C573.087 650.6 572.785 650.906 572.4 651.199C572.023 651.492 571.567 651.733 571.033 651.922C570.499 652.104 569.891 652.195 569.207 652.195ZM577.898 643.689V652H575.086V641.434H577.723L577.898 643.689ZM577.488 646.346H576.727C576.727 645.564 576.827 644.861 577.029 644.236C577.231 643.605 577.514 643.068 577.879 642.625C578.243 642.176 578.676 641.834 579.178 641.6C579.686 641.359 580.252 641.238 580.877 641.238C581.372 641.238 581.824 641.31 582.234 641.453C582.645 641.596 582.996 641.824 583.289 642.137C583.589 642.449 583.816 642.863 583.973 643.377C584.135 643.891 584.217 644.52 584.217 645.262V652H581.385V645.252C581.385 644.783 581.32 644.419 581.189 644.158C581.059 643.898 580.867 643.715 580.613 643.611C580.366 643.501 580.06 643.445 579.695 643.445C579.318 643.445 578.989 643.52 578.709 643.67C578.436 643.82 578.208 644.028 578.025 644.295C577.85 644.555 577.716 644.861 577.625 645.213C577.534 645.564 577.488 645.942 577.488 646.346ZM591.531 641.434V643.426H585.379V641.434H591.531ZM586.902 638.826H589.715V648.816C589.715 649.122 589.754 649.357 589.832 649.52C589.917 649.682 590.04 649.796 590.203 649.861C590.366 649.92 590.571 649.949 590.818 649.949C590.994 649.949 591.15 649.943 591.287 649.93C591.43 649.91 591.551 649.891 591.648 649.871L591.658 651.941C591.417 652.02 591.157 652.081 590.877 652.127C590.597 652.173 590.288 652.195 589.949 652.195C589.331 652.195 588.79 652.094 588.328 651.893C587.872 651.684 587.521 651.352 587.273 650.896C587.026 650.441 586.902 649.842 586.902 649.1V638.826ZM592.43 646.824V646.619C592.43 645.844 592.54 645.132 592.762 644.48C592.983 643.823 593.305 643.253 593.729 642.771C594.152 642.29 594.673 641.915 595.291 641.648C595.91 641.375 596.619 641.238 597.42 641.238C598.221 641.238 598.934 641.375 599.559 641.648C600.184 641.915 600.708 642.29 601.131 642.771C601.561 643.253 601.886 643.823 602.107 644.48C602.329 645.132 602.439 645.844 602.439 646.619V646.824C602.439 647.592 602.329 648.305 602.107 648.963C601.886 649.614 601.561 650.184 601.131 650.672C600.708 651.154 600.187 651.528 599.568 651.795C598.95 652.062 598.24 652.195 597.439 652.195C596.639 652.195 595.926 652.062 595.301 651.795C594.682 651.528 594.158 651.154 593.729 650.672C593.305 650.184 592.983 649.614 592.762 648.963C592.54 648.305 592.43 647.592 592.43 646.824ZM595.242 646.619V646.824C595.242 647.267 595.281 647.68 595.359 648.064C595.438 648.449 595.561 648.787 595.73 649.08C595.906 649.367 596.134 649.591 596.414 649.754C596.694 649.917 597.036 649.998 597.439 649.998C597.83 649.998 598.165 649.917 598.445 649.754C598.725 649.591 598.95 649.367 599.119 649.08C599.288 648.787 599.412 648.449 599.49 648.064C599.575 647.68 599.617 647.267 599.617 646.824V646.619C599.617 646.189 599.575 645.786 599.49 645.408C599.412 645.024 599.285 644.686 599.109 644.393C598.94 644.093 598.715 643.859 598.436 643.689C598.156 643.52 597.817 643.436 597.42 643.436C597.023 643.436 596.684 643.52 596.404 643.689C596.131 643.859 595.906 644.093 595.73 644.393C595.561 644.686 595.438 645.024 595.359 645.408C595.281 645.786 595.242 646.189 595.242 646.619Z" fill="url(#paint3_linear_478_2854)"/>
<path d="M416.12 649.23C414.627 646.641 414.627 643.454 416.12 640.865L471.94 544.183C473.433 541.594 476.194 540 479.184 540H590.816C593.806 540 596.567 541.594 598.06 544.183L653.88 640.865C655.373 643.454 655.373 646.641 653.88 649.23L598.06 745.912C596.567 748.501 593.806 750.095 590.816 750.095H479.184C476.194 750.095 473.433 748.501 471.94 745.912L416.12 649.23Z" stroke="url(#paint4_linear_478_2854)" stroke-width="20"/>
<path d="M762.57 368H759.475L759.494 365.715H762.57C763.339 365.715 763.986 365.542 764.514 365.197C765.041 364.846 765.438 364.335 765.705 363.664C765.979 362.993 766.115 362.183 766.115 361.232V360.539C766.115 359.81 766.037 359.169 765.881 358.615C765.731 358.062 765.507 357.596 765.207 357.219C764.908 356.841 764.54 356.558 764.104 356.369C763.667 356.174 763.166 356.076 762.6 356.076H759.416V353.781H762.6C763.55 353.781 764.419 353.944 765.207 354.27C766.001 354.589 766.688 355.048 767.268 355.646C767.847 356.245 768.293 356.962 768.605 357.795C768.924 358.622 769.084 359.543 769.084 360.559V361.232C769.084 362.242 768.924 363.163 768.605 363.996C768.293 364.829 767.847 365.546 767.268 366.145C766.695 366.737 766.008 367.196 765.207 367.521C764.413 367.84 763.534 368 762.57 368ZM761.135 353.781V368H758.205V353.781H761.135ZM775.9 368.195C775.08 368.195 774.344 368.065 773.693 367.805C773.042 367.538 772.489 367.17 772.033 366.701C771.584 366.232 771.239 365.689 770.998 365.07C770.757 364.445 770.637 363.781 770.637 363.078V362.688C770.637 361.887 770.751 361.154 770.979 360.49C771.206 359.826 771.532 359.25 771.955 358.762C772.385 358.273 772.906 357.899 773.518 357.639C774.13 357.372 774.82 357.238 775.588 357.238C776.337 357.238 777.001 357.362 777.58 357.609C778.16 357.857 778.645 358.208 779.035 358.664C779.432 359.12 779.732 359.667 779.934 360.305C780.135 360.936 780.236 361.639 780.236 362.414V363.586H771.838V361.711H777.473V361.496C777.473 361.105 777.401 360.757 777.258 360.451C777.121 360.139 776.913 359.891 776.633 359.709C776.353 359.527 775.995 359.436 775.559 359.436C775.188 359.436 774.868 359.517 774.602 359.68C774.335 359.842 774.117 360.07 773.947 360.363C773.785 360.656 773.661 361.001 773.576 361.398C773.498 361.789 773.459 362.219 773.459 362.688V363.078C773.459 363.501 773.518 363.892 773.635 364.25C773.758 364.608 773.931 364.917 774.152 365.178C774.38 365.438 774.654 365.64 774.973 365.783C775.298 365.926 775.666 365.998 776.076 365.998C776.584 365.998 777.056 365.9 777.492 365.705C777.935 365.503 778.316 365.201 778.635 364.797L780.002 366.281C779.781 366.6 779.478 366.906 779.094 367.199C778.716 367.492 778.26 367.733 777.727 367.922C777.193 368.104 776.584 368.195 775.9 368.195ZM787.551 365.08C787.551 364.878 787.492 364.696 787.375 364.533C787.258 364.37 787.04 364.221 786.721 364.084C786.408 363.941 785.956 363.811 785.363 363.693C784.829 363.576 784.331 363.43 783.869 363.254C783.413 363.072 783.016 362.854 782.678 362.6C782.346 362.346 782.085 362.046 781.896 361.701C781.708 361.35 781.613 360.949 781.613 360.5C781.613 360.057 781.708 359.641 781.896 359.25C782.092 358.859 782.368 358.514 782.727 358.215C783.091 357.909 783.534 357.671 784.055 357.502C784.582 357.326 785.174 357.238 785.832 357.238C786.75 357.238 787.538 357.385 788.195 357.678C788.859 357.971 789.367 358.374 789.719 358.889C790.077 359.396 790.256 359.976 790.256 360.627H787.443C787.443 360.354 787.385 360.109 787.268 359.895C787.157 359.673 786.981 359.501 786.74 359.377C786.506 359.247 786.2 359.182 785.822 359.182C785.51 359.182 785.24 359.237 785.012 359.348C784.784 359.452 784.608 359.595 784.484 359.777C784.367 359.953 784.309 360.148 784.309 360.363C784.309 360.526 784.341 360.673 784.406 360.803C784.478 360.926 784.592 361.04 784.748 361.145C784.904 361.249 785.106 361.346 785.354 361.438C785.607 361.522 785.92 361.6 786.291 361.672C787.053 361.828 787.733 362.033 788.332 362.287C788.931 362.535 789.406 362.873 789.758 363.303C790.109 363.726 790.285 364.283 790.285 364.973C790.285 365.441 790.181 365.871 789.973 366.262C789.764 366.652 789.465 366.994 789.074 367.287C788.684 367.574 788.215 367.798 787.668 367.961C787.128 368.117 786.519 368.195 785.842 368.195C784.859 368.195 784.025 368.02 783.342 367.668C782.665 367.316 782.15 366.87 781.799 366.33C781.454 365.783 781.281 365.223 781.281 364.65H783.947C783.96 365.035 784.058 365.344 784.24 365.578C784.429 365.812 784.667 365.982 784.953 366.086C785.246 366.19 785.562 366.242 785.9 366.242C786.265 366.242 786.568 366.193 786.809 366.096C787.049 365.992 787.232 365.855 787.355 365.686C787.486 365.51 787.551 365.308 787.551 365.08ZM796.975 368.195C796.154 368.195 795.419 368.065 794.768 367.805C794.117 367.538 793.563 367.17 793.107 366.701C792.658 366.232 792.313 365.689 792.072 365.07C791.831 364.445 791.711 363.781 791.711 363.078V362.688C791.711 361.887 791.825 361.154 792.053 360.49C792.281 359.826 792.606 359.25 793.029 358.762C793.459 358.273 793.98 357.899 794.592 357.639C795.204 357.372 795.894 357.238 796.662 357.238C797.411 357.238 798.075 357.362 798.654 357.609C799.234 357.857 799.719 358.208 800.109 358.664C800.507 359.12 800.806 359.667 801.008 360.305C801.21 360.936 801.311 361.639 801.311 362.414V363.586H792.912V361.711H798.547V361.496C798.547 361.105 798.475 360.757 798.332 360.451C798.195 360.139 797.987 359.891 797.707 359.709C797.427 359.527 797.069 359.436 796.633 359.436C796.262 359.436 795.943 359.517 795.676 359.68C795.409 359.842 795.191 360.07 795.021 360.363C794.859 360.656 794.735 361.001 794.65 361.398C794.572 361.789 794.533 362.219 794.533 362.688V363.078C794.533 363.501 794.592 363.892 794.709 364.25C794.833 364.608 795.005 364.917 795.227 365.178C795.454 365.438 795.728 365.64 796.047 365.783C796.372 365.926 796.74 365.998 797.15 365.998C797.658 365.998 798.13 365.9 798.566 365.705C799.009 365.503 799.39 365.201 799.709 364.797L801.076 366.281C800.855 366.6 800.552 366.906 800.168 367.199C799.79 367.492 799.335 367.733 798.801 367.922C798.267 368.104 797.658 368.195 796.975 368.195ZM805.666 359.689V368H802.854V357.434H805.49L805.666 359.689ZM805.256 362.346H804.494C804.494 361.564 804.595 360.861 804.797 360.236C804.999 359.605 805.282 359.068 805.646 358.625C806.011 358.176 806.444 357.834 806.945 357.6C807.453 357.359 808.02 357.238 808.645 357.238C809.139 357.238 809.592 357.31 810.002 357.453C810.412 357.596 810.764 357.824 811.057 358.137C811.356 358.449 811.584 358.863 811.74 359.377C811.903 359.891 811.984 360.52 811.984 361.262V368H809.152V361.252C809.152 360.783 809.087 360.419 808.957 360.158C808.827 359.898 808.635 359.715 808.381 359.611C808.133 359.501 807.827 359.445 807.463 359.445C807.085 359.445 806.757 359.52 806.477 359.67C806.203 359.82 805.975 360.028 805.793 360.295C805.617 360.555 805.484 360.861 805.393 361.213C805.301 361.564 805.256 361.942 805.256 362.346ZM817.717 365.949L820.061 357.434H823L819.436 368H817.658L817.717 365.949ZM816.105 357.434L818.459 365.959L818.508 368H816.721L813.156 357.434H816.105ZM823.654 362.824V362.619C823.654 361.844 823.765 361.132 823.986 360.48C824.208 359.823 824.53 359.253 824.953 358.771C825.376 358.29 825.897 357.915 826.516 357.648C827.134 357.375 827.844 357.238 828.645 357.238C829.445 357.238 830.158 357.375 830.783 357.648C831.408 357.915 831.932 358.29 832.355 358.771C832.785 359.253 833.111 359.823 833.332 360.48C833.553 361.132 833.664 361.844 833.664 362.619V362.824C833.664 363.592 833.553 364.305 833.332 364.963C833.111 365.614 832.785 366.184 832.355 366.672C831.932 367.154 831.411 367.528 830.793 367.795C830.174 368.062 829.465 368.195 828.664 368.195C827.863 368.195 827.15 368.062 826.525 367.795C825.907 367.528 825.383 367.154 824.953 366.672C824.53 366.184 824.208 365.614 823.986 364.963C823.765 364.305 823.654 363.592 823.654 362.824ZM826.467 362.619V362.824C826.467 363.267 826.506 363.68 826.584 364.064C826.662 364.449 826.786 364.787 826.955 365.08C827.131 365.367 827.359 365.591 827.639 365.754C827.919 365.917 828.26 365.998 828.664 365.998C829.055 365.998 829.39 365.917 829.67 365.754C829.95 365.591 830.174 365.367 830.344 365.08C830.513 364.787 830.637 364.449 830.715 364.064C830.799 363.68 830.842 363.267 830.842 362.824V362.619C830.842 362.189 830.799 361.786 830.715 361.408C830.637 361.024 830.51 360.686 830.334 360.393C830.165 360.093 829.94 359.859 829.66 359.689C829.38 359.52 829.042 359.436 828.645 359.436C828.247 359.436 827.909 359.52 827.629 359.689C827.355 359.859 827.131 360.093 826.955 360.393C826.786 360.686 826.662 361.024 826.584 361.408C826.506 361.786 826.467 362.189 826.467 362.619ZM838.361 353V368H835.539V353H838.361ZM844.279 365.949L846.623 357.434H849.562L845.998 368H844.221L844.279 365.949ZM842.668 357.434L845.021 365.959L845.07 368H843.283L839.719 357.434H842.668ZM853.791 357.434V368H850.969V357.434H853.791ZM850.793 354.68C850.793 354.27 850.936 353.931 851.223 353.664C851.509 353.397 851.893 353.264 852.375 353.264C852.85 353.264 853.231 353.397 853.518 353.664C853.811 353.931 853.957 354.27 853.957 354.68C853.957 355.09 853.811 355.428 853.518 355.695C853.231 355.962 852.85 356.096 852.375 356.096C851.893 356.096 851.509 355.962 851.223 355.695C850.936 355.428 850.793 355.09 850.793 354.68ZM858.928 359.621V368H856.105V357.434H858.752L858.928 359.621ZM858.537 362.346H857.756C857.756 361.61 857.844 360.933 858.02 360.314C858.202 359.689 858.465 359.149 858.811 358.693C859.162 358.231 859.595 357.873 860.109 357.619C860.624 357.365 861.219 357.238 861.896 357.238C862.365 357.238 862.795 357.31 863.186 357.453C863.576 357.59 863.911 357.808 864.191 358.107C864.478 358.4 864.699 358.785 864.855 359.26C865.012 359.729 865.09 360.292 865.09 360.949V368H862.277V361.262C862.277 360.78 862.212 360.409 862.082 360.148C861.952 359.888 861.766 359.706 861.525 359.602C861.291 359.497 861.008 359.445 860.676 359.445C860.311 359.445 859.992 359.52 859.719 359.67C859.452 359.82 859.23 360.028 859.055 360.295C858.879 360.555 858.749 360.861 858.664 361.213C858.579 361.564 858.537 361.942 858.537 362.346ZM864.826 362.023L863.82 362.15C863.82 361.46 863.905 360.819 864.074 360.227C864.25 359.634 864.507 359.113 864.846 358.664C865.191 358.215 865.617 357.867 866.125 357.619C866.633 357.365 867.219 357.238 867.883 357.238C868.391 357.238 868.853 357.313 869.27 357.463C869.686 357.606 870.041 357.837 870.334 358.156C870.633 358.469 870.861 358.879 871.018 359.387C871.18 359.895 871.262 360.516 871.262 361.252V368H868.439V361.252C868.439 360.764 868.374 360.393 868.244 360.139C868.12 359.878 867.938 359.699 867.697 359.602C867.463 359.497 867.183 359.445 866.857 359.445C866.519 359.445 866.223 359.514 865.969 359.65C865.715 359.781 865.503 359.963 865.334 360.197C865.165 360.432 865.038 360.705 864.953 361.018C864.868 361.324 864.826 361.659 864.826 362.023ZM878.303 368.195C877.482 368.195 876.747 368.065 876.096 367.805C875.445 367.538 874.891 367.17 874.436 366.701C873.986 366.232 873.641 365.689 873.4 365.07C873.16 364.445 873.039 363.781 873.039 363.078V362.688C873.039 361.887 873.153 361.154 873.381 360.49C873.609 359.826 873.934 359.25 874.357 358.762C874.787 358.273 875.308 357.899 875.92 357.639C876.532 357.372 877.222 357.238 877.99 357.238C878.739 357.238 879.403 357.362 879.982 357.609C880.562 357.857 881.047 358.208 881.438 358.664C881.835 359.12 882.134 359.667 882.336 360.305C882.538 360.936 882.639 361.639 882.639 362.414V363.586H874.24V361.711H879.875V361.496C879.875 361.105 879.803 360.757 879.66 360.451C879.523 360.139 879.315 359.891 879.035 359.709C878.755 359.527 878.397 359.436 877.961 359.436C877.59 359.436 877.271 359.517 877.004 359.68C876.737 359.842 876.519 360.07 876.35 360.363C876.187 360.656 876.063 361.001 875.979 361.398C875.9 361.789 875.861 362.219 875.861 362.688V363.078C875.861 363.501 875.92 363.892 876.037 364.25C876.161 364.608 876.333 364.917 876.555 365.178C876.783 365.438 877.056 365.64 877.375 365.783C877.701 365.926 878.068 365.998 878.479 365.998C878.986 365.998 879.458 365.9 879.895 365.705C880.337 365.503 880.718 365.201 881.037 364.797L882.404 366.281C882.183 366.6 881.88 366.906 881.496 367.199C881.118 367.492 880.663 367.733 880.129 367.922C879.595 368.104 878.986 368.195 878.303 368.195ZM886.994 359.689V368H884.182V357.434H886.818L886.994 359.689ZM886.584 362.346H885.822C885.822 361.564 885.923 360.861 886.125 360.236C886.327 359.605 886.61 359.068 886.975 358.625C887.339 358.176 887.772 357.834 888.273 357.6C888.781 357.359 889.348 357.238 889.973 357.238C890.467 357.238 890.92 357.31 891.33 357.453C891.74 357.596 892.092 357.824 892.385 358.137C892.684 358.449 892.912 358.863 893.068 359.377C893.231 359.891 893.312 360.52 893.312 361.262V368H890.48V361.252C890.48 360.783 890.415 360.419 890.285 360.158C890.155 359.898 889.963 359.715 889.709 359.611C889.462 359.501 889.156 359.445 888.791 359.445C888.413 359.445 888.085 359.52 887.805 359.67C887.531 359.82 887.303 360.028 887.121 360.295C886.945 360.555 886.812 360.861 886.721 361.213C886.63 361.564 886.584 361.942 886.584 362.346ZM900.627 357.434V359.426H894.475V357.434H900.627ZM895.998 354.826H898.811V364.816C898.811 365.122 898.85 365.357 898.928 365.52C899.012 365.682 899.136 365.796 899.299 365.861C899.462 365.92 899.667 365.949 899.914 365.949C900.09 365.949 900.246 365.943 900.383 365.93C900.526 365.91 900.646 365.891 900.744 365.871L900.754 367.941C900.513 368.02 900.253 368.081 899.973 368.127C899.693 368.173 899.383 368.195 899.045 368.195C898.426 368.195 897.886 368.094 897.424 367.893C896.968 367.684 896.617 367.352 896.369 366.896C896.122 366.441 895.998 365.842 895.998 365.1V354.826ZM901.525 362.824V362.619C901.525 361.844 901.636 361.132 901.857 360.48C902.079 359.823 902.401 359.253 902.824 358.771C903.247 358.29 903.768 357.915 904.387 357.648C905.005 357.375 905.715 357.238 906.516 357.238C907.316 357.238 908.029 357.375 908.654 357.648C909.279 357.915 909.803 358.29 910.227 358.771C910.656 359.253 910.982 359.823 911.203 360.48C911.424 361.132 911.535 361.844 911.535 362.619V362.824C911.535 363.592 911.424 364.305 911.203 364.963C910.982 365.614 910.656 366.184 910.227 366.672C909.803 367.154 909.283 367.528 908.664 367.795C908.046 368.062 907.336 368.195 906.535 368.195C905.734 368.195 905.021 368.062 904.396 367.795C903.778 367.528 903.254 367.154 902.824 366.672C902.401 366.184 902.079 365.614 901.857 364.963C901.636 364.305 901.525 363.592 901.525 362.824ZM904.338 362.619V362.824C904.338 363.267 904.377 363.68 904.455 364.064C904.533 364.449 904.657 364.787 904.826 365.08C905.002 365.367 905.23 365.591 905.51 365.754C905.79 365.917 906.132 365.998 906.535 365.998C906.926 365.998 907.261 365.917 907.541 365.754C907.821 365.591 908.046 365.367 908.215 365.08C908.384 364.787 908.508 364.449 908.586 364.064C908.671 363.68 908.713 363.267 908.713 362.824V362.619C908.713 362.189 908.671 361.786 908.586 361.408C908.508 361.024 908.381 360.686 908.205 360.393C908.036 360.093 907.811 359.859 907.531 359.689C907.251 359.52 906.913 359.436 906.516 359.436C906.118 359.436 905.78 359.52 905.5 359.689C905.227 359.859 905.002 360.093 904.826 360.393C904.657 360.686 904.533 361.024 904.455 361.408C904.377 361.786 904.338 362.189 904.338 362.619Z" fill="url(#paint5_linear_478_2854)"/>
<path d="M725.579 365.128C724.211 362.754 724.211 359.833 725.579 357.459L776.748 268.834C778.116 266.461 780.647 265 783.388 265H885.717C888.459 265 890.989 266.461 892.358 268.834L943.526 357.459C944.895 359.833 944.895 362.754 943.526 365.128L892.358 453.753C890.989 456.126 888.459 457.587 885.717 457.587H783.388C780.647 457.587 778.116 456.126 776.748 453.753L725.579 365.128Z" stroke="url(#paint6_linear_478_2854)" stroke-width="20"/>
<path d="M307.764 100.283H310.684C310.625 101.24 310.361 102.09 309.893 102.832C309.43 103.574 308.783 104.154 307.949 104.57C307.122 104.987 306.126 105.195 304.961 105.195C304.049 105.195 303.232 105.039 302.51 104.727C301.787 104.408 301.169 103.952 300.654 103.359C300.146 102.767 299.759 102.051 299.492 101.211C299.225 100.371 299.092 99.4303 299.092 98.3887V97.4023C299.092 96.3607 299.229 95.4199 299.502 94.5801C299.782 93.7337 300.179 93.0143 300.693 92.4219C301.214 91.8294 301.836 91.3737 302.559 91.0547C303.281 90.7357 304.089 90.5762 304.98 90.5762C306.165 90.5762 307.165 90.791 307.979 91.2207C308.799 91.6504 309.434 92.2428 309.883 92.998C310.339 93.7533 310.612 94.6126 310.703 95.5762H307.773C307.741 95.0033 307.627 94.5182 307.432 94.1211C307.236 93.7174 306.94 93.4147 306.543 93.2129C306.152 93.0046 305.632 92.9004 304.98 92.9004C304.492 92.9004 304.066 92.9915 303.701 93.1738C303.337 93.3561 303.031 93.6328 302.783 94.0039C302.536 94.375 302.35 94.8438 302.227 95.4102C302.109 95.9701 302.051 96.6276 302.051 97.3828V98.3887C302.051 99.1243 302.106 99.7721 302.217 100.332C302.327 100.885 302.497 101.354 302.725 101.738C302.959 102.116 303.258 102.402 303.623 102.598C303.994 102.786 304.44 102.881 304.961 102.881C305.573 102.881 306.077 102.783 306.475 102.588C306.872 102.393 307.174 102.103 307.383 101.719C307.598 101.335 307.725 100.856 307.764 100.283ZM311.982 99.8242V99.6191C311.982 98.8444 312.093 98.1315 312.314 97.4805C312.536 96.8229 312.858 96.2533 313.281 95.7715C313.704 95.2897 314.225 94.9154 314.844 94.6484C315.462 94.375 316.172 94.2383 316.973 94.2383C317.773 94.2383 318.486 94.375 319.111 94.6484C319.736 94.9154 320.26 95.2897 320.684 95.7715C321.113 96.2533 321.439 96.8229 321.66 97.4805C321.882 98.1315 321.992 98.8444 321.992 99.6191V99.8242C321.992 100.592 321.882 101.305 321.66 101.963C321.439 102.614 321.113 103.184 320.684 103.672C320.26 104.154 319.74 104.528 319.121 104.795C318.503 105.062 317.793 105.195 316.992 105.195C316.191 105.195 315.479 105.062 314.854 104.795C314.235 104.528 313.711 104.154 313.281 103.672C312.858 103.184 312.536 102.614 312.314 101.963C312.093 101.305 311.982 100.592 311.982 99.8242ZM314.795 99.6191V99.8242C314.795 100.267 314.834 100.68 314.912 101.064C314.99 101.449 315.114 101.787 315.283 102.08C315.459 102.367 315.687 102.591 315.967 102.754C316.247 102.917 316.589 102.998 316.992 102.998C317.383 102.998 317.718 102.917 317.998 102.754C318.278 102.591 318.503 102.367 318.672 102.08C318.841 101.787 318.965 101.449 319.043 101.064C319.128 100.68 319.17 100.267 319.17 99.8242V99.6191C319.17 99.1895 319.128 98.7858 319.043 98.4082C318.965 98.0241 318.838 97.6855 318.662 97.3926C318.493 97.0931 318.268 96.8587 317.988 96.6895C317.708 96.5202 317.37 96.4355 316.973 96.4355C316.576 96.4355 316.237 96.5202 315.957 96.6895C315.684 96.8587 315.459 97.0931 315.283 97.3926C315.114 97.6855 314.99 98.0241 314.912 98.4082C314.834 98.7858 314.795 99.1895 314.795 99.6191ZM326.475 96.6895V105H323.662V94.4336H326.299L326.475 96.6895ZM326.064 99.3457H325.303C325.303 98.5645 325.404 97.8613 325.605 97.2363C325.807 96.6048 326.09 96.0677 326.455 95.625C326.82 95.1758 327.253 94.834 327.754 94.5996C328.262 94.3587 328.828 94.2383 329.453 94.2383C329.948 94.2383 330.4 94.3099 330.811 94.4531C331.221 94.5964 331.572 94.8242 331.865 95.1367C332.165 95.4492 332.393 95.8626 332.549 96.377C332.712 96.8913 332.793 97.5195 332.793 98.2617V105H329.961V98.252C329.961 97.7832 329.896 97.4186 329.766 97.1582C329.635 96.8978 329.443 96.7155 329.189 96.6113C328.942 96.5007 328.636 96.4453 328.271 96.4453C327.894 96.4453 327.565 96.5202 327.285 96.6699C327.012 96.8197 326.784 97.028 326.602 97.2949C326.426 97.5553 326.292 97.8613 326.201 98.2129C326.11 98.5645 326.064 98.9421 326.064 99.3457ZM340.645 102.08C340.645 101.878 340.586 101.696 340.469 101.533C340.352 101.37 340.133 101.221 339.814 101.084C339.502 100.941 339.049 100.811 338.457 100.693C337.923 100.576 337.425 100.43 336.963 100.254C336.507 100.072 336.11 99.8535 335.771 99.5996C335.439 99.3457 335.179 99.0462 334.99 98.7012C334.801 98.3496 334.707 97.9492 334.707 97.5C334.707 97.0573 334.801 96.6406 334.99 96.25C335.186 95.8594 335.462 95.5143 335.82 95.2148C336.185 94.9089 336.628 94.6712 337.148 94.502C337.676 94.3262 338.268 94.2383 338.926 94.2383C339.844 94.2383 340.632 94.3848 341.289 94.6777C341.953 94.9707 342.461 95.3743 342.812 95.8887C343.171 96.3965 343.35 96.9759 343.35 97.627H340.537C340.537 97.3535 340.479 97.1094 340.361 96.8945C340.251 96.6732 340.075 96.5007 339.834 96.377C339.6 96.2467 339.294 96.1816 338.916 96.1816C338.604 96.1816 338.333 96.237 338.105 96.3477C337.878 96.4518 337.702 96.5951 337.578 96.7773C337.461 96.9531 337.402 97.1484 337.402 97.3633C337.402 97.526 337.435 97.6725 337.5 97.8027C337.572 97.9264 337.686 98.0404 337.842 98.1445C337.998 98.2487 338.2 98.3464 338.447 98.4375C338.701 98.5221 339.014 98.6003 339.385 98.6719C340.146 98.8281 340.827 99.0332 341.426 99.2871C342.025 99.5345 342.5 99.873 342.852 100.303C343.203 100.726 343.379 101.283 343.379 101.973C343.379 102.441 343.275 102.871 343.066 103.262C342.858 103.652 342.559 103.994 342.168 104.287C341.777 104.574 341.309 104.798 340.762 104.961C340.221 105.117 339.613 105.195 338.936 105.195C337.952 105.195 337.119 105.02 336.436 104.668C335.758 104.316 335.244 103.87 334.893 103.33C334.548 102.783 334.375 102.223 334.375 101.65H337.041C337.054 102.035 337.152 102.344 337.334 102.578C337.523 102.812 337.76 102.982 338.047 103.086C338.34 103.19 338.656 103.242 338.994 103.242C339.359 103.242 339.661 103.193 339.902 103.096C340.143 102.992 340.326 102.855 340.449 102.686C340.579 102.51 340.645 102.308 340.645 102.08ZM351.455 102.471V94.4336H354.268V105H351.621L351.455 102.471ZM351.768 100.303L352.598 100.283C352.598 100.986 352.516 101.641 352.354 102.246C352.191 102.845 351.947 103.366 351.621 103.809C351.296 104.245 350.885 104.587 350.391 104.834C349.896 105.075 349.313 105.195 348.643 105.195C348.128 105.195 347.653 105.124 347.217 104.98C346.787 104.831 346.416 104.6 346.104 104.287C345.798 103.968 345.557 103.561 345.381 103.066C345.212 102.565 345.127 101.963 345.127 101.26V94.4336H347.939V101.279C347.939 101.592 347.975 101.855 348.047 102.07C348.125 102.285 348.232 102.461 348.369 102.598C348.506 102.734 348.665 102.832 348.848 102.891C349.036 102.949 349.245 102.979 349.473 102.979C350.052 102.979 350.508 102.861 350.84 102.627C351.178 102.393 351.416 102.074 351.553 101.67C351.696 101.26 351.768 100.804 351.768 100.303ZM359.385 90V105H356.562V90H359.385ZM366.885 94.4336V96.4258H360.732V94.4336H366.885ZM362.256 91.8262H365.068V101.816C365.068 102.122 365.107 102.357 365.186 102.52C365.27 102.682 365.394 102.796 365.557 102.861C365.719 102.92 365.924 102.949 366.172 102.949C366.348 102.949 366.504 102.943 366.641 102.93C366.784 102.91 366.904 102.891 367.002 102.871L367.012 104.941C366.771 105.02 366.51 105.081 366.23 105.127C365.951 105.173 365.641 105.195 365.303 105.195C364.684 105.195 364.144 105.094 363.682 104.893C363.226 104.684 362.874 104.352 362.627 103.896C362.38 103.441 362.256 102.842 362.256 102.1V91.8262ZM367.783 99.8242V99.6191C367.783 98.8444 367.894 98.1315 368.115 97.4805C368.337 96.8229 368.659 96.2533 369.082 95.7715C369.505 95.2897 370.026 94.9154 370.645 94.6484C371.263 94.375 371.973 94.2383 372.773 94.2383C373.574 94.2383 374.287 94.375 374.912 94.6484C375.537 94.9154 376.061 95.2897 376.484 95.7715C376.914 96.2533 377.24 96.8229 377.461 97.4805C377.682 98.1315 377.793 98.8444 377.793 99.6191V99.8242C377.793 100.592 377.682 101.305 377.461 101.963C377.24 102.614 376.914 103.184 376.484 103.672C376.061 104.154 375.54 104.528 374.922 104.795C374.303 105.062 373.594 105.195 372.793 105.195C371.992 105.195 371.279 105.062 370.654 104.795C370.036 104.528 369.512 104.154 369.082 103.672C368.659 103.184 368.337 102.614 368.115 101.963C367.894 101.305 367.783 100.592 367.783 99.8242ZM370.596 99.6191V99.8242C370.596 100.267 370.635 100.68 370.713 101.064C370.791 101.449 370.915 101.787 371.084 102.08C371.26 102.367 371.488 102.591 371.768 102.754C372.048 102.917 372.389 102.998 372.793 102.998C373.184 102.998 373.519 102.917 373.799 102.754C374.079 102.591 374.303 102.367 374.473 102.08C374.642 101.787 374.766 101.449 374.844 101.064C374.928 100.68 374.971 100.267 374.971 99.8242V99.6191C374.971 99.1895 374.928 98.7858 374.844 98.4082C374.766 98.0241 374.639 97.6855 374.463 97.3926C374.294 97.0931 374.069 96.8587 373.789 96.6895C373.509 96.5202 373.171 96.4355 372.773 96.4355C372.376 96.4355 372.038 96.5202 371.758 96.6895C371.484 96.8587 371.26 97.0931 371.084 97.3926C370.915 97.6855 370.791 98.0241 370.713 98.4082C370.635 98.7858 370.596 99.1895 370.596 99.6191ZM382.334 96.7383V105H379.521V94.4336H382.168L382.334 96.7383ZM385.518 94.3652L385.469 96.9727C385.332 96.9531 385.166 96.9368 384.971 96.9238C384.782 96.9043 384.609 96.8945 384.453 96.8945C384.056 96.8945 383.711 96.9466 383.418 97.0508C383.132 97.1484 382.891 97.2949 382.695 97.4902C382.507 97.6855 382.363 97.9232 382.266 98.2031C382.174 98.4831 382.122 98.8021 382.109 99.1602L381.543 98.9844C381.543 98.3008 381.611 97.6725 381.748 97.0996C381.885 96.5202 382.083 96.0156 382.344 95.5859C382.611 95.1562 382.936 94.8242 383.32 94.5898C383.704 94.3555 384.144 94.2383 384.639 94.2383C384.795 94.2383 384.954 94.2513 385.117 94.2773C385.28 94.2969 385.413 94.3262 385.518 94.3652ZM389.814 94.4336V105H386.992V94.4336H389.814ZM386.816 91.6797C386.816 91.2695 386.96 90.931 387.246 90.6641C387.533 90.3971 387.917 90.2637 388.398 90.2637C388.874 90.2637 389.255 90.3971 389.541 90.6641C389.834 90.931 389.98 91.2695 389.98 91.6797C389.98 92.0898 389.834 92.4284 389.541 92.6953C389.255 92.9622 388.874 93.0957 388.398 93.0957C387.917 93.0957 387.533 92.9622 387.246 92.6953C386.96 92.4284 386.816 92.0898 386.816 91.6797ZM397.842 102.617V97.9102C397.842 97.5716 397.786 97.2819 397.676 97.041C397.565 96.7936 397.393 96.6016 397.158 96.4648C396.93 96.3281 396.634 96.2598 396.27 96.2598C395.957 96.2598 395.687 96.3151 395.459 96.4258C395.231 96.5299 395.055 96.6829 394.932 96.8848C394.808 97.0801 394.746 97.3112 394.746 97.5781H391.934C391.934 97.1289 392.038 96.7025 392.246 96.2988C392.454 95.8952 392.757 95.5404 393.154 95.2344C393.551 94.9219 394.023 94.6777 394.57 94.502C395.124 94.3262 395.742 94.2383 396.426 94.2383C397.246 94.2383 397.975 94.375 398.613 94.6484C399.251 94.9219 399.753 95.332 400.117 95.8789C400.488 96.4258 400.674 97.1094 400.674 97.9297V102.451C400.674 103.031 400.71 103.506 400.781 103.877C400.853 104.242 400.957 104.561 401.094 104.834V105H398.252C398.115 104.714 398.011 104.355 397.939 103.926C397.874 103.49 397.842 103.053 397.842 102.617ZM398.213 98.5645L398.232 100.156H396.66C396.289 100.156 395.967 100.199 395.693 100.283C395.42 100.368 395.195 100.488 395.02 100.645C394.844 100.794 394.714 100.97 394.629 101.172C394.551 101.374 394.512 101.595 394.512 101.836C394.512 102.077 394.567 102.295 394.678 102.49C394.788 102.679 394.948 102.829 395.156 102.939C395.365 103.044 395.609 103.096 395.889 103.096C396.312 103.096 396.68 103.011 396.992 102.842C397.305 102.673 397.546 102.464 397.715 102.217C397.891 101.969 397.982 101.735 397.988 101.514L398.73 102.705C398.626 102.972 398.483 103.249 398.301 103.535C398.125 103.822 397.9 104.092 397.627 104.346C397.354 104.593 397.025 104.798 396.641 104.961C396.257 105.117 395.801 105.195 395.273 105.195C394.603 105.195 393.994 105.062 393.447 104.795C392.907 104.521 392.477 104.147 392.158 103.672C391.846 103.19 391.689 102.643 391.689 102.031C391.689 101.478 391.794 100.986 392.002 100.557C392.21 100.127 392.516 99.7656 392.92 99.4727C393.33 99.1732 393.841 98.9486 394.453 98.7988C395.065 98.6426 395.775 98.5645 396.582 98.5645H398.213Z" fill="url(#paint7_linear_478_2854)"/>
<path d="M250.933 101.025C249.689 98.8676 249.689 96.2116 250.933 94.054L297.45 13.4856C298.694 11.328 300.995 10 303.487 10H396.513C399.005 10 401.306 11.328 402.55 13.4856L449.067 94.054C450.311 96.2116 450.311 98.8676 449.067 101.025L402.55 181.594C401.306 183.751 399.005 185.079 396.513 185.079H303.487C300.995 185.079 298.694 183.751 297.45 181.594L250.933 101.025Z" stroke="url(#paint8_linear_478_2854)" stroke-width="20"/>
<path d="M72.4395 345.279C72.4395 345.025 72.4004 344.798 72.3223 344.596C72.2507 344.387 72.1139 344.199 71.9121 344.029C71.7103 343.854 71.4271 343.681 71.0625 343.512C70.6979 343.342 70.2259 343.167 69.6465 342.984C69.002 342.776 68.39 342.542 67.8105 342.281C67.2376 342.021 66.7298 341.718 66.2871 341.373C65.8509 341.021 65.5059 340.615 65.252 340.152C65.0046 339.69 64.8809 339.153 64.8809 338.541C64.8809 337.949 65.0111 337.411 65.2715 336.93C65.5319 336.441 65.8965 336.025 66.3652 335.68C66.834 335.328 67.3874 335.058 68.0254 334.869C68.6699 334.68 69.3763 334.586 70.1445 334.586C71.1927 334.586 72.1074 334.775 72.8887 335.152C73.6699 335.53 74.2754 336.048 74.7051 336.705C75.1413 337.363 75.3594 338.115 75.3594 338.961H72.4492C72.4492 338.544 72.3613 338.18 72.1855 337.867C72.0163 337.548 71.7559 337.298 71.4043 337.115C71.0592 336.933 70.623 336.842 70.0957 336.842C69.5879 336.842 69.1647 336.92 68.8262 337.076C68.4876 337.226 68.2337 337.431 68.0645 337.691C67.8952 337.945 67.8105 338.232 67.8105 338.551C67.8105 338.792 67.8691 339.01 67.9863 339.205C68.11 339.4 68.2923 339.583 68.5332 339.752C68.7741 339.921 69.0703 340.081 69.4219 340.23C69.7734 340.38 70.1803 340.527 70.6426 340.67C71.4173 340.904 72.0977 341.168 72.6836 341.461C73.276 341.754 73.7708 342.083 74.168 342.447C74.5651 342.812 74.8646 343.225 75.0664 343.688C75.2682 344.15 75.3691 344.674 75.3691 345.26C75.3691 345.878 75.2487 346.432 75.0078 346.92C74.7669 347.408 74.4186 347.822 73.9629 348.16C73.5072 348.499 72.9635 348.756 72.332 348.932C71.7005 349.107 70.9941 349.195 70.2129 349.195C69.5098 349.195 68.8164 349.104 68.1328 348.922C67.4492 348.733 66.8275 348.45 66.2676 348.072C65.7142 347.695 65.2715 347.213 64.9395 346.627C64.6074 346.041 64.4414 345.348 64.4414 344.547H67.3809C67.3809 344.99 67.4492 345.364 67.5859 345.67C67.7227 345.976 67.9147 346.223 68.1621 346.412C68.416 346.601 68.7155 346.738 69.0605 346.822C69.4121 346.907 69.7962 346.949 70.2129 346.949C70.7207 346.949 71.1374 346.878 71.4629 346.734C71.7949 346.591 72.0391 346.393 72.1953 346.139C72.3581 345.885 72.4395 345.598 72.4395 345.279ZM83.4355 346.471V338.434H86.248V349H83.6016L83.4355 346.471ZM83.748 344.303L84.5781 344.283C84.5781 344.986 84.4967 345.641 84.334 346.246C84.1712 346.845 83.9271 347.366 83.6016 347.809C83.276 348.245 82.8659 348.587 82.3711 348.834C81.8763 349.075 81.2936 349.195 80.623 349.195C80.1087 349.195 79.6335 349.124 79.1973 348.98C78.7676 348.831 78.3965 348.6 78.084 348.287C77.778 347.968 77.5371 347.561 77.3613 347.066C77.1921 346.565 77.1074 345.963 77.1074 345.26V338.434H79.9199V345.279C79.9199 345.592 79.9557 345.855 80.0273 346.07C80.1055 346.285 80.2129 346.461 80.3496 346.598C80.4863 346.734 80.6458 346.832 80.8281 346.891C81.0169 346.949 81.2253 346.979 81.4531 346.979C82.0326 346.979 82.4883 346.861 82.8203 346.627C83.1589 346.393 83.3965 346.074 83.5332 345.67C83.6764 345.26 83.748 344.804 83.748 344.303ZM91.209 340.465V353.062H88.3965V338.434H91.0039L91.209 340.465ZM97.8984 343.6V343.805C97.8984 344.573 97.8073 345.286 97.625 345.943C97.4492 346.601 97.1888 347.174 96.8438 347.662C96.4987 348.144 96.069 348.521 95.5547 348.795C95.0469 349.062 94.4609 349.195 93.7969 349.195C93.1523 349.195 92.5924 349.065 92.1172 348.805C91.6419 348.544 91.2415 348.18 90.916 347.711C90.597 347.236 90.3398 346.686 90.1445 346.061C89.9492 345.436 89.7995 344.765 89.6953 344.049V343.512C89.7995 342.743 89.9492 342.04 90.1445 341.402C90.3398 340.758 90.597 340.201 90.916 339.732C91.2415 339.257 91.6387 338.889 92.1074 338.629C92.5827 338.368 93.1393 338.238 93.7773 338.238C94.4479 338.238 95.0371 338.365 95.5449 338.619C96.0592 338.873 96.4889 339.238 96.834 339.713C97.1855 340.188 97.4492 340.755 97.625 341.412C97.8073 342.07 97.8984 342.799 97.8984 343.6ZM95.0762 343.805V343.6C95.0762 343.15 95.0371 342.737 94.959 342.359C94.8874 341.975 94.7702 341.64 94.6074 341.354C94.4512 341.067 94.2428 340.846 93.9824 340.689C93.7285 340.527 93.4193 340.445 93.0547 340.445C92.6706 340.445 92.3418 340.507 92.0684 340.631C91.8014 340.755 91.5833 340.934 91.4141 341.168C91.2448 341.402 91.1178 341.682 91.0332 342.008C90.9486 342.333 90.8965 342.701 90.877 343.111V344.469C90.9095 344.951 91.0007 345.383 91.1504 345.768C91.3001 346.145 91.5312 346.445 91.8438 346.666C92.1562 346.887 92.5664 346.998 93.0742 346.998C93.4453 346.998 93.7578 346.917 94.0117 346.754C94.2656 346.585 94.4707 346.354 94.627 346.061C94.7897 345.768 94.9036 345.429 94.9688 345.045C95.0404 344.661 95.0762 344.247 95.0762 343.805ZM99.1973 343.824V343.619C99.1973 342.844 99.3079 342.132 99.5293 341.48C99.7507 340.823 100.073 340.253 100.496 339.771C100.919 339.29 101.44 338.915 102.059 338.648C102.677 338.375 103.387 338.238 104.188 338.238C104.988 338.238 105.701 338.375 106.326 338.648C106.951 338.915 107.475 339.29 107.898 339.771C108.328 340.253 108.654 340.823 108.875 341.48C109.096 342.132 109.207 342.844 109.207 343.619V343.824C109.207 344.592 109.096 345.305 108.875 345.963C108.654 346.614 108.328 347.184 107.898 347.672C107.475 348.154 106.954 348.528 106.336 348.795C105.717 349.062 105.008 349.195 104.207 349.195C103.406 349.195 102.693 349.062 102.068 348.795C101.45 348.528 100.926 348.154 100.496 347.672C100.073 347.184 99.7507 346.614 99.5293 345.963C99.3079 345.305 99.1973 344.592 99.1973 343.824ZM102.01 343.619V343.824C102.01 344.267 102.049 344.68 102.127 345.064C102.205 345.449 102.329 345.787 102.498 346.08C102.674 346.367 102.902 346.591 103.182 346.754C103.462 346.917 103.803 346.998 104.207 346.998C104.598 346.998 104.933 346.917 105.213 346.754C105.493 346.591 105.717 346.367 105.887 346.08C106.056 345.787 106.18 345.449 106.258 345.064C106.342 344.68 106.385 344.267 106.385 343.824V343.619C106.385 343.189 106.342 342.786 106.258 342.408C106.18 342.024 106.053 341.686 105.877 341.393C105.708 341.093 105.483 340.859 105.203 340.689C104.923 340.52 104.585 340.436 104.188 340.436C103.79 340.436 103.452 340.52 103.172 340.689C102.898 340.859 102.674 341.093 102.498 341.393C102.329 341.686 102.205 342.024 102.127 342.408C102.049 342.786 102.01 343.189 102.01 343.619ZM113.748 340.738V349H110.936V338.434H113.582L113.748 340.738ZM116.932 338.365L116.883 340.973C116.746 340.953 116.58 340.937 116.385 340.924C116.196 340.904 116.023 340.895 115.867 340.895C115.47 340.895 115.125 340.947 114.832 341.051C114.546 341.148 114.305 341.295 114.109 341.49C113.921 341.686 113.777 341.923 113.68 342.203C113.589 342.483 113.536 342.802 113.523 343.16L112.957 342.984C112.957 342.301 113.025 341.673 113.162 341.1C113.299 340.52 113.497 340.016 113.758 339.586C114.025 339.156 114.35 338.824 114.734 338.59C115.118 338.355 115.558 338.238 116.053 338.238C116.209 338.238 116.368 338.251 116.531 338.277C116.694 338.297 116.827 338.326 116.932 338.365ZM123.924 338.434V340.426H117.771V338.434H123.924ZM119.295 335.826H122.107V345.816C122.107 346.122 122.146 346.357 122.225 346.52C122.309 346.682 122.433 346.796 122.596 346.861C122.758 346.92 122.964 346.949 123.211 346.949C123.387 346.949 123.543 346.943 123.68 346.93C123.823 346.91 123.943 346.891 124.041 346.871L124.051 348.941C123.81 349.02 123.549 349.081 123.27 349.127C122.99 349.173 122.68 349.195 122.342 349.195C121.723 349.195 121.183 349.094 120.721 348.893C120.265 348.684 119.913 348.352 119.666 347.896C119.419 347.441 119.295 346.842 119.295 346.1V335.826ZM130.389 349.195C129.568 349.195 128.833 349.065 128.182 348.805C127.531 348.538 126.977 348.17 126.521 347.701C126.072 347.232 125.727 346.689 125.486 346.07C125.245 345.445 125.125 344.781 125.125 344.078V343.688C125.125 342.887 125.239 342.154 125.467 341.49C125.695 340.826 126.02 340.25 126.443 339.762C126.873 339.273 127.394 338.899 128.006 338.639C128.618 338.372 129.308 338.238 130.076 338.238C130.825 338.238 131.489 338.362 132.068 338.609C132.648 338.857 133.133 339.208 133.523 339.664C133.921 340.12 134.22 340.667 134.422 341.305C134.624 341.936 134.725 342.639 134.725 343.414V344.586H126.326V342.711H131.961V342.496C131.961 342.105 131.889 341.757 131.746 341.451C131.609 341.139 131.401 340.891 131.121 340.709C130.841 340.527 130.483 340.436 130.047 340.436C129.676 340.436 129.357 340.517 129.09 340.68C128.823 340.842 128.605 341.07 128.436 341.363C128.273 341.656 128.149 342.001 128.064 342.398C127.986 342.789 127.947 343.219 127.947 343.688V344.078C127.947 344.501 128.006 344.892 128.123 345.25C128.247 345.608 128.419 345.917 128.641 346.178C128.868 346.438 129.142 346.64 129.461 346.783C129.786 346.926 130.154 346.998 130.564 346.998C131.072 346.998 131.544 346.9 131.98 346.705C132.423 346.503 132.804 346.201 133.123 345.797L134.49 347.281C134.269 347.6 133.966 347.906 133.582 348.199C133.204 348.492 132.749 348.733 132.215 348.922C131.681 349.104 131.072 349.195 130.389 349.195ZM72.6543 370.434V372.426H66.502V370.434H72.6543ZM68.0254 367.826H70.8379V377.816C70.8379 378.122 70.877 378.357 70.9551 378.52C71.0397 378.682 71.1634 378.796 71.3262 378.861C71.4889 378.92 71.694 378.949 71.9414 378.949C72.1172 378.949 72.2734 378.943 72.4102 378.93C72.5534 378.91 72.6738 378.891 72.7715 378.871L72.7812 380.941C72.5404 381.02 72.2799 381.081 72 381.127C71.7201 381.173 71.4108 381.195 71.0723 381.195C70.4538 381.195 69.9134 381.094 69.4512 380.893C68.9954 380.684 68.6439 380.352 68.3965 379.896C68.1491 379.441 68.0254 378.842 68.0254 378.1V367.826ZM79.1191 381.195C78.2988 381.195 77.5632 381.065 76.9121 380.805C76.2611 380.538 75.7077 380.17 75.252 379.701C74.8027 379.232 74.4577 378.689 74.2168 378.07C73.9759 377.445 73.8555 376.781 73.8555 376.078V375.688C73.8555 374.887 73.9694 374.154 74.1973 373.49C74.4251 372.826 74.7507 372.25 75.1738 371.762C75.6035 371.273 76.1243 370.899 76.7363 370.639C77.3483 370.372 78.0384 370.238 78.8066 370.238C79.5553 370.238 80.2194 370.362 80.7988 370.609C81.3783 370.857 81.8633 371.208 82.2539 371.664C82.651 372.12 82.9505 372.667 83.1523 373.305C83.3542 373.936 83.4551 374.639 83.4551 375.414V376.586H75.0566V374.711H80.6914V374.496C80.6914 374.105 80.6198 373.757 80.4766 373.451C80.3398 373.139 80.1315 372.891 79.8516 372.709C79.5716 372.527 79.2135 372.436 78.7773 372.436C78.4062 372.436 78.0872 372.517 77.8203 372.68C77.5534 372.842 77.3353 373.07 77.166 373.363C77.0033 373.656 76.8796 374.001 76.7949 374.398C76.7168 374.789 76.6777 375.219 76.6777 375.688V376.078C76.6777 376.501 76.7363 376.892 76.8535 377.25C76.9772 377.608 77.1497 377.917 77.3711 378.178C77.599 378.438 77.8724 378.64 78.1914 378.783C78.5169 378.926 78.8848 378.998 79.2949 378.998C79.8027 378.998 80.2747 378.9 80.7109 378.705C81.1536 378.503 81.5345 378.201 81.8535 377.797L83.2207 379.281C82.9993 379.6 82.6966 379.906 82.3125 380.199C81.9349 380.492 81.4792 380.733 80.9453 380.922C80.4115 381.104 79.8027 381.195 79.1191 381.195ZM77.1367 368.998L79.0508 365.99H82.1074L79.4219 368.998H77.1367ZM89.4219 378.998C89.7669 378.998 90.0729 378.933 90.3398 378.803C90.6068 378.666 90.8151 378.477 90.9648 378.236C91.1211 377.989 91.2025 377.699 91.209 377.367H93.8555C93.849 378.109 93.6504 378.77 93.2598 379.35C92.8691 379.923 92.3451 380.375 91.6875 380.707C91.0299 381.033 90.2943 381.195 89.4805 381.195C88.6602 381.195 87.944 381.059 87.332 380.785C86.7266 380.512 86.222 380.134 85.8184 379.652C85.4147 379.164 85.112 378.598 84.9102 377.953C84.7083 377.302 84.6074 376.605 84.6074 375.863V375.58C84.6074 374.831 84.7083 374.135 84.9102 373.49C85.112 372.839 85.4147 372.273 85.8184 371.791C86.222 371.303 86.7266 370.922 87.332 370.648C87.9375 370.375 88.6471 370.238 89.4609 370.238C90.3268 370.238 91.0853 370.404 91.7363 370.736C92.3939 371.068 92.9082 371.544 93.2793 372.162C93.6569 372.774 93.849 373.5 93.8555 374.34H91.209C91.2025 373.988 91.1276 373.669 90.9844 373.383C90.8477 373.096 90.6458 372.868 90.3789 372.699C90.1185 372.523 89.7962 372.436 89.4121 372.436C89.002 372.436 88.6667 372.523 88.4062 372.699C88.1458 372.868 87.944 373.103 87.8008 373.402C87.6576 373.695 87.5566 374.031 87.498 374.408C87.446 374.779 87.4199 375.17 87.4199 375.58V375.863C87.4199 376.273 87.446 376.667 87.498 377.045C87.5501 377.423 87.6478 377.758 87.791 378.051C87.9408 378.344 88.1458 378.575 88.4062 378.744C88.6667 378.913 89.0052 378.998 89.4219 378.998ZM98.2402 372.689V381H95.4277V370.434H98.0645L98.2402 372.689ZM97.8301 375.346H97.0684C97.0684 374.564 97.1693 373.861 97.3711 373.236C97.5729 372.605 97.8561 372.068 98.2207 371.625C98.5853 371.176 99.0182 370.834 99.5195 370.6C100.027 370.359 100.594 370.238 101.219 370.238C101.714 370.238 102.166 370.31 102.576 370.453C102.986 370.596 103.338 370.824 103.631 371.137C103.93 371.449 104.158 371.863 104.314 372.377C104.477 372.891 104.559 373.52 104.559 374.262V381H101.727V374.252C101.727 373.783 101.661 373.419 101.531 373.158C101.401 372.898 101.209 372.715 100.955 372.611C100.708 372.501 100.402 372.445 100.037 372.445C99.6595 372.445 99.3307 372.52 99.0508 372.67C98.7773 372.82 98.5495 373.028 98.3672 373.295C98.1914 373.555 98.0579 373.861 97.9668 374.213C97.8757 374.564 97.8301 374.942 97.8301 375.346ZM109.666 370.434V381H106.844V370.434H109.666ZM106.668 367.68C106.668 367.27 106.811 366.931 107.098 366.664C107.384 366.397 107.768 366.264 108.25 366.264C108.725 366.264 109.106 366.397 109.393 366.664C109.686 366.931 109.832 367.27 109.832 367.68C109.832 368.09 109.686 368.428 109.393 368.695C109.106 368.962 108.725 369.096 108.25 369.096C107.768 369.096 107.384 368.962 107.098 368.695C106.811 368.428 106.668 368.09 106.668 367.68ZM116.355 378.998C116.701 378.998 117.007 378.933 117.273 378.803C117.54 378.666 117.749 378.477 117.898 378.236C118.055 377.989 118.136 377.699 118.143 377.367H120.789C120.783 378.109 120.584 378.77 120.193 379.35C119.803 379.923 119.279 380.375 118.621 380.707C117.964 381.033 117.228 381.195 116.414 381.195C115.594 381.195 114.878 381.059 114.266 380.785C113.66 380.512 113.156 380.134 112.752 379.652C112.348 379.164 112.046 378.598 111.844 377.953C111.642 377.302 111.541 376.605 111.541 375.863V375.58C111.541 374.831 111.642 374.135 111.844 373.49C112.046 372.839 112.348 372.273 112.752 371.791C113.156 371.303 113.66 370.922 114.266 370.648C114.871 370.375 115.581 370.238 116.395 370.238C117.26 370.238 118.019 370.404 118.67 370.736C119.327 371.068 119.842 371.544 120.213 372.162C120.59 372.774 120.783 373.5 120.789 374.34H118.143C118.136 373.988 118.061 373.669 117.918 373.383C117.781 373.096 117.579 372.868 117.312 372.699C117.052 372.523 116.73 372.436 116.346 372.436C115.936 372.436 115.6 372.523 115.34 372.699C115.079 372.868 114.878 373.103 114.734 373.402C114.591 373.695 114.49 374.031 114.432 374.408C114.38 374.779 114.354 375.17 114.354 375.58V375.863C114.354 376.273 114.38 376.667 114.432 377.045C114.484 377.423 114.581 377.758 114.725 378.051C114.874 378.344 115.079 378.575 115.34 378.744C115.6 378.913 115.939 378.998 116.355 378.998ZM121.971 375.824V375.619C121.971 374.844 122.081 374.132 122.303 373.48C122.524 372.823 122.846 372.253 123.27 371.771C123.693 371.29 124.214 370.915 124.832 370.648C125.451 370.375 126.16 370.238 126.961 370.238C127.762 370.238 128.475 370.375 129.1 370.648C129.725 370.915 130.249 371.29 130.672 371.771C131.102 372.253 131.427 372.823 131.648 373.48C131.87 374.132 131.98 374.844 131.98 375.619V375.824C131.98 376.592 131.87 377.305 131.648 377.963C131.427 378.614 131.102 379.184 130.672 379.672C130.249 380.154 129.728 380.528 129.109 380.795C128.491 381.062 127.781 381.195 126.98 381.195C126.18 381.195 125.467 381.062 124.842 380.795C124.223 380.528 123.699 380.154 123.27 379.672C122.846 379.184 122.524 378.614 122.303 377.963C122.081 377.305 121.971 376.592 121.971 375.824ZM124.783 375.619V375.824C124.783 376.267 124.822 376.68 124.9 377.064C124.979 377.449 125.102 377.787 125.271 378.08C125.447 378.367 125.675 378.591 125.955 378.754C126.235 378.917 126.577 378.998 126.98 378.998C127.371 378.998 127.706 378.917 127.986 378.754C128.266 378.591 128.491 378.367 128.66 378.08C128.829 377.787 128.953 377.449 129.031 377.064C129.116 376.68 129.158 376.267 129.158 375.824V375.619C129.158 375.189 129.116 374.786 129.031 374.408C128.953 374.024 128.826 373.686 128.65 373.393C128.481 373.093 128.257 372.859 127.977 372.689C127.697 372.52 127.358 372.436 126.961 372.436C126.564 372.436 126.225 372.52 125.945 372.689C125.672 372.859 125.447 373.093 125.271 373.393C125.102 373.686 124.979 374.024 124.9 374.408C124.822 374.786 124.783 375.189 124.783 375.619Z" fill="url(#paint9_linear_478_2854)"/>
<path d="M10.8399 360.923C9.72003 358.981 9.72003 356.59 10.8399 354.649L52.705 282.137C53.8248 280.195 55.8952 279 58.1381 279H141.862C144.105 279 146.175 280.195 147.295 282.137L189.16 354.649C190.28 356.59 190.28 358.981 189.16 360.923L147.295 433.434C146.175 435.376 144.105 436.571 141.862 436.571H58.1381C55.8952 436.571 53.8248 435.376 52.705 433.434L10.8399 360.923Z" stroke="url(#paint10_linear_478_2854)" stroke-width="20"/>
<defs>
<linearGradient id="paint0_linear_478_2854" x1="618.354" y1="398.591" x2="666.835" y2="453.041" gradientUnits="userSpaceOnUse">
<stop stop-color="#15E768"/>
<stop offset="1" stop-color="#8B15E7"/>
</linearGradient>
<linearGradient id="paint1_linear_478_2854" x1="555.53" y1="334.386" x2="628.252" y2="416.062" gradientUnits="userSpaceOnUse">
<stop stop-color="#15E768"/>
<stop offset="1" stop-color="#8B15E7"/>
</linearGradient>
<linearGradient id="paint2_linear_478_2854" x1="461.796" y1="237.08" x2="570.878" y2="359.592" gradientUnits="userSpaceOnUse">
<stop stop-color="#15E768"/>
<stop offset="1" stop-color="#8B15E7"/>
</linearGradient>
<linearGradient id="paint3_linear_478_2854" x1="488.562" y1="618.818" x2="505.468" y2="695.17" gradientUnits="userSpaceOnUse">
<stop stop-color="#15E768"/>
<stop offset="1" stop-color="#8B15E7"/>
</linearGradient>
<linearGradient id="paint4_linear_478_2854" x1="535" y1="898.93" x2="535" y2="388.792" gradientUnits="userSpaceOnUse">
<stop stop-color="#15E768"/>
<stop offset="1" stop-color="#8B15E7"/>
</linearGradient>
<linearGradient id="paint5_linear_478_2854" x1="785.803" y1="334.818" x2="801.817" y2="411.572" gradientUnits="userSpaceOnUse">
<stop stop-color="#15E768"/>
<stop offset="1" stop-color="#8B15E7"/>
</linearGradient>
<linearGradient id="paint6_linear_478_2854" x1="1098.17" y1="361.096" x2="577.191" y2="361.096" gradientUnits="userSpaceOnUse">
<stop stop-color="#15E768"/>
<stop offset="1" stop-color="#8B15E7"/>
</linearGradient>
<linearGradient id="paint7_linear_478_2854" x1="307.5" y1="71.8182" x2="325.631" y2="147.575" gradientUnits="userSpaceOnUse">
<stop stop-color="#15E768"/>
<stop offset="1" stop-color="#8B15E7"/>
</linearGradient>
<linearGradient id="paint8_linear_478_2854" x1="350" y1="-89.4033" x2="350" y2="333.195" gradientUnits="userSpaceOnUse">
<stop stop-color="#15E768"/>
<stop offset="1" stop-color="#8B15E7"/>
</linearGradient>
<linearGradient id="paint9_linear_478_2854" x1="72.3125" y1="305.636" x2="149.154" y2="408.332" gradientUnits="userSpaceOnUse">
<stop stop-color="#15E768"/>
<stop offset="1" stop-color="#8B15E7"/>
</linearGradient>
<linearGradient id="paint10_linear_478_2854" x1="-101.259" y1="357.624" x2="330.121" y2="357.624" gradientUnits="userSpaceOnUse">
<stop stop-color="#15E768"/>
<stop offset="1" stop-color="#8B15E7"/>
</linearGradient>
</defs>
</svg>
