<svg width="24" height="24" viewBox="0 0 24 24" fill="none" xmlns="http://www.w3.org/2000/svg">
<g id="material-symbols:contract">
<path id="Vector" d="M4.6 24C3.6 24 2.75 23.65 2.05 22.95C1.35 22.25 1 21.4 1 20.4V16.8H4.6V0H22.6V20.4C22.6 21.4 22.25 22.25 21.55 22.95C20.85 23.65 20 24 19 24H4.6ZM19 21.6C19.34 21.6 19.6252 21.4848 19.8556 21.2544C20.086 21.024 20.2008 20.7392 20.2 20.4V2.4H7V16.8H17.8V20.4C17.8 20.74 17.9152 21.0252 18.1456 21.2556C18.376 21.486 18.6608 21.6008 19 21.6ZM8.2 8.4V6H19V8.4H8.2ZM8.2 12V9.6H19V12H8.2Z" fill="black"/>
</g>
</svg>
